<svg width="94" height="120" viewBox="0 0 94 120" fill="none" xmlns="http://www.w3.org/2000/svg">
<path d="M3 34.2652H11.4731V25.6742C11.4731 22.1317 11.9056 18.9623 12.7716 16.1678C13.6375 13.3532 14.9964 10.972 16.8463 9.02334C18.7163 7.07469 21.1075 5.58875 24.02 4.56459C26.9525 3.52214 30.4758 3 34.5898 3C36.6756 3 38.6444 3.19752 40.4943 3.59072C42.3442 3.96472 44.067 4.4768 45.6608 5.12604C47.2556 5.77529 48.7214 6.52329 50.0601 7.37005C51.4181 8.2159 52.6681 9.10198 53.8093 10.0265L45.5721 19.7103C44.0368 18.6084 42.581 17.811 41.203 17.319C39.8451 16.8079 38.2805 16.5518 36.5083 16.5518C34.7371 16.5518 33.2612 17.2998 32.0797 18.7949C30.9193 20.2909 30.3387 22.7708 30.3387 26.2356V34.2652H47.5208L45.8967 47.817H31.1946V100.782H11.4731V47.817H3V34.2652Z" stroke="#3335FB" stroke-width="4.53492"/>
<path d="M58.1473 37.2627L56.9476 24.629L76.8327 22.8715V93.0145C76.8327 94.6513 76.8885 96.1574 77.0001 97.5327C77.1116 98.8906 77.3448 100.062 77.6978 101.047C78.0699 102.014 78.5994 102.767 79.2871 103.306C79.9756 103.827 80.8864 104.087 82.0203 104.087C82.5598 104.087 83.0993 104.041 83.6379 103.947C84.1957 103.855 84.7352 103.734 85.2555 103.585C85.7767 103.418 86.2413 103.269 86.65 103.139C87.078 103.009 87.4218 102.888 87.6824 102.776L90.8893 114.016C90.4623 114.258 89.867 114.536 89.1044 114.853C88.3426 115.169 87.4502 115.494 86.4269 115.829C85.4046 116.145 84.2515 116.415 82.9685 116.638C81.6856 116.879 80.3469 117 78.9524 117C74.7131 117 71.2456 116.386 68.5498 115.159C65.8541 113.914 63.7345 112.194 62.1909 110C60.6473 107.806 59.5875 105.221 59.0114 102.247C58.4353 99.2527 58.1473 96.0175 58.1473 92.5408V37.2627Z" stroke="#3335FB" stroke-width="4.28402"/>
</svg>
