<svg width="253" height="253" viewBox="0 0 253 253" fill="none" xmlns="http://www.w3.org/2000/svg">
<path d="M223.705 117.475C227.658 163.582 191.38 200.34 155.746 212.979C109.06 229.537 55.712 207.45 35.3949 170.501C26.9462 155.137 18.3311 127.337 30.5297 107.8C40.8687 91.2384 56.6079 95.8373 93.3621 77.5268C135.035 56.7647 136.597 39.9963 156.654 40.0487C186.545 40.1279 220.273 77.4609 223.705 117.475Z" fill="#F2F1FF"/>
<path d="M204.775 195.844H46.7963C46.0563 195.844 45.4576 195.245 45.4576 194.506V106.393C45.4576 105.127 46.4834 104.101 47.7485 104.101H203.375C204.664 104.101 205.709 105.146 205.709 106.435V194.91C205.709 195.426 205.291 195.844 204.775 195.844Z" fill="white"/>
<path d="M50.5127 104.445C47.9146 104.445 45.801 106.558 45.801 109.157V192.892C45.801 194.33 46.9713 195.5 48.4093 195.5H203.647C204.595 195.5 205.367 194.731 205.367 193.784V109.25C205.367 106.6 203.211 104.445 200.56 104.445H50.5127ZM203.647 196.187H48.4093C46.5929 196.187 45.1142 194.708 45.1142 192.892V109.157C45.1142 106.18 47.5361 103.758 50.5127 103.758H200.56C203.59 103.758 206.052 106.223 206.052 109.25V193.784C206.052 195.109 204.973 196.187 203.647 196.187Z" fill="black"/>
<path d="M168.878 144.821H160.727C160.324 144.821 159.997 144.493 159.997 144.091V128.412C159.997 128.01 160.324 127.682 160.727 127.682H168.878C169.281 127.682 169.608 128.01 169.608 128.412V144.091C169.608 144.493 169.281 144.821 168.878 144.821Z" fill="#EEEEEE"/>
<path d="M180.08 144.821H172.074C171.632 144.821 171.272 144.461 171.272 144.018V128.485C171.272 128.043 171.632 127.683 172.074 127.683H180.08C180.522 127.683 180.882 128.043 180.882 128.485V144.018C180.882 144.461 180.522 144.821 180.08 144.821Z" fill="#EEEEEE"/>
<path d="M169.087 163.862H160.52C160.231 163.862 159.997 163.628 159.997 163.34V147.245C159.997 146.957 160.231 146.723 160.52 146.723H169.087C169.374 146.723 169.608 146.957 169.608 147.245V163.34C169.608 163.628 169.374 163.862 169.087 163.862Z" fill="#EEEEEE"/>
<path d="M180.058 163.862H172.095C171.64 163.862 171.272 163.493 171.272 163.039V147.548C171.272 147.094 171.64 146.725 172.095 146.725H180.058C180.513 146.725 180.882 147.094 180.882 147.548V163.039C180.882 163.493 180.513 163.862 180.058 163.862Z" fill="#EEEEEE"/>
<path d="M79.0276 144.032H70.8761C70.4728 144.032 70.1464 143.705 70.1464 143.302V127.624C70.1464 127.222 70.4728 126.894 70.8761 126.894H79.0276C79.4297 126.894 79.7562 127.222 79.7562 127.624V143.302C79.7562 143.705 79.4297 144.032 79.0276 144.032Z" fill="#EEEEEE"/>
<path d="M90.2279 144.032H82.2233C81.7794 144.032 81.4202 143.673 81.4202 143.229V127.697C81.4202 127.254 81.7794 126.894 82.2233 126.894H90.2279C90.6708 126.894 91.0311 127.254 91.0311 127.697V143.229C91.0311 143.673 90.6708 144.032 90.2279 144.032Z" fill="#EEEEEE"/>
<path d="M79.2354 163.073H70.6683C70.3802 163.073 70.1464 162.84 70.1464 162.552V146.456C70.1464 146.169 70.3802 145.935 70.6683 145.935H79.2354C79.5235 145.935 79.7573 146.169 79.7573 146.456V162.552C79.7573 162.84 79.5235 163.073 79.2354 163.073Z" fill="#EEEEEE"/>
<path d="M90.2076 163.073H82.2436C81.7895 163.073 81.4213 162.705 81.4213 162.25V146.76C81.4213 146.306 81.7895 145.935 82.2436 145.935H90.2076C90.6628 145.935 91.0311 146.306 91.0311 146.76V162.25C91.0311 162.705 90.6628 163.073 90.2076 163.073Z" fill="#EEEEEE"/>
<path d="M208.47 110.983H42.699C41.2689 110.983 40.2737 109.563 40.7628 108.218L53.6384 72.8533C53.9355 72.0343 54.7161 71.491 55.587 71.4966L195.246 72.3393C196.096 72.3439 196.854 72.8691 197.158 73.661L210.393 108.185C210.91 109.534 209.915 110.983 208.47 110.983Z" fill="#5D5EEF"/>
<path d="M55.5746 71.8414C54.855 71.8414 54.2066 72.2943 53.9603 72.9721L41.0848 108.337C40.8905 108.871 40.9661 109.442 41.2915 109.909C41.6179 110.374 42.1308 110.64 42.699 110.64H208.469C209.041 110.64 209.558 110.37 209.883 109.895C210.208 109.423 210.278 108.846 210.072 108.308L196.837 73.7855C196.581 73.1201 195.956 72.6875 195.243 72.6829L55.5848 71.8414C55.5802 71.8414 55.578 71.8414 55.5746 71.8414ZM208.469 111.328H42.699C41.9037 111.328 41.1853 110.954 40.7289 110.303C40.2737 109.649 40.1675 108.848 40.4397 108.1L53.3153 72.736C53.6599 71.7894 54.567 71.1545 55.5746 71.1545C55.5791 71.1545 55.5836 71.1545 55.5881 71.1545L195.247 71.9961C196.245 72.0018 197.12 72.6084 197.477 73.5392L210.713 108.062C210.997 108.803 210.897 109.633 210.449 110.286C210 110.938 209.259 111.328 208.469 111.328Z" fill="black"/>
<path d="M114.21 196.54H137.068C137.826 196.54 138.441 195.924 138.441 195.166V145.117C138.441 144.359 137.826 143.745 137.068 143.745H114.21C113.45 143.745 112.836 144.359 112.836 145.117V195.166C112.836 195.924 113.45 196.54 114.21 196.54Z" fill="#CFCFCF"/>
<path d="M109.3 197.551H141.866C142.029 197.551 142.16 197.419 142.16 197.256V193.24C142.16 193.077 142.029 192.946 141.866 192.946H109.3C109.138 192.946 109.006 193.077 109.006 193.24V197.256C109.006 197.419 109.138 197.551 109.3 197.551Z" fill="#161515"/>
<path d="M109.654 193.29C109.487 193.29 109.35 193.425 109.35 193.593V196.902C109.35 197.069 109.487 197.206 109.654 197.206H141.513C141.681 197.206 141.817 197.069 141.817 196.902V193.593C141.817 193.425 141.681 193.29 141.513 193.29H109.654ZM141.513 197.893H109.654C109.107 197.893 108.664 197.449 108.664 196.902V193.593C108.664 193.047 109.107 192.603 109.654 192.603H141.513C142.058 192.603 142.504 193.047 142.504 193.593V196.902C142.504 197.449 142.058 197.893 141.513 197.893Z" fill="black"/>
<path d="M118.725 161.198C118.611 161.198 118.501 161.141 118.434 161.04C118.333 160.88 118.379 160.667 118.538 160.564L133.383 151.022C133.543 150.919 133.756 150.966 133.858 151.125C133.96 151.285 133.914 151.496 133.755 151.599L118.91 161.142C118.852 161.18 118.787 161.198 118.725 161.198Z" fill="#161515"/>
<path d="M118.12 167.564C118.007 167.564 117.898 167.509 117.831 167.406C117.729 167.247 117.775 167.036 117.935 166.933L131.744 158.055C131.903 157.952 132.115 157.999 132.218 158.158C132.321 158.318 132.274 158.531 132.115 158.634L118.306 167.51C118.248 167.546 118.184 167.564 118.12 167.564Z" fill="#161515"/>
<path d="M43.0998 197.143C42.2493 195.875 44.3761 194.333 43.5765 192.033C42.5407 189.045 38.3185 189.789 35.9118 185.906C35.547 185.318 34.2771 183.269 34.8417 181.146C35.4671 178.796 37.769 178.488 37.9034 176.883C38.0654 174.937 34.8103 173.818 31.8064 171.387C31.0714 170.792 24.2507 165.128 24.6299 158.55C24.9361 153.204 29.9507 148.058 35.71 146.959C42.8686 145.591 50.0255 150.698 51.9372 156.127C53.8929 161.677 50.334 167.466 53.5709 170.106C54.8221 171.128 55.6495 170.505 57.0839 171.359C61.9767 174.273 63.029 187.845 56.1969 194.231C51.7841 198.356 44.443 199.146 43.0998 197.143Z" fill="#161515"/>
<path d="M46.6938 196.196C46.6353 196.205 46.5737 196.192 46.5202 196.156C46.4075 196.08 46.3783 195.926 46.4545 195.815C52.0618 187.542 50.4684 179.206 48.1449 173.67C45.6201 167.651 41.7171 163.549 41.6775 163.508C41.5836 163.41 41.5869 163.254 41.6852 163.16C41.7835 163.066 41.9385 163.069 42.0324 163.167C42.0721 163.209 46.0381 167.377 48.5988 173.479C50.1056 177.07 50.8411 180.62 50.7827 184.03C50.7117 188.3 49.3916 192.357 46.8616 196.09C46.8221 196.15 46.7595 196.186 46.6938 196.196Z" fill="#F2F1FF"/>
<path d="M54.5867 197.702C53.591 196.59 57.7329 193.286 56.8405 189.504C56.0759 186.268 52.4323 186.094 52.211 183.358C51.9588 180.231 56.5945 178.938 56.2749 175.965C56.0185 173.589 52.9809 173.666 50.9546 170.05C49.6649 167.749 48.6414 163.699 50.7441 161.395C51.9094 160.121 54.1315 159.271 55.7815 159.963C58.074 160.923 57.6162 164.174 60.2541 165.262C61.7119 165.863 62.2042 165.016 63.4469 165.602C65.9131 166.764 66.8088 171.432 66.2353 175.06C65.7503 178.137 64.3761 179.41 65.1716 181.447C65.7995 183.054 66.9004 182.891 67.524 184.251C69.0335 187.543 64.76 193.265 60.0849 196.113C58.3357 197.179 55.3542 198.559 54.5867 197.702Z" fill="#5D5EEF"/>
<path d="M56.9658 196.309C56.8845 196.336 56.7902 196.32 56.7222 196.257C56.6209 196.167 56.6132 196.011 56.7049 195.91C61.5504 190.559 62.6155 183.965 59.8735 176.307C57.8199 170.576 54.2897 166.38 54.2535 166.338C54.1667 166.235 54.1779 166.08 54.2825 165.992C54.386 165.904 54.5404 165.916 54.6285 166.02C54.6649 166.063 58.2536 170.326 60.3361 176.14C61.5624 179.566 62.0367 182.853 61.745 185.911C61.3806 189.743 59.8072 193.219 57.0694 196.241C57.04 196.273 57.0034 196.296 56.9658 196.309Z" fill="#F2F1FF"/>
</svg>
