<svg width="137" height="48" viewBox="0 0 137 48" fill="none" xmlns="http://www.w3.org/2000/svg">
<path d="M74.6316 5.57481V32.3317H69.833V6.05187L74.6316 5.57481Z" fill="#3335FB"/>
<path d="M74.6816 18.9941V21.7395L75.9889 19.5461C76.2988 19.4395 76.6135 19.3427 76.9331 19.2555C77.2624 19.1684 77.5965 19.1248 77.9354 19.1248C78.3518 19.1248 78.7537 19.1393 79.1411 19.1684C79.5381 19.1877 79.9158 19.2459 80.2741 19.3427C80.6324 19.4298 80.9714 19.5654 81.2909 19.7494C81.6105 19.9237 81.9107 20.1658 82.1916 20.4757C82.4918 20.805 82.7242 21.1633 82.8888 21.5507C83.0534 21.938 83.1696 22.3254 83.2374 22.7127C83.3149 23.0904 83.3585 23.4633 83.3682 23.8313C83.3875 24.1896 83.3972 24.5091 83.3972 24.79V35.3505H78.6617V24.3542C78.6617 23.9572 78.623 23.6279 78.5455 23.3664C78.4777 23.0953 78.3809 22.8822 78.255 22.7273C78.1291 22.5626 77.9741 22.4464 77.7901 22.3786C77.6158 22.3109 77.4221 22.277 77.2091 22.277C77.0445 22.277 76.8556 22.306 76.6426 22.3641C76.4392 22.4222 76.2262 22.5045 76.0034 22.6111C75.7807 22.7079 75.5531 22.8338 75.3207 22.9887C75.098 23.1437 74.8849 23.3132 74.6816 23.4972V35.3505H69.946V19.4734L74.6816 18.9941Z" fill="#3335FB"/>
<path d="M92.4976 35.2753C91.4411 35.2753 90.4771 35.086 89.6055 34.7074C88.734 34.3201 87.9813 33.7919 87.3474 33.1228C86.7223 32.4449 86.2337 31.6482 85.8816 30.7326C85.5382 29.817 85.3666 28.8222 85.3666 27.7481C85.3666 26.6829 85.5338 25.6968 85.8684 24.7901C86.2029 23.8745 86.6783 23.0866 87.2946 22.4263C87.9196 21.7572 88.6679 21.2378 89.5395 20.868C90.4199 20.4895 91.4059 20.3002 92.4976 20.3002C93.554 20.3002 94.518 20.4895 95.3896 20.868C96.2699 21.2378 97.0227 21.7572 97.6477 22.4263C98.2816 23.0866 98.7702 23.8745 99.1135 24.7901C99.4657 25.6968 99.6418 26.6829 99.6418 27.7481C99.6418 28.8222 99.4745 29.817 99.1399 30.7326C98.8054 31.6482 98.3256 32.4449 97.7005 33.1228C97.0843 33.7919 96.336 34.3201 95.4556 34.7074C94.5752 35.086 93.5892 35.2753 92.4976 35.2753ZM95.3368 28.0782C95.3368 27.4796 95.2839 26.8897 95.1783 26.3087C95.0726 25.7277 94.901 25.2082 94.6633 24.7505C94.4344 24.2839 94.135 23.9097 93.7653 23.628C93.4043 23.3463 92.9642 23.2054 92.4447 23.2054C91.9605 23.2054 91.5424 23.3287 91.1902 23.5752C90.8381 23.8129 90.5475 24.1342 90.3186 24.5392C90.0985 24.9441 89.9357 25.4063 89.83 25.9257C89.7244 26.4364 89.6716 26.9646 89.6716 27.5104C89.6716 28.1179 89.7244 28.7121 89.83 29.2932C89.9357 29.8742 90.1029 30.3936 90.3318 30.8514C90.5695 31.3004 90.8689 31.6658 91.2298 31.9475C91.5908 32.2292 92.0266 32.3701 92.5372 32.3701C93.0214 32.3701 93.4396 32.2512 93.7917 32.0135C94.1438 31.767 94.4344 31.4413 94.6633 31.0363C94.8922 30.6313 95.0594 30.1735 95.1651 29.6629C95.2795 29.1523 95.3368 28.6241 95.3368 28.0782Z" fill="#3335FB"/>
<path d="M108.334 35.5189C107.278 35.5189 106.314 35.3296 105.442 34.9511C104.571 34.5637 103.818 34.0355 103.184 33.3664C102.559 32.6885 102.071 31.8918 101.718 30.9762C101.375 30.0606 101.203 29.0658 101.203 27.9918C101.203 26.9265 101.371 25.9405 101.705 25.0337C102.04 24.1181 102.515 23.3302 103.131 22.6699C103.756 22.0008 104.505 21.4814 105.376 21.1117C106.257 20.7331 107.243 20.5438 108.334 20.5438C109.391 20.5438 110.355 20.7331 111.226 21.1117C112.107 21.4814 112.859 22.0008 113.485 22.6699C114.118 23.3302 114.607 24.1181 114.95 25.0337C115.302 25.9405 115.479 26.9265 115.479 27.9918C115.479 29.0658 115.311 30.0606 114.977 30.9762C114.642 31.8918 114.162 32.6885 113.537 33.3664C112.921 34.0355 112.173 34.5637 111.292 34.9511C110.412 35.3296 109.426 35.5189 108.334 35.5189ZM111.174 28.3219C111.174 27.7233 111.121 27.1334 111.015 26.5524C110.909 25.9713 110.738 25.4519 110.5 24.9941C110.271 24.5275 109.972 24.1533 109.602 23.8716C109.241 23.5899 108.801 23.4491 108.282 23.4491C107.797 23.4491 107.379 23.5723 107.027 23.8188C106.675 24.0565 106.384 24.3778 106.155 24.7828C105.935 25.1878 105.772 25.65 105.667 26.1694C105.561 26.68 105.508 27.2082 105.508 27.7541C105.508 28.3615 105.561 28.9558 105.667 29.5368C105.772 30.1179 105.94 30.6373 106.169 31.0951C106.406 31.5441 106.706 31.9094 107.067 32.1911C107.428 32.4728 107.863 32.6137 108.374 32.6137C108.858 32.6137 109.276 32.4949 109.628 32.2572C109.981 32.0107 110.271 31.6849 110.5 31.2799C110.729 30.875 110.896 30.4172 111.002 29.9066C111.116 29.396 111.174 28.8677 111.174 28.3219Z" fill="#3335FB"/>
<path d="M127.951 15.5442L127.656 12.4434L132.539 12.0084V29.2384C132.539 29.6406 132.553 30.0101 132.581 30.3468C132.609 30.6836 132.665 30.9735 132.749 31.2167C132.843 31.4506 132.974 31.633 133.142 31.7639C133.311 31.8949 133.535 31.9604 133.816 31.9604C133.947 31.9604 134.078 31.951 134.209 31.9323C134.349 31.9042 134.48 31.8715 134.602 31.8341C134.733 31.7967 134.849 31.7639 134.952 31.7359C135.055 31.6985 135.139 31.6657 135.205 31.6377L135.991 34.4017C135.888 34.4579 135.743 34.528 135.556 34.6122C135.369 34.687 135.149 34.7665 134.896 34.8507C134.644 34.9256 134.358 34.991 134.04 35.0472C133.732 35.1033 133.404 35.1313 133.058 35.1313C132.02 35.1313 131.169 34.9817 130.505 34.6824C129.84 34.3737 129.317 33.9528 128.933 33.4196C128.559 32.877 128.302 32.241 128.161 31.5114C128.021 30.7724 127.951 29.9773 127.951 29.1261V15.5442Z" fill="#3335FB"/>
<path d="M124.182 35.1381C123.126 35.1381 122.162 34.9488 121.29 34.5702C120.418 34.1829 119.666 33.6546 119.032 32.9856C118.407 32.3077 117.918 31.5109 117.566 30.5954C117.223 29.6798 117.051 28.685 117.051 27.6109C117.051 26.5457 117.218 25.5596 117.553 24.6529C117.887 23.7373 118.363 22.9493 118.979 22.2891C119.604 21.62 120.352 21.1006 121.224 20.7308C122.104 20.3523 123.09 20.163 124.182 20.163C125.238 20.163 126.202 20.3523 127.074 20.7308C127.954 21.1006 128.707 21.62 129.332 22.2891C129.966 22.9493 130.455 23.7373 130.798 24.6529C131.15 25.5596 131.326 26.5457 131.326 27.6109C131.326 28.685 131.159 29.6798 130.824 30.5954C130.49 31.5109 130.01 32.3077 129.385 32.9856C128.769 33.6546 128.02 34.1829 127.14 34.5702C126.26 34.9488 125.274 35.1381 124.182 35.1381ZM127.021 27.941C127.021 27.3424 126.968 26.7525 126.863 26.1715C126.757 25.5905 126.585 25.071 126.348 24.6132C126.119 24.1466 125.819 23.7725 125.45 23.4908C125.089 23.2091 124.649 23.0682 124.129 23.0682C123.645 23.0682 123.227 23.1914 122.875 23.4379C122.523 23.6756 122.232 23.997 122.003 24.402C121.783 24.8069 121.62 25.2691 121.514 25.7885C121.409 26.2992 121.356 26.8274 121.356 27.3732C121.356 27.9807 121.409 28.5749 121.514 29.156C121.62 29.737 121.787 30.2564 122.016 30.7142C122.254 31.1632 122.553 31.5286 122.914 31.8103C123.275 32.092 123.711 32.2328 124.222 32.2328C124.706 32.2328 125.124 32.114 125.476 31.8763C125.828 31.6298 126.119 31.3041 126.348 30.8991C126.577 30.4941 126.744 30.0363 126.85 29.5257C126.964 29.0151 127.021 28.4869 127.021 27.941Z" fill="#3335FB"/>
<path d="M13.0135 20.6969L12.7189 17.5961L17.6016 17.1611V34.3911C17.6016 34.7933 17.6157 35.1628 17.6437 35.4995C17.6718 35.8363 17.7279 36.1262 17.8121 36.3694C17.9056 36.6033 18.0366 36.7857 18.205 36.9166C18.3733 37.0476 18.5978 37.1131 18.8785 37.1131C19.0094 37.1131 19.1404 37.1037 19.2713 37.085C19.4116 37.057 19.5426 37.0242 19.6642 36.9868C19.7951 36.9494 19.9121 36.9166 20.015 36.8886C20.1179 36.8512 20.202 36.8184 20.2675 36.7904L21.0532 39.5545C20.9504 39.6106 20.8054 39.6807 20.6183 39.7649C20.4312 39.8397 20.2114 39.9193 19.9588 40.0034C19.7063 40.0783 19.421 40.1437 19.1029 40.1999C18.7943 40.256 18.4669 40.2841 18.1208 40.2841C17.0825 40.2841 16.2313 40.1344 15.5672 39.8351C14.903 39.5264 14.3792 39.1055 13.9957 38.5723C13.6215 38.0298 13.3643 37.3937 13.224 36.6641C13.0837 35.9251 13.0135 35.13 13.0135 34.2788V20.6969Z" fill="#3335FB"/>
<path d="M28.1736 35.6481C26.9851 35.6481 25.9006 35.4351 24.9201 35.0092C23.9396 34.5735 23.0928 33.9792 22.3797 33.2265C21.6765 32.4639 21.1268 31.5675 20.7306 30.5375C20.3444 29.5075 20.1513 28.3883 20.1513 27.18C20.1513 25.9816 20.3394 24.8723 20.7158 23.8522C21.0921 22.8222 21.627 21.9357 22.3203 21.1929C23.0235 20.4402 23.8653 19.8559 24.8458 19.4399C25.8362 19.014 26.9455 18.8011 28.1736 18.8011C29.3621 18.8011 30.4466 19.014 31.4271 19.4399C32.4176 19.8559 33.2644 20.4402 33.9676 21.1929C34.6807 21.9357 35.2303 22.8222 35.6166 23.8522C36.0128 24.8723 36.2109 25.9816 36.2109 27.18C36.2109 28.3883 36.0227 29.5075 35.6463 30.5375C35.27 31.5675 34.7302 32.4639 34.027 33.2265C33.3337 33.9792 32.4918 34.5735 31.5014 35.0092C30.511 35.4351 29.4017 35.6481 28.1736 35.6481ZM31.3677 27.5514C31.3677 26.8779 31.3083 26.2143 31.1894 25.5607C31.0706 24.907 30.8775 24.3227 30.6101 23.8076C30.3525 23.2827 30.0158 22.8618 29.5998 22.5449C29.1938 22.2279 28.6985 22.0695 28.1142 22.0695C27.5695 22.0695 27.099 22.2081 26.7029 22.4854C26.3067 22.7528 25.9799 23.1143 25.7223 23.5699C25.4747 24.0255 25.2915 24.5455 25.1727 25.1298C25.0538 25.7043 24.9944 26.2985 24.9944 26.9126C24.9944 27.596 25.0538 28.2645 25.1727 28.9182C25.2915 29.5719 25.4797 30.1562 25.7372 30.6712C26.0046 31.1763 26.3414 31.5874 26.7474 31.9043C27.1535 32.2212 27.6438 32.3797 28.2182 32.3797C28.7629 32.3797 29.2334 32.246 29.6295 31.9786C30.0257 31.7013 30.3525 31.3348 30.6101 30.8792C30.8676 30.4236 31.0557 29.9086 31.1746 29.3342C31.3033 28.7597 31.3677 28.1655 31.3677 27.5514Z" fill="#3335FB"/>
<path d="M54.638 20.3962H59.239V35.8222L54.638 36.288V33.6205L53.3678 35.7517C53.0667 35.8552 52.7609 35.9492 52.4504 36.0339C52.1305 36.1186 51.8059 36.1609 51.4766 36.1609C51.072 36.1609 50.6674 36.128 50.2629 36.0622C49.8489 35.9963 49.4631 35.9069 49.1056 35.794C48.7386 35.6811 48.4046 35.54 48.1035 35.3706C47.793 35.2106 47.539 35.0319 47.3414 34.8343C47.125 34.9848 46.8756 35.1401 46.5934 35.3C46.3017 35.46 45.9818 35.6011 45.6337 35.7234C45.2761 35.8552 44.8951 35.9587 44.4905 36.0339C44.0859 36.1186 43.6578 36.1609 43.2061 36.1609C42.3499 36.1609 41.5831 36.0339 40.9057 35.7799C40.2188 35.5258 39.6402 35.1636 39.1697 34.6931C38.6898 34.2321 38.3229 33.6676 38.0689 32.9995C37.8148 32.3409 37.6878 31.6023 37.6878 30.7837V20.3962H42.2888V31.0801C42.2888 31.4659 42.3358 31.7858 42.4299 32.0398C42.524 32.3033 42.651 32.5103 42.811 32.6608C42.9615 32.8208 43.1356 32.9337 43.3332 32.9995C43.5213 33.0654 43.7189 33.0983 43.9259 33.0983C44.0577 33.0983 44.2129 33.0654 44.3917 32.9995C44.5704 32.9431 44.7633 32.8584 44.9703 32.7455C45.1773 32.642 45.389 32.515 45.6054 32.3644C45.8218 32.2233 46.0241 32.0633 46.2123 31.8846C46.1935 31.6588 46.1841 31.4612 46.1841 31.2918C46.1747 31.1319 46.17 30.9202 46.17 30.6567V20.3962H50.7709V31.0801C50.7709 31.4659 50.8086 31.7858 50.8839 32.0398C50.9497 32.3033 51.0438 32.5103 51.1661 32.6608C51.2884 32.8208 51.439 32.9337 51.6178 32.9995C51.7871 33.0654 51.9753 33.0983 52.1823 33.0983C52.3422 33.0983 52.5257 33.0701 52.7327 33.0137C52.9303 32.9572 53.1373 32.8772 53.3537 32.7737C53.5701 32.6796 53.7912 32.5573 54.017 32.4068C54.2334 32.2562 54.4404 32.0916 54.638 31.9128V20.3962Z" fill="#3335FB"/>
<path d="M0.200261 19.4307H2.28014V17.3211C2.28014 16.4496 2.38413 15.6721 2.59212 14.9887C2.81001 14.2954 3.14675 13.7111 3.60234 13.2357C4.05793 12.7504 4.64228 12.3839 5.35538 12.1363C6.07838 11.8788 6.945 11.75 7.95522 11.75C8.47024 11.75 8.95554 11.7996 9.41113 11.8986C9.86673 11.9877 10.2877 12.1115 10.6739 12.27C11.0701 12.4285 11.4316 12.6117 11.7584 12.8197C12.0952 13.0277 12.4022 13.2456 12.6795 13.4734L10.6591 15.8504C10.2827 15.5829 9.92615 15.3898 9.58941 15.271C9.25267 15.1422 8.8664 15.0778 8.43062 15.0778C7.99484 15.0778 7.63334 15.2611 7.34612 15.6275C7.05889 15.994 6.91528 16.6031 6.91528 17.4548V19.4307H11.1345L10.7333 22.7585H7.12327V35.7726H2.28014V22.7585H0.200261V19.4307Z" fill="#3335FB"/>
</svg>
