<svg width="109" height="100" viewBox="0 0 109 100" fill="none" xmlns="http://www.w3.org/2000/svg">
<path d="M30.0671 19.8508V64.2601H22.1028V20.6426L30.0671 19.8508Z" fill="#3335FB"/>
<path d="M94.9789 55.3518L94.4898 50.2053L102.594 49.4834V78.0805C102.594 78.748 102.617 79.3613 102.664 79.9202C102.71 80.4791 102.803 80.9603 102.943 81.364C103.098 81.7521 103.316 82.0549 103.595 82.2722C103.875 82.4896 104.247 82.5982 104.713 82.5982C104.93 82.5982 105.148 82.5827 105.365 82.5517C105.598 82.5051 105.815 82.4508 106.017 82.3887C106.235 82.3266 106.429 82.2722 106.599 82.2256C106.77 82.1635 106.91 82.1092 107.019 82.0626L108.323 86.6503C108.152 86.7434 107.911 86.8599 107.601 86.9996C107.29 87.1238 106.925 87.2557 106.506 87.3955C106.087 87.5197 105.614 87.6283 105.086 87.7215C104.573 87.8146 104.03 87.8612 103.456 87.8612C101.732 87.8612 100.319 87.6128 99.2172 87.116C98.1149 86.6037 97.2455 85.9051 96.609 85.0201C95.988 84.1197 95.5611 83.064 95.3282 81.853C95.0953 80.6266 94.9789 79.3069 94.9789 77.8942V55.3518Z" fill="#3335FB"/>
<path d="M50.2869 57.4602C48.3143 57.4602 46.5143 57.1068 44.8869 56.3999C43.2595 55.6766 41.854 54.6903 40.6705 53.441C39.5034 52.1753 38.591 50.6876 37.9335 48.9781C37.2924 47.2685 36.9719 45.411 36.9719 43.4055C36.9719 41.4165 37.2842 39.5754 37.9088 37.8822C38.5335 36.1727 39.4212 34.7014 40.5718 33.4686C41.739 32.2193 43.1362 31.2494 44.7636 30.559C46.4074 29.8521 48.2485 29.4987 50.2869 29.4987C52.2594 29.4987 54.0594 29.8521 55.6868 30.559C57.3306 31.2494 58.7361 32.2193 59.9032 33.4686C61.0868 34.7014 61.9991 36.1727 62.6402 37.8822C63.2977 39.5754 63.6265 41.4165 63.6265 43.4055C63.6265 45.411 63.3142 47.2685 62.6895 48.9781C62.0649 50.6876 61.169 52.1753 60.0019 53.441C58.8512 54.6903 57.4539 55.6766 55.8101 56.3999C54.1663 57.1068 52.3252 57.4602 50.2869 57.4602ZM55.5882 44.0219C55.5882 42.9041 55.4896 41.8028 55.2923 40.7178C55.095 39.6329 54.7745 38.663 54.3307 37.8083C53.9033 36.937 53.3444 36.2384 52.654 35.7124C51.98 35.1864 51.1581 34.9233 50.1882 34.9233C49.2841 34.9233 48.5033 35.1535 47.8458 35.6138C47.1882 36.0576 46.6458 36.6576 46.2184 37.4137C45.8074 38.1699 45.5033 39.0329 45.3061 40.0028C45.1088 40.9562 45.0102 41.9425 45.0102 42.9617C45.0102 44.0959 45.1088 45.2055 45.3061 46.2904C45.5033 47.3753 45.8156 48.3452 46.243 49.2C46.6869 50.0383 47.2458 50.7205 47.9197 51.2465C48.5937 51.7726 49.4074 52.0356 50.3608 52.0356C51.2649 52.0356 52.0457 51.8137 52.7033 51.3698C53.3608 50.9095 53.9033 50.3013 54.3307 49.5452C54.7581 48.789 55.0704 47.9342 55.2676 46.9808C55.4813 46.0274 55.5882 45.0411 55.5882 44.0219Z" fill="#3335FB"/>
<path d="M29.7781 59.0305V63.5872L31.948 59.9467C32.4623 59.7699 32.9847 59.6091 33.5151 59.4645C34.0616 59.3198 34.6161 59.2475 35.1787 59.2475C35.8698 59.2475 36.5368 59.2716 37.1797 59.3198C37.8387 59.352 38.4656 59.4484 39.0603 59.6091C39.655 59.7538 40.2175 59.9788 40.7479 60.2842C41.2783 60.5735 41.7766 60.9753 42.2427 61.4897C42.741 62.0361 43.1267 62.6308 43.4 63.2738C43.6732 63.9167 43.8661 64.5596 43.9786 65.2025C44.1072 65.8294 44.1795 66.4482 44.1956 67.0589C44.2277 67.6536 44.2438 68.1841 44.2438 68.6502V86.1777H36.3841V67.9269C36.3841 67.2679 36.3198 66.7214 36.1912 66.2874C36.0787 65.8374 35.918 65.4838 35.7091 65.2266C35.5001 64.9534 35.2429 64.7605 34.9376 64.648C34.6482 64.5355 34.3268 64.4792 33.9732 64.4792C33.6999 64.4792 33.3865 64.5275 33.0329 64.6239C32.6954 64.7203 32.3418 64.857 31.9721 65.0338C31.6024 65.1945 31.2247 65.4034 30.839 65.6606C30.4693 65.9178 30.1157 66.199 29.7781 66.5044V86.1777H21.9185V59.8261L29.7781 59.0305Z" fill="#3335FB"/>
<path d="M60.0079 86.482C58.2545 86.482 56.6545 86.1678 55.2079 85.5395C53.7614 84.8966 52.5121 84.0199 51.46 82.9094C50.4226 81.7843 49.6116 80.4619 49.0272 78.9423C48.4573 77.4227 48.1724 75.7715 48.1724 73.9889C48.1724 72.2209 48.45 70.5844 49.0052 69.0793C49.5605 67.5597 50.3495 66.252 51.3724 65.1561C52.4098 64.0456 53.6518 63.1835 55.0984 62.5698C56.5595 61.9415 58.1961 61.6273 60.0079 61.6273C61.7613 61.6273 63.3613 61.9415 64.8079 62.5698C66.2691 63.1835 67.5184 64.0456 68.5558 65.1561C69.6079 66.252 70.4188 67.5597 70.9887 69.0793C71.5731 70.5844 71.8654 72.2209 71.8654 73.9889C71.8654 75.7715 71.5878 77.4227 71.0325 78.9423C70.4773 80.4619 69.6809 81.7843 68.6435 82.9094C67.6207 84.0199 66.3787 84.8966 64.9175 85.5395C63.4563 86.1678 61.8198 86.482 60.0079 86.482ZM64.7202 74.5368C64.7202 73.5432 64.6325 72.5643 64.4572 71.5999C64.2819 70.6355 63.9969 69.7734 63.6024 69.0136C63.2225 68.2392 62.7257 67.6182 62.112 67.1506C61.5129 66.683 60.7823 66.4492 59.9202 66.4492C59.1166 66.4492 58.4225 66.6538 57.8381 67.0629C57.2536 67.4574 56.7714 67.9908 56.3915 68.6629C56.0262 69.335 55.7559 70.1022 55.5805 70.9643C55.4052 71.8117 55.3175 72.6885 55.3175 73.5944C55.3175 74.6026 55.4052 75.5889 55.5805 76.5533C55.7559 77.5176 56.0335 78.3797 56.4134 79.1396C56.8079 79.8848 57.3047 80.4911 57.9038 80.9587C58.5029 81.4263 59.2262 81.6601 60.0737 81.6601C60.8773 81.6601 61.5714 81.4628 62.1558 81.0683C62.7403 80.6592 63.2225 80.1185 63.6024 79.4464C63.9823 78.7743 64.2599 78.0144 64.4353 77.167C64.6252 76.3195 64.7202 75.4428 64.7202 74.5368Z" fill="#3335FB"/>
<path d="M86.8562 87.5779C85.1028 87.5779 83.5028 87.2638 82.0563 86.6355C80.6097 85.9925 79.3604 85.1158 78.3083 84.0053C77.2709 82.8802 76.46 81.5579 75.8755 80.0382C75.3056 78.5186 75.0207 76.8675 75.0207 75.0848C75.0207 73.3168 75.2983 71.6803 75.8536 70.1753C76.4088 68.6557 77.1979 67.3479 78.2207 66.252C79.2581 65.1415 80.5001 64.2794 81.9467 63.6657C83.4079 63.0374 85.0444 62.7233 86.8562 62.7233C88.6097 62.7233 90.2096 63.0374 91.6562 63.6657C93.1174 64.2794 94.3667 65.1415 95.4041 66.252C96.4562 67.3479 97.2671 68.6557 97.837 70.1753C98.4215 71.6803 98.7137 73.3168 98.7137 75.0848C98.7137 76.8675 98.4361 78.5186 97.8808 80.0382C97.3256 81.5579 96.5292 82.8802 95.4918 84.0053C94.469 85.1158 93.227 85.9925 91.7658 86.6355C90.3046 87.2638 88.6681 87.5779 86.8562 87.5779ZM91.5685 75.6328C91.5685 74.6392 91.4809 73.6602 91.3055 72.6958C91.1302 71.7314 90.8453 70.8693 90.4507 70.1095C90.0708 69.3351 89.574 68.7141 88.9603 68.2465C88.3613 67.779 87.6307 67.5452 86.7686 67.5452C85.9649 67.5452 85.2709 67.7497 84.6864 68.1589C84.1019 68.5534 83.6197 69.0867 83.2398 69.7589C82.8745 70.431 82.6042 71.1981 82.4289 72.0602C82.2535 72.9077 82.1659 73.7844 82.1659 74.6903C82.1659 75.6985 82.2535 76.6848 82.4289 77.6492C82.6042 78.6136 82.8818 79.4757 83.2617 80.2355C83.6563 80.9807 84.1531 81.5871 84.7521 82.0547C85.3512 82.5222 86.0745 82.756 86.922 82.756C87.7256 82.756 88.4197 82.5588 89.0042 82.1643C89.5886 81.7551 90.0708 81.2145 90.4507 80.5423C90.8306 79.8702 91.1083 79.1104 91.2836 78.2629C91.4736 77.4154 91.5685 76.5387 91.5685 75.6328Z" fill="#3335FB"/>
<path d="M94.2246 30.0679H101.861V55.6709L94.2246 56.4439V52.0166L92.1164 55.5537C91.6166 55.7255 91.1091 55.8817 90.5938 56.0222C90.0628 56.1628 89.5241 56.2331 88.9775 56.2331C88.306 56.2331 87.6345 56.1784 86.963 56.0691C86.2759 55.9598 85.6356 55.8114 85.0422 55.624C84.4331 55.4366 83.8787 55.2024 83.379 54.9213C82.8637 54.6558 82.442 54.3591 82.1141 54.0311C81.7549 54.281 81.3411 54.5387 80.8726 54.8042C80.3885 55.0696 79.8575 55.3039 79.2797 55.5069C78.6863 55.7255 78.0539 55.8973 77.3823 56.0222C76.7108 56.1628 76.0003 56.2331 75.2507 56.2331C73.8296 56.2331 72.5569 56.0222 71.4325 55.6006C70.2925 55.179 69.3321 54.5777 68.5513 53.7969C67.7549 53.0317 67.1458 52.0947 66.7242 50.986C66.3026 49.8928 66.0917 48.6669 66.0917 47.3083V30.0679H73.7281V47.8002C73.7281 48.4405 73.8062 48.9715 73.9624 49.3931C74.1185 49.8304 74.3294 50.1739 74.5948 50.4238C74.8447 50.6893 75.1336 50.8766 75.4615 50.986C75.7739 51.0953 76.1018 51.1499 76.4454 51.1499C76.664 51.1499 76.9217 51.0953 77.2184 50.986C77.5151 50.8923 77.8352 50.7517 78.1788 50.5643C78.5223 50.3925 78.8737 50.1817 79.2329 49.9319C79.5921 49.6976 79.9278 49.4321 80.2401 49.1354C80.2089 48.7606 80.1933 48.4327 80.1933 48.1516C80.1777 47.8861 80.1699 47.5348 80.1699 47.0975V30.0679H87.8063V47.8002C87.8063 48.4405 87.8687 48.9715 87.9937 49.3931C88.103 49.8304 88.2591 50.1739 88.4621 50.4238C88.6652 50.6893 88.915 50.8766 89.2117 50.986C89.4928 51.0953 89.8051 51.1499 90.1487 51.1499C90.4142 51.1499 90.7187 51.1031 91.0623 51.0094C91.3902 50.9157 91.7338 50.783 92.0929 50.6112C92.4521 50.455 92.8191 50.252 93.1939 50.0021C93.5531 49.7523 93.8966 49.479 94.2246 49.1823V30.0679Z" fill="#3335FB"/>
<path d="M0.757779 20.8769H4.20981V17.3755C4.20981 15.929 4.38241 14.6386 4.72762 13.5043C5.08926 12.3536 5.64816 11.3838 6.40432 10.5948C7.16048 9.78928 8.13034 9.18106 9.31389 8.7701C10.5139 8.34271 11.9522 8.12901 13.6289 8.12901C14.4837 8.12901 15.2892 8.2112 16.0454 8.37559C16.8015 8.52353 17.5001 8.72901 18.1412 8.99202C18.7988 9.25503 19.3988 9.55914 19.9412 9.90434C20.5001 10.2495 21.0097 10.6112 21.47 10.9893L18.1166 14.9345C17.4919 14.4906 16.9001 14.1701 16.3412 13.9728C15.7823 13.7591 15.1413 13.6523 14.418 13.6523C13.6947 13.6523 13.0947 13.9564 12.618 14.5646C12.1413 15.1728 11.9029 16.1838 11.9029 17.5974V20.8769H18.9056L18.2399 26.4001H12.2481V48H4.20981V26.4001H0.757779V20.8769Z" fill="#3335FB"/>
</svg>
