<svg
      width="34"
      height="34"
      viewBox="0 0 34 44"
      fill="#3335FB"
      xmlns="http://www.w3.org/2000/svg"
    >
      <path
        d="M1 12.3835H4.085V9.25553C4.085 7.96573 4.24248 6.81177 4.55778 5.79431C4.87307 4.76952 5.36781 3.90255 6.04135 3.19306C6.72221 2.48357 7.59284 1.94255 8.65325 1.56966C9.72098 1.19011 11.0038 1 12.5017 1C13.2611 1 13.9779 1.07191 14.6515 1.21508C15.325 1.35125 15.9522 1.53769 16.5326 1.77408C17.1132 2.01047 17.6469 2.28281 18.1343 2.59111C18.6287 2.89908 19.0839 3.2217 19.4994 3.5583L16.5003 7.08411C15.9413 6.68292 15.4112 6.3926 14.9095 6.21348C14.4151 6.02736 13.8454 5.93414 13.2002 5.93414C12.5553 5.93414 12.0179 6.20648 11.5878 6.75084C11.1653 7.29552 10.9538 8.19845 10.9538 9.45995V12.3835H17.2098L16.6185 17.3176H11.2655V36.6017H4.085V17.3176H1V12.3835Z"
        stroke="#3335FB"
        strokeWidth="1.65114"
      />
      <path
        d="M21.0788 13.4749L20.642 8.87501L27.882 8.23511V33.7738C27.882 34.3697 27.9023 34.9181 27.943 35.4188C27.9836 35.9132 28.0685 36.3397 28.197 36.6983C28.3325 37.0506 28.5253 37.3246 28.7756 37.521C29.0263 37.7104 29.358 37.8053 29.7708 37.8053C29.9672 37.8053 30.1637 37.7884 30.3598 37.7544C30.5629 37.7208 30.7593 37.6768 30.9487 37.6225C31.1385 37.5616 31.3076 37.5074 31.4565 37.4601C31.6123 37.4128 31.7375 37.3685 31.8323 37.3279L33 41.4204C32.8445 41.5083 32.6277 41.6098 32.3501 41.725C32.0727 41.8402 31.7478 41.9584 31.3752 42.0803C31.003 42.1955 30.5832 42.2937 30.1161 42.3749C29.6489 42.4628 29.1615 42.5067 28.6538 42.5067C27.1103 42.5067 25.8478 42.2833 24.8663 41.8365C23.8848 41.3831 23.113 40.7568 22.551 39.9581C21.989 39.1594 21.6032 38.2182 21.3934 37.1351C21.1837 36.0451 21.0788 34.8672 21.0788 33.6013V13.4749Z"
        stroke="#3335FB"
        strokeWidth="1.55979"
      />
    </svg>