<svg xmlns="http://www.w3.org/2000/svg" width="838" height="837" fill="none"><style>.B{fill:#000}.C{fill:#fff}.D{fill:#5d5eef}</style><path d="M639.202 788.405c-176.461 103.004-391.689 27.749-509.485-90.568-154.334-155.007-167.1-409.719-58.118-560.722C116.911 74.331 211.518-10.628 312.526 1.094c85.616 9.938 97.03 79.431 239.571 191.487C713.721 319.638 782.188 294.73 819.901 374.888c56.207 119.449-27.564 324.117-180.699 413.517z" fill="#f2f1ff"/><path d="M23.132 443.901c-.74 0-1.392-.546-1.498-1.3-6.938-48.532-6.462-97.008 1.423-144.078 7.951-47.458 23.057-91.202 44.898-130.021a1.514 1.514 0 0 1 2.062-.581 1.52 1.52 0 0 1 .577 2.07c-43.647 77.572-59.969 174.237-45.96 272.179a1.515 1.515 0 0 1-1.286 1.713 1.73 1.73 0 0 1-.216.018zm8.343-73.744a1.522 1.522 0 0 1-1.515-1.537c1.123-87.326 26.594-169.858 71.73-232.395a1.516 1.516 0 1 1 2.459 1.775c-44.775 62.035-70.044 143.951-71.154 230.659a1.52 1.52 0 0 1-1.52 1.498z" class="C"/><path d="M247.271 790.128c3.101-8.331 23.277-63.876 11.542-95.748-1.63-4.437-4.168-11.318-11.066-16.666-13.784-10.678-27.053-1.325-37.996-9.092-14.436-10.247.886-32.026-15.506-62.334-3.93-7.269-10.053-18.586-22.894-23.991-14.331-6.035-22.286 1.511-36.383-3.053-17.573-5.683-16.22-20.978-33.075-35.722-17.749-15.538-51.766-27.009-76.14-13.608C4.497 541.601-1.37 567.777.255 585.521c2.396 26.216 22.343 47.115 42.801 56.423 29.401 13.387 58.33 2.132 62.55 12.335 3.925 9.506-20.987 19.66-19.071 37.612 1.339 12.537 15.287 24.418 29.22 27.18 19.313 3.828 29.925-11.573 41.555-6.167 12.194 5.66 6.176 25.206 15.344 42.506 7.559 14.264 26.537 29.044 74.616 34.718z" class="B"/><path d="M247.729 784.62a1.52 1.52 0 0 1-1.467-1.128c-18.916-72.361-69.246-123.056-108.136-152.836-42.176-32.303-80.316-47.638-80.7-47.788a1.52 1.52 0 0 1-.846-1.973 1.516 1.516 0 0 1 1.969-.846c.383.15 38.912 15.647 81.418 48.198 24.977 19.127 46.435 40.325 63.779 62.995 21.704 28.374 36.995 59.153 45.449 91.479a1.515 1.515 0 0 1-1.467 1.899z" class="D"/><path d="m248.923 796.876.379-1.243.004-.008c20.15-65.907 20.744-104.431 13.189-127.462-3.237-9.85-7.955-16.868-13.29-21.973s-17.493-14.317-26.573-31.775c-3.497-6.749-5.524-12.771-6.744-18.428l-.181-.85a68.77 68.77 0 0 1-.59-3.365c-1.264-8.11-1.119-15.595-1.718-23.586-.256-3.383-.639-6.855-1.317-10.511a65.87 65.87 0 0 0-.921-4.225c.009-.013.004-.03-.013-.052-8.093-33.45-37.255-62.441-68.537-77.088a122.35 122.35 0 0 0-8.41-3.577c-18.696-7.119-49.515-13.462-74.1-6.172-.004.013-.022.018-.044.022-8.158 2.432-15.612 6.37-21.713 12.264-2.26 2.185-4.467 4.763-6.454 7.591-7.141 10.127-11.59 23.365-6.242 32.431 2.137 3.617 5.48 5.784 9.621 7.15 14.806 4.947 39.802-.075 56.03 16.625 11.331 11.657 4.194 19.163 16.331 31.454 19.123 19.339 45.757 9.687 53.387 24.158 3.176 6.027.67 11.828-2.731 17.947-3.762 6.753-8.59 13.89-8.044 22.15l-.005.013c.111 1.639.441 3.33 1.018 5.062a25.37 25.37 0 0 0 3.498 6.841c4.202 5.863 10.427 9.432 16.519 12.903.185.092.366.194.542.3 8.331 4.74 16.317 9.422 18.516 19.687 2.612 12.224-2.428 15.695-1.044 30.105 1.22 12.736 11.057 18.943 23.806 30.546.03.018.061.049.088.084 4.788 4.352 9.978 9.475 15.277 16.004 8.595 10.59 13.925 21.097 17.714 30.106a224.845 224.845 0 0 1 2.753 6.872z" class="C"/><path d="M249.553 765.59a1.514 1.514 0 0 1-1.511-1.419c-5.709-88.338-36.163-141.919-66.863-189.232-47.885-73.805-105.409-89.757-105.986-89.915a1.513 1.513 0 0 1 .775-2.925c.603.154 14.982 4.044 35.563 17.251 18.934 12.158 46.832 34.849 72.189 73.937 30.92 47.647 61.585 101.625 67.347 190.695a1.52 1.52 0 0 1-1.418 1.608h-.097zm340.742-35.898c-3.102-8.335-23.282-63.881-11.547-95.748 1.635-4.432 4.168-11.322 11.071-16.665 13.779-10.683 27.048-1.331 37.995-9.097 14.432-10.242-.89-32.018 15.507-62.33 3.929-7.269 10.052-18.586 22.889-23.991 14.335-6.04 22.286 1.506 36.383-3.049 17.577-5.682 16.225-20.982 33.079-35.731 17.749-15.532 51.766-27.008 76.136-13.599 21.26 11.683 27.123 37.859 25.502 55.603-2.396 26.216-22.343 47.11-42.797 56.423-29.405 13.383-58.339 2.132-62.554 12.339-3.93 9.498 20.986 19.656 19.066 37.612-1.34 12.537-15.287 24.41-29.216 27.172-19.313 3.832-29.925-11.564-41.559-6.168-12.194 5.661-6.168 25.216-15.339 42.507-7.56 14.268-26.538 29.043-74.616 34.722z" class="B"/><g class="D"><path d="M589.836 724.185a1.63 1.63 0 0 1-.383-.049 1.52 1.52 0 0 1-1.084-1.85c8.454-32.326 23.74-63.105 45.449-91.475 17.344-22.678 38.802-43.872 63.775-63 42.511-32.55 81.039-48.048 81.422-48.197a1.51 1.51 0 0 1 1.97.845 1.52 1.52 0 0 1-.846 1.97c-.379.149-38.59 15.524-80.771 47.841-38.863 29.783-89.157 80.457-108.069 152.783a1.506 1.506 0 0 1-1.463 1.132z"/><path d="m588.643 736.442-.379-1.243-.004-.008c-20.15-65.907-20.749-104.436-13.194-127.462 3.242-9.85 7.96-16.868 13.295-21.973s17.493-14.322 26.572-31.78c3.494-6.744 5.525-12.766 6.741-18.423.066-.282.123-.563.185-.854.229-1.132.422-2.251.59-3.361 1.26-8.11 1.114-15.599 1.718-23.591.255-3.383.639-6.854 1.317-10.51.269-1.406.56-2.82.921-4.225-.009-.009-.005-.026.013-.049 8.092-33.449 37.255-62.44 68.532-77.083a119.1 119.1 0 0 1 8.41-3.581c18.7-7.119 49.52-13.463 74.101-6.167a.105.105 0 0 0 .048.017c8.159 2.427 15.612 6.366 21.714 12.264 2.26 2.181 4.467 4.758 6.453 7.591 7.137 10.132 11.591 23.361 6.247 32.431-2.141 3.612-5.489 5.78-9.625 7.154-14.811 4.939-39.802-.083-56.035 16.617-11.326 11.656-4.19 19.172-16.326 31.453-19.123 19.344-45.757 9.687-53.387 24.159-3.176 6.026-.665 11.828 2.731 17.951 3.762 6.749 8.59 13.885 8.04 22.15l.008.009a20.496 20.496 0 0 1-1.017 5.066c-.872 2.599-2.062 4.859-3.498 6.837-4.207 5.872-10.423 9.431-16.524 12.907a11.22 11.22 0 0 0-.542.299c-8.33 4.741-16.317 9.419-18.511 19.688-2.612 12.22 2.432 15.695 1.044 30.105-1.216 12.736-11.053 18.938-23.806 30.55a.298.298 0 0 0-.088.075c-4.793 4.362-9.978 9.476-15.277 16.009-8.595 10.59-13.93 21.092-17.714 30.11-1.017 2.405-1.92 4.7-2.753 6.868z"/></g><path d="M588.012 705.153h-.101a1.52 1.52 0 0 1-1.414-1.613c5.758-89.069 36.427-143.042 67.343-190.694 25.361-39.083 53.26-61.775 72.193-73.933 20.577-13.212 34.965-17.093 35.564-17.251a1.514 1.514 0 0 1 1.85 1.075 1.52 1.52 0 0 1-1.079 1.854c-.577.15-58.101 16.106-105.986 89.907-30.696 47.317-61.149 100.898-66.863 189.241a1.512 1.512 0 0 1-1.507 1.414zm77.454 59.15c1.343-.581 79.545 2.784 79.545 2.784l-12.916-36.744-65.678-.322-.951 34.282z" class="C"/><path d="M667.659 762.774c5.525 0 22.401.44 75.18 2.705l-11.819-33.626-63.132-.317-.863 31.238h.634zm77.352 5.828h-.066l-79.131-2.819c-.41.092-.842.017-1.199-.221a1.53 1.53 0 0 1-.665-1.299l.952-34.291a1.515 1.515 0 0 1 1.515-1.471l65.687.322a1.534 1.534 0 0 1 1.423 1.017l12.912 36.744a1.514 1.514 0 0 1-1.428 2.018z" class="B"/><path d="M716.804 751.29c-1.546 2.647-2.872 6.29-2.317 10.537.833 6.388 5.806 11.485 12.097 13.093 15.722 4.03 59.361 14.268 93.422 13.387 12.04-.313 20.044-10.824 9.952-23.29-16.533-20.428-50.921-46.775-96.506-55.767-5.229-1.035-10.665.604-14.357 4.437-3.018 3.127-6.608 7.286-9.484 11.889-2.749 4.401-1.802 10.132 2.127 13.52l3.542 3.044a7.242 7.242 0 0 1 1.524 9.15z" class="C"/><path d="M718.113 752.052c-1.828 3.141-2.542 6.361-2.123 9.577.722 5.582 5.132 10.326 10.969 11.824 16.788 4.304 59.479 14.198 93.008 13.339 5.674-.146 10.356-2.736 12.207-6.753 1.872-4.058.665-9.053-3.392-14.071-16.934-20.92-50.951-46.418-95.621-55.233-4.801-.947-9.647.551-12.978 4.005-3.797 3.942-6.925 7.859-9.286 11.638-2.352 3.767-1.586 8.63 1.833 11.568l3.542 3.044a8.78 8.78 0 0 1 1.841 11.062zm97.629 37.824c-33.176 0-73.33-9.335-89.537-13.489-7.026-1.798-12.334-7.573-13.22-14.366-.502-3.841.366-7.815 2.507-11.493a5.74 5.74 0 0 0-1.198-7.234l-3.547-3.052c-4.555-3.921-5.568-10.423-2.423-15.467 2.476-3.965 5.732-8.049 9.679-12.141 4.048-4.198 9.934-6.018 15.744-4.868 45.467 8.965 80.123 34.965 97.387 56.295 4.824 5.96 6.176 12.083 3.793 17.246-2.344 5.075-8.04 8.335-14.885 8.516l-4.3.053zm5.925-9.092c-.74 0-1.392-.546-1.498-1.299-.061-.41-5.828-32.102-88.854-57.449a1.52 1.52 0 0 1-1.004-1.895 1.51 1.51 0 0 1 1.89-1.004c85.382 26.061 90.783 58.555 90.968 59.929a1.51 1.51 0 0 1-1.291 1.705 1.66 1.66 0 0 1-.211.013zm-48.387-3.607c-.057 0-.123-.005-.181-.009a1.516 1.516 0 0 1-1.321-1.687l2.026-16.643a1.51 1.51 0 0 1 1.688-1.322c.832.097 1.422.85 1.321 1.683l-2.026 16.647a1.52 1.52 0 0 1-1.507 1.331zm-15.185-2.248c-.057 0-.119 0-.176-.009a1.517 1.517 0 0 1-1.331-1.683l2.375-20.194a1.515 1.515 0 1 1 3.009.353l-2.37 20.198a1.52 1.52 0 0 1-1.507 1.335z" class="B"/><path d="M261.051 721.163c.753 1.255 7.881 79.215 7.881 79.215l34.682-17.714-8.462-65.144-34.101 3.643z" class="C"/><path d="M262.778 722.507c.678 4.762 2.44 20.691 7.458 75.501l31.74-16.211-8.137-62.612-31.061 3.322zm6.154 79.382a1.46 1.46 0 0 1-.731-.185 1.52 1.52 0 0 1-.78-1.189l-7.784-78.806a1.5 1.5 0 0 1 .057-1.216 1.496 1.496 0 0 1 1.194-.832l34.105-3.648a1.523 1.523 0 0 1 1.661 1.317l8.463 65.136a1.51 1.51 0 0 1-.811 1.547l-34.687 17.713a1.52 1.52 0 0 1-.687.163z" class="B"/><path d="M279.958 758.313c.106-3.062-.445-6.899-2.938-10.384-3.749-5.237-10.542-7.378-16.846-5.819-15.762 3.877-50.268 15.471-79.867 32.339-10.463 5.965-12.551 19.013 2.229 25.233 24.22 10.194 74.008 17.163 118.435 3.551 5.101-1.56 9.11-5.573 10.555-10.696 1.181-4.185-.313-11.22-.771-18.476-.33-5.176-3.202-9.784-8.264-10.907l-8.079 2.507c-3.423-.767-14.577-3.842-14.454-7.348z" class="C"/><path d="M264.227 743.127a15.12 15.12 0 0 0-3.692.454c-14.004 3.445-48.643 14.607-79.479 32.184-4.934 2.815-7.833 7.304-7.569 11.723.265 4.458 3.688 8.299 9.635 10.797 21.823 9.181 71.096 17.683 117.404 3.502 4.678-1.431 8.242-5.044 9.546-9.66.736-2.604.278-6.829-.211-11.296-.229-2.163-.476-4.392-.621-6.674-.238-3.797-2.132-8.211-6.701-9.436l-7.678 2.384a1.54 1.54 0 0 1-.775.031c-3.714-.824-15.82-3.904-15.643-8.873.127-3.634-.767-6.81-2.657-9.449-2.581-3.617-6.951-5.687-11.559-5.687zm-16.608 69.224c-27.665 0-51.969-5.507-65.673-11.273-7.066-2.974-11.146-7.736-11.485-13.405-.335-5.582 3.15-11.154 9.093-14.538 31.131-17.739 66.109-29.017 80.254-32.501 7.044-1.732 14.458.845 18.445 6.418 2.251 3.145 3.366 7.062 3.216 11.313-.044 1.264 5.661 4.066 12.885 5.722l7.688-2.383c.251-.079.519-.088.779-.035 5.339 1.189 9.049 6.013 9.441 12.295.145 2.215.383 4.414.616 6.537.538 4.978 1.005 9.282.111 12.449-1.586 5.613-5.912 10-11.573 11.731-18.062 5.533-36.581 7.67-53.797 7.67zm-4.463-13.131c-15.735 0-32.669-2.044-51.224-7.604a1.516 1.516 0 0 1 .868-2.903c37.916 11.361 69.017 7.793 96.977 2.243a1.52 1.52 0 0 1 1.784 1.193 1.514 1.514 0 0 1-1.193 1.78c-14.701 2.921-30.26 5.291-47.212 5.291zm-10.241-16.01a1.51 1.51 0 0 1-1.45-1.079l-5.912-19.67a1.516 1.516 0 0 1 1.018-1.885 1.51 1.51 0 0 1 1.886 1.013l5.911 19.67a1.52 1.52 0 0 1-1.017 1.889 1.464 1.464 0 0 1-.436.062zm13.981-8.949a1.514 1.514 0 0 1-1.449-1.08l-4.762-15.779a1.517 1.517 0 0 1 1.013-1.89 1.51 1.51 0 0 1 1.886 1.009l4.762 15.784a1.52 1.52 0 0 1-1.013 1.89 1.695 1.695 0 0 1-.437.066z" class="B"/><path d="M510.502 680.181s46.361-151.113 44.114-184.637c-.81-12.15-23.149-20.978-46.427-25.696l-7.277-39.264s-269.073-10.149-294.645 13.599c-34.683 32.211 44.678 282.791 44.678 282.791l56.409.277-.727-184.892c1.119-10.066 62.22-1.212 110.594 5.497l-4.401 33.088c-4.907 42.348-22.088 172.739 18.348 201.298 22.603 15.965 252.575-9.652 252.575-9.652l12.339-54.378c-128.223-32.705-185.58-38.031-185.58-38.031z" class="D"/><g class="B"><path d="M324.284 536.266c18.59 0 49.669 4.049 88.096 9.388l5.053.696c.4.057.762.273 1 .59a1.53 1.53 0 0 1 .295 1.124l-4.397 33.052-.643 5.507c-5.396 45.806-19.727 167.488 18.352 194.382 17.432 12.308 170.814-.961 250.465-9.802l11.776-51.885c-125.603-31.969-183.356-37.577-183.924-37.634a1.517 1.517 0 0 1-1.119-.661 1.518 1.518 0 0 1-.189-1.291c.462-1.511 46.259-151.223 44.056-184.086-.638-9.613-17.546-18.705-45.215-24.317a1.52 1.52 0 0 1-1.189-1.207l-7.058-38.062c-19.66-.696-268.385-9.022-292.341 13.234-13.762 12.779-10.383 65.343 9.771 152.007 14.225 61.172 32.326 119.656 34.986 128.162l53.758.269-.696-183.54c.127-1.146.718-2.137 1.757-2.948 2.679-2.079 8.661-2.978 17.406-2.978zM477.221 788.96c-23.617 0-41.3-1.506-46.925-5.48-17.044-12.035-26.048-42.894-26.775-91.721-.591-39.731 4.449-82.506 7.154-105.493l.643-5.498c.242-2.092 1.824-14.625 4.194-31.621l-3.555-.497c-40.185-5.582-95.224-13.229-103.215-7.014-.498.388-.586.696-.608.886-1.498 13.506.709 183.003.731 184.712a1.51 1.51 0 0 1-.44 1.088c-.287.291-.705.419-1.08.45l-56.409-.282a1.524 1.524 0 0 1-1.436-1.058c-3.251-10.268-79.25-251.87-44.264-284.363 25.736-23.899 284.72-14.41 295.733-14a1.53 1.53 0 0 1 1.436 1.242l7.089 38.256c14.462 3.017 45.594 11.303 46.638 26.872 2.132 31.858-38.229 165.633-43.652 183.43 10.837 1.22 69.542 8.691 183.977 37.872a1.525 1.525 0 0 1 1.105 1.81l-12.339 54.374a1.52 1.52 0 0 1-1.308 1.172c-7.092.789-134.528 14.863-206.694 14.863z"/><path d="M417.23 549.368c-.075 0-.15 0-.22-.018a1.51 1.51 0 0 1-1.286-1.713c4.233-29.278-11.397-43.744-11.555-43.885a1.514 1.514 0 0 1-.111-2.141 1.52 1.52 0 0 1 2.141-.115c.696.626 16.987 15.709 12.524 46.577a1.513 1.513 0 0 1-1.493 1.295zm289.469-420.579c4.96-2.066 9.321-5.665 12.07-10.608 4.07-7.304 6.26-19.004-2.863-35.704-20.608-37.722-55.075-19.85-68.255-24.216-29.533-9.771-22.538-25.863-34.524-41.489-8.969-11.683-39.956-33.722-87.083 7.405 0 0-21.172 29.088-45.132 18.044-29.436-13.568-88.629 17.22-69.964 62.921 5.383 13.18 15.088 23.304 26.911 28.797a74.84 74.84 0 0 0 7.044 2.841c7.384 2.555 13.075 9.181 14.921 17.727 6 27.837 28.753 81.563 113.374 27.423 6.378-4.084 13.955-4.604 20.546-1.525 8.101 3.789 16.889 18.476 55.99 12.243 25.119-4 33.119-33.454 39.758-46.85 5.29-10.674 12.876-15.198 17.207-17.009z"/></g><path d="M586.246 360.879c-.11-7.885 1.564-15.718 4.952-22.841 13.317-28.013 27.334-76.607 3.432-123.832v.018c-3.163-4.925-4.252-9.546-8.177-13.965-14.77-16.63-36.264-20.198-62.475-24.506-23.11-3.797-76.396-12.573-107.228 14.528-4.322 3.798-7.537 7.776-10.013 12.027-5.207 6.427-18.551 25.81-27.106 63.942-10.819 48.176-71.418 78.898-102.673 63.867s-32.224-22.771-32.224-22.771l2.48 24.256s52.466 97.788 136.32 45.656c-12.731 35.964-16.933 50.863-16.933 50.863s57.686 24.29 94.774 119.77c19.066 49.101 66.052 123.598 86.682 116.726 11.529-3.85 39.44-212.703 38.189-303.738z" class="C"/><g class="B"><path d="M368.424 427.288c3.912 1.877 16.612 8.608 32.7 23.811 17.498 16.537 42.405 46.656 61.665 96.246 19.11 49.215 65.695 122.197 84.788 115.827.568-.295 3.867-3.507 10.211-36.207 4.119-21.251 8.661-50.647 12.793-82.783 7.282-56.687 14.819-134.607 14.149-183.285-.114-8.132 1.652-16.264 5.097-23.515 11.824-24.872 27.991-73.824 3.533-122.334-1.312-2.035-2.26-3.987-3.185-5.886-1.348-2.77-2.625-5.387-4.854-7.898-14.454-16.269-35.255-19.683-61.59-24.018-22.687-3.726-75.709-12.436-105.977 14.176-4.022 3.529-7.194 7.34-9.709 11.648a1.74 1.74 0 0 1-.133.189c-5.237 6.472-18.339 25.59-26.805 63.326-5.507 24.519-25.093 47.585-51.123 60.189-19.811 9.59-39.877 11.352-53.683 4.709-17.273-8.308-25.528-14.502-29.471-18.524l1.855 18.18c2.083 3.727 26.845 46.595 67.343 57.41 21.577 5.757 44.021 1.524 66.704-12.577a1.533 1.533 0 0 1 1.753.105 1.51 1.51 0 0 1 .476 1.692c-10.55 29.806-15.273 45.251-16.537 49.519zm176.818 239.28c-24.176.005-68.7-75.417-85.281-118.126-19.018-48.969-43.555-78.696-60.789-95.013-18.66-17.669-33.017-23.85-33.158-23.912a1.513 1.513 0 0 1-.872-1.806c.04-.145 4.04-14.224 15.564-46.991-22.203 12.811-44.211 16.432-65.48 10.749-43.405-11.599-69.096-58.678-69.352-59.149a1.574 1.574 0 0 1-.172-.559l-2.475-24.26a1.513 1.513 0 0 1 1.334-1.657 1.52 1.52 0 0 1 1.679 1.313c.004 0 2.075 7.502 31.374 21.599 12.982 6.242 32.066 4.48 51.048-4.709 25.22-12.207 44.18-34.48 49.489-58.127 8.568-38.185 21.916-57.758 27.334-64.476 2.67-4.55 6.031-8.577 10.269-12.299 31.348-27.559 85.36-18.683 108.426-14.894 25.903 4.26 48.247 7.925 63.405 25 2.507 2.823 3.934 5.753 5.317 8.585.859 1.767 1.74 3.586 2.903 5.41.071.084.128.176.176.278 25.163 49.713 8.661 99.757-3.418 125.166-3.247 6.828-4.907 14.493-4.802 22.167.683 49.154-6.947 127.682-14.312 184.778-4.172 32.353-8.754 61.828-12.899 82.987-7.004 35.753-10.515 36.929-12.013 37.427a10.424 10.424 0 0 1-3.295.519zm-65.409-261.689c-20.868 0-45.436-5.255-73.387-19.916a1.52 1.52 0 0 1-.639-2.048 1.52 1.52 0 0 1 2.049-.639c56.109 29.436 98.197 20.246 123.629 7.361 27.607-13.991 42.153-35.255 42.299-35.471a1.513 1.513 0 0 1 2.101-.41 1.51 1.51 0 0 1 .414 2.101c-.599.899-15.053 22.053-43.321 36.423-13.366 6.793-31.207 12.599-53.145 12.599zm-42.299-66.444c-6.145 0-12.476-.436-18.982-1.322a1.52 1.52 0 0 1-1.295-1.704 1.522 1.522 0 0 1 1.705-1.3c45.929 6.238 81.836-9.595 106.717-47.061 18.647-28.071 23.757-58.432 23.81-58.735a1.513 1.513 0 0 1 1.736-1.252 1.51 1.51 0 0 1 1.251 1.736c-.049.313-5.238 31.233-24.216 59.845-11.176 16.859-24.885 29.652-40.739 38.018-14.851 7.837-31.604 11.775-49.987 11.775z"/><path d="M507.881 177.013c-1.542 23.181-58.863 100.885-65.493 98.396-5.898-2.212-2.141-71.929 23.833-94.321 23.7-20.423 42.215-12.365 41.66-4.075zM395.129 349.064a1.66 1.66 0 0 1-.353-.039 1.517 1.517 0 0 1-1.123-1.829l13.013-53.841c-7.982-55.268 17.537-86.695 17.797-87.003a1.51 1.51 0 0 1 2.132-.199c.643.534.732 1.489.199 2.133-.252.304-24.996 30.885-17.084 84.924a1.5 1.5 0 0 1-.031.577L396.6 347.901a1.508 1.508 0 0 1-1.471 1.163zm36.48-29.02c-.309 0-.617-.093-.89-.287a1.52 1.52 0 0 1-.339-2.114c12.845-17.762 35.634-24.872 49.242-29.123 4.383-1.366 9.326-2.908 10.163-3.873-.084-1.867-1.569-6.634-3-11.251-3.74-12.061-5.274-17.973-3.185-20.061 1.453-1.458 4.599-1.198 10.488-.582 7.08.745 16.767 1.763 18.458-2.748 2.556-6.82 5.036-46.797 5.987-66.978a1.51 1.51 0 0 1 1.582-1.445 1.52 1.52 0 0 1 1.445 1.586c-.115 2.401-2.815 58.938-6.177 67.903-2.515 6.704-13.101 5.594-21.607 4.696-2.987-.313-7.049-.74-8.009-.287-.789 1.864 2.26 11.705 3.916 17.022 1.683 5.423 3.137 10.11 3.137 12.308 0 2.767-4.11 4.049-12.291 6.604-13.255 4.136-35.44 11.061-47.691 28-.3.414-.758.63-1.229.63zm106.201 207.23a1.517 1.517 0 0 1-1.374-.868c-20.819-44.145-49.727-78.448-50.017-78.788a1.514 1.514 0 1 1 2.308-1.96c.295.344 29.462 34.956 50.449 79.453a1.513 1.513 0 0 1-1.366 2.163zm-6.995 38.375a1.51 1.51 0 0 1-1.401-.938c-20.801-50.18-55.378-91.233-55.722-91.642a1.51 1.51 0 0 1 .177-2.133 1.52 1.52 0 0 1 2.136.172c.348.414 35.216 41.815 56.207 92.44a1.514 1.514 0 0 1-.82 1.982 1.567 1.567 0 0 1-.577.119zM298.83 459.464c23.678-76.435 15.859-107.774 2.564-121.862-3.965-4.207-13.048-11.842-19.656-26.097-8.573-18.489-4.661-30.158-7.119-46.035-4.815-31.057-30.929-58.326-57.766-69.836-18.749-8.044-53.881-15.278-72.815 3.541-8.008 7.952-15.277 22.709-10.259 32.185 7.176 13.56 34.017 2.612 49.435 20.185 8.414 9.59 2.877 15.564 11.894 25.674 14.212 15.925 34.568 8.502 40.128 20.321 5.388 11.441-12.515 21.414-8.101 36.392 5.03 17.084 30.951 16.524 33.96 33.194 1.793 9.925-7.031 12.167-6.203 23.841 1 14.207 14.608 18.643 28.987 38.286 8.066 11.013 12.136 21.85 14.951 30.211z"/></g><path d="M298.799 453.43a1.51 1.51 0 0 1-1.511-1.45c-2.581-62.47-20.044-127.104-46.718-172.892-35.149-60.339-78.36-73.973-78.796-74.106a1.514 1.514 0 0 1-1.013-1.889 1.52 1.52 0 0 1 1.889-1.009c.445.132 44.797 14.123 80.537 75.479 26.912 46.194 44.528 111.347 47.128 174.29a1.516 1.516 0 0 1-1.45 1.577h-.066zm-39.493-90.274s-20.075-7.881-28.445-17.665c-4.942-5.779-4.127-19.978-2.63-30.638.582-4.146 6.185-5.005 7.956-1.207l23.119 49.51z" class="C"/><path d="M232.416 312.739c-.141 0-.282.014-.418.031-.96.146-2.057.824-2.264 2.295-2.084 14.833-1.274 25.291 2.277 29.441 5.925 6.929 18.159 12.978 24.247 15.704l-21.445-45.924a2.56 2.56 0 0 0-2.397-1.547zm26.89 51.938c-.185 0-.374-.039-.555-.105-.833-.331-20.524-8.137-29.044-18.093-4.242-4.969-5.247-15.674-2.978-31.837a5.62 5.62 0 0 1 4.824-4.867c2.555-.384 4.916.885 6.009 3.233l23.118 49.511c.26.559.155 1.224-.268 1.678a1.53 1.53 0 0 1-1.106.48z" class="B"/><path d="M262.059 182.714c12.463 41.947 37.471 71.374 55.854 65.726s23.185-44.233 10.718-86.18c-12.462-41.946-37.466-71.369-55.854-65.726-18.383 5.652-23.18 44.233-10.718 86.18z" class="C"/><path d="M263.513 182.283c8.841 29.766 24.48 54.316 39.837 62.545 5.119 2.745 9.868 3.472 14.119 2.163 17.563-5.396 21.925-43.211 9.713-84.294-8.846-29.766-24.484-54.321-39.841-62.546-5.114-2.744-9.863-3.471-14.114-2.167-17.564 5.401-21.925 43.215-9.714 84.299zm49.687 68.374c-3.586 0-7.357-1.058-11.282-3.155-16.031-8.594-32.251-33.854-41.312-64.352-6.084-20.488-8.309-40.845-6.26-57.325 2.106-16.903 8.493-27.815 17.991-30.735 5.053-1.551 10.581-.749 16.436 2.388 16.035 8.595 32.255 33.85 41.312 64.352 6.093 20.484 8.313 40.841 6.26 57.321-2.097 16.903-8.489 27.819-17.982 30.74a17.57 17.57 0 0 1-5.163.767z" class="B"/><path d="m353.688 362.321-3.348 1.009a6.6 6.6 0 0 1-8.211-4.419l-31.211-103.977 15.978-4.797 31.211 103.972a6.59 6.59 0 0 1-4.419 8.212z" class="C"/><path d="m312.808 255.952 30.775 102.519c.806 2.678 3.639 4.211 6.321 3.405l3.348-1.005a5.083 5.083 0 0 0 3.406-6.325l-30.78-102.524-13.07 3.93zm35.625 109.175a8.07 8.07 0 0 1-3.828-.974 8.06 8.06 0 0 1-3.925-4.81l-31.211-103.977a1.516 1.516 0 0 1 1.017-1.886l15.974-4.797a1.503 1.503 0 0 1 1.154.119 1.5 1.5 0 0 1 .731.899l31.211 103.977c1.291 4.282-1.149 8.81-5.436 10.092l-3.339 1.009a8.12 8.12 0 0 1-2.348.348z" class="B"/><path d="m332.777 271.782-14.846 4.454a4.745 4.745 0 0 1-5.92-3.181l-1.353-4.515a4.76 4.76 0 0 1 3.185-5.921l14.846-4.458a4.755 4.755 0 0 1 5.92 3.19l1.357 4.506a4.76 4.76 0 0 1-3.189 5.925z" class="C"/><path d="M330.059 259.48a3.06 3.06 0 0 0-.929.136l-14.851 4.454a3.251 3.251 0 0 0-2.171 4.035l1.357 4.511a3.166 3.166 0 0 0 1.568 1.921 3.196 3.196 0 0 0 2.462.251l14.85-4.454a3.251 3.251 0 0 0 2.172-4.039l-1.357-4.511a3.241 3.241 0 0 0-3.101-2.304zm-13.506 18.475a6.164 6.164 0 0 1-2.956-.748 6.204 6.204 0 0 1-3.04-3.718l-1.352-4.507a6.281 6.281 0 0 1 4.202-7.811l14.846-4.458a6.28 6.28 0 0 1 7.81 4.203l1.353 4.511c.995 3.308-.89 6.815-4.198 7.806l-14.846 4.458a6.28 6.28 0 0 1-1.819.264z" class="B"/><path d="m337.869 288.739-14.85 4.454a4.753 4.753 0 0 1-5.92-3.185l-1.357-4.511a4.76 4.76 0 0 1 3.189-5.921l14.846-4.458a4.76 4.76 0 0 1 5.925 3.189l1.352 4.507a4.754 4.754 0 0 1-3.185 5.925z" class="C"/><path d="M335.151 276.43c-.312 0-.625.044-.938.137l-14.846 4.458c-.828.251-1.511.806-1.92 1.568s-.498 1.639-.247 2.467l1.352 4.511a3.197 3.197 0 0 0 1.564 1.921 3.24 3.24 0 0 0 2.472.251l14.845-4.458a3.22 3.22 0 0 0 2.168-4.035l-1.353-4.511a3.22 3.22 0 0 0-1.564-1.921 3.264 3.264 0 0 0-1.533-.388zm-13.506 18.48a6.26 6.26 0 0 1-2.965-.748 6.225 6.225 0 0 1-3.031-3.718l-1.352-4.511a6.22 6.22 0 0 1 4.198-7.807l14.85-4.458a6.228 6.228 0 0 1 4.776.485 6.203 6.203 0 0 1 3.03 3.718l1.353 4.511c.995 3.308-.89 6.815-4.203 7.806l-14.846 4.458a6.19 6.19 0 0 1-1.81.264zm-26.987-181.373c-.366 0-.731-.132-1.022-.396-3.075-2.802-6.114-4.815-9.035-5.974-.78-.304-1.163-1.189-.85-1.964s1.189-1.159 1.964-.855c3.265 1.295 6.617 3.502 9.965 6.555.617.564.661 1.524.097 2.141a1.52 1.52 0 0 1-1.119.493zm17.873 129.203c-2.538 0-5.238-.758-8.075-2.282-13.657-7.317-29.401-32.26-37.436-59.299-9.802-32.982-9.106-73.299 7.564-78.422a1.52 1.52 0 0 1 1.894 1.008 1.51 1.51 0 0 1-1.004 1.89c-13.062 4.013-15.762 40.295-5.551 74.66 7.828 26.339 22.951 50.52 35.964 57.493 3.45 1.846 6.56 2.362 9.251 1.542 4.864-1.498 8.63-6.352 10.886-14.048a1.505 1.505 0 0 1 1.876-1.027 1.52 1.52 0 0 1 1.031 1.881c-2.555 8.714-7.022 14.282-12.907 16.088a11.746 11.746 0 0 1-3.493.516z" class="B"/><path d="M416.274 339.258s-29.435.828-53.611-14.648c-3.556-2.273-4.904-6.872-8.168-9.541l-35.665-30.621c-2.326-2-5.797.343-4.823 3.251 2.37 7.097 6.955 16.929 15.537 24.881 0 0-8.696 17.938 5.925 31.709 0 0 10.96 8.718 17.498 8.872 0 0 22.682 13.048 50.034 25.484 0 0 14.802-10.916 13.273-39.387z" class="C"/><path d="M336.46 343.145c2.986 2.366 11.634 8.388 16.541 8.507a1.53 1.53 0 0 1 .718.202c.225.128 22.45 12.868 49.04 25.013 2.704-2.467 12.854-13.282 12.061-36.083-6.379-.044-31.502-1.15-52.973-14.894-2.185-1.397-3.577-3.472-4.921-5.476-1.061-1.59-2.061-3.084-3.392-4.172l-35.691-30.643c-.802-.691-1.59-.26-1.815-.11s-.925.718-.586 1.731c2.26 6.762 6.718 16.454 15.132 24.251.489.454.621 1.172.335 1.776-.335.687-7.996 17.079 5.551 29.898zm66.541 37.017c-.207 0-.423-.044-.626-.136-25.365-11.533-46.982-23.731-49.845-25.361-6.974-.476-17.555-8.824-18.004-9.19a.75.75 0 0 1-.097-.079c-13.198-12.427-8.309-28.264-6.687-32.436-8.384-8.092-12.873-17.89-15.176-24.779a4.5 4.5 0 0 1 1.77-5.207 4.5 4.5 0 0 1 5.485.321l35.66 30.621c1.652 1.357 2.829 3.11 3.965 4.811 1.225 1.828 2.379 3.55 4.035 4.608 23.507 15.052 52.463 14.422 52.749 14.409.802-.039 1.511.612 1.555 1.436 1.555 28.956-13.251 40.22-13.881 40.687a1.55 1.55 0 0 1-.903.295z" class="B"/><path d="M420.97 144.11c-2.859-.401-4.744-3.128-4.185-5.965 2.688-13.599 1.608-35.348 2.04-34.718 4.811 7.053 14.819-1.797 29.07-2.356 13.278-.525 13.789 12.052 13.797 13.788.829-2.172 4.829-13.484 13.071-5.238 5.863 5.864.956 19.458-4.348 23.921 1.291 1.467 21.546 23.308 37.088 39.717 3.079 3.252-9.15 17.987-14.736 21.643-9.061 5.939-20.436 7.014-29.55 1.15a6.31 6.31 0 0 1-1.177-9.63l2.45-2.59c3.392-4.026 2.766-9.132.599-13.392l-8.542-14.476c-1.96 2.375-4.436 5.084-6.722 6.679-4.546 3.176-10.203 2.683-14.216-1.146-5.502-5.255-9.352-11.158-11.097-16.885l-3.542-.502z" class="C"/><g class="B"><path d="m456.547 154.453.119.005a1.49 1.49 0 0 1 1.185.74l8.546 14.475c2.89 5.674 2.599 11.159-.753 15.132l-2.502 2.657a4.75 4.75 0 0 0-1.269 3.868 4.765 4.765 0 0 0 2.163 3.444c8.141 5.243 18.837 4.802 27.903-1.14 4.533-2.965 13.986-14.088 14.519-18.63.053-.463-.022-.665-.057-.701l-37.123-39.762a1.483 1.483 0 0 1-.37-1.114 1.49 1.49 0 0 1 .533-1.048c2.903-2.441 6.198-8.71 6.449-14.569.097-2.149-.211-5.132-2.198-7.119-1.951-1.951-3.691-2.775-5.163-2.458-1.951.419-3.753 2.762-5.348 6.978l-.075.19a1.52 1.52 0 0 1-1.687.947 1.515 1.515 0 0 1-1.242-1.489c-.009-1.013-.203-6.251-3.639-9.538-2.048-1.96-4.938-2.885-8.581-2.735-5.533.216-10.397 1.722-14.683 3.053-5.088 1.581-9.634 2.995-13.057 1.127v.886c0 6.793 0 20.925-1.947 30.788-.19.978.017 1.956.586 2.758a3.42 3.42 0 0 0 2.321 1.414l3.546.498a1.51 1.51 0 0 1 1.238 1.061c1.692 5.551 5.392 11.163 10.696 16.229 3.52 3.366 8.353 3.758 12.304 1 1.767-1.238 3.93-3.383 6.419-6.401.29-.352.718-.546 1.167-.546zm20.075 47.004c-5.036 0-9.939-1.374-14.225-4.132a7.79 7.79 0 0 1-3.533-5.63 7.8 7.8 0 0 1 2.075-6.317l2.445-2.59c3.405-4.04 1.683-9.04.352-11.661l-7.414-12.559c-2.101 2.387-3.991 4.176-5.63 5.321-5.101 3.56-11.581 3.04-16.132-1.295-5.387-5.145-9.242-10.872-11.198-16.616l-2.603-.366a6.384 6.384 0 0 1-4.37-2.656 6.63 6.63 0 0 1-1.093-5.102c1.894-9.572 1.89-23.506 1.89-30.202 0-5.322 0-5.322 1.172-5.683a1.54 1.54 0 0 1 1.718.608c2.145 3.141 5.696 2.22 12.299.167 4.247-1.317 9.533-2.956 15.458-3.189 4.485-.176 8.132 1.026 10.802 3.577 2.048 1.96 3.176 4.414 3.802 6.59 1.242-1.991 3.022-3.929 5.458-4.453 2.546-.547 5.22.555 7.938 3.282 2.189 2.185 3.26 5.436 3.088 9.391-.238 5.476-2.951 12.005-6.387 15.67l36.07 38.608c.502.528 1.057 1.502.863 3.136-.691 5.943-11.202 17.758-15.868 20.811-5.365 3.519-11.259 5.29-16.977 5.29z"/><path d="M456.547 157.48c-.304 0-.617-.092-.881-.282a1.51 1.51 0 0 1-.348-2.114l2.727-3.806a1.515 1.515 0 0 1 2.114-.348 1.52 1.52 0 0 1 .348 2.114l-2.727 3.806a1.52 1.52 0 0 1-1.233.63z"/></g><path d="M420.415 121.156c1.665 6.819.524 12.956-2.551 13.709s-6.912-4.172-8.577-10.996c-1.665-6.819-.524-12.96 2.546-13.709s6.917 4.172 8.582 10.996z" class="C"/><path d="M412.463 111.599a.94.94 0 0 0-.269.035c-1.669.406-3.057 5.234-1.436 11.877.758 3.097 1.992 5.85 3.481 7.762 1.18 1.507 2.431 2.322 3.268 2.119 1.665-.41 3.053-5.238 1.436-11.881-.757-3.092-1.995-5.85-3.484-7.762-1.057-1.357-2.176-2.15-2.996-2.15zm4.758 24.855c-1.802 0-3.674-1.15-5.366-3.318-1.753-2.237-3.185-5.405-4.039-8.907-1.93-7.881-.348-14.564 3.66-15.542 2.102-.511 4.366.621 6.375 3.199 1.744 2.237 3.18 5.405 4.035 8.907 1.921 7.881.348 14.564-3.661 15.542-.33.083-.665.119-1.004.119z" class="B"/><path d="M433.141 117.336c1.666 6.824.52 12.961-2.555 13.71s-6.911-4.172-8.577-10.992c-1.66-6.823-.519-12.96 2.551-13.713s6.916 4.172 8.581 10.995z" class="C"/><g class="B"><path d="M425.186 107.78c-.092 0-.181.013-.264.031-1.67.409-3.062 5.242-1.436 11.881.753 3.097 1.986 5.854 3.48 7.766 1.18 1.507 2.423 2.317 3.264 2.119 1.665-.41 3.057-5.238 1.436-11.885-.753-3.093-1.995-5.85-3.484-7.762-1.058-1.353-2.172-2.15-2.996-2.15zm4.762 24.859c-1.802 0-3.678-1.15-5.37-3.322-1.753-2.238-3.185-5.405-4.04-8.907-1.925-7.881-.348-14.564 3.666-15.542 2.097-.511 4.356.621 6.37 3.198 1.749 2.242 3.18 5.405 4.039 8.912 1.921 7.877.348 14.559-3.665 15.537-.33.084-.665.124-1 .124z"/><path d="M433.133 118.855a1.52 1.52 0 0 1-1.467-1.154 1.522 1.522 0 0 1 1.105-1.837l28.864-7.141a1.51 1.51 0 0 1 1.832 1.106 1.516 1.516 0 0 1-1.106 1.837l-28.863 7.145a1.68 1.68 0 0 1-.365.044zm-413.437 50.03a1.51 1.51 0 0 1-1.515-1.511v-8.537c0-.837.674-1.516 1.515-1.516s1.515.679 1.515 1.516v8.537a1.51 1.51 0 0 1-1.515 1.511zm0 19.885a1.51 1.51 0 0 1-1.515-1.515v-8.533c0-.837.674-1.52 1.515-1.52a1.52 1.52 0 0 1 1.515 1.52v8.533c0 .837-.678 1.515-1.515 1.515zm-5.674-14.206H5.489a1.52 1.52 0 0 1-1.52-1.52c0-.837.678-1.511 1.52-1.511h8.533a1.51 1.51 0 0 1 1.515 1.511 1.52 1.52 0 0 1-1.515 1.52zm19.881 0H25.37c-.837 0-1.52-.683-1.52-1.52s.683-1.511 1.52-1.511h8.533a1.51 1.51 0 0 1 1.515 1.511 1.52 1.52 0 0 1-1.515 1.52zm76.541-89.854c-.841 0-1.52-.674-1.52-1.511v-8.537c0-.837.679-1.511 1.52-1.511a1.51 1.51 0 0 1 1.516 1.511v8.537c0 .837-.679 1.511-1.516 1.511zm0 19.886c-.841 0-1.52-.679-1.52-1.516v-8.533a1.52 1.52 0 0 1 1.52-1.52c.837 0 1.516.678 1.516 1.52v8.533c0 .837-.679 1.516-1.516 1.516zm-5.674-14.208h-8.538a1.52 1.52 0 0 1-1.515-1.52c0-.837.678-1.515 1.515-1.515h8.538a1.52 1.52 0 0 1 1.515 1.515c0 .837-.683 1.52-1.515 1.52zm19.881 0h-8.537a1.522 1.522 0 0 1-1.516-1.52 1.52 1.52 0 0 1 1.516-1.515h8.537c.837 0 1.515.678 1.515 1.515a1.52 1.52 0 0 1-1.515 1.52zm7.396 213.395a9.86 9.86 0 0 0-4.075.881c-5.136 2.304-7.471 8.453-5.207 13.705 1.106 2.559 3.124 4.524 5.683 5.515a9.897 9.897 0 0 0 7.683-.198c5.132-2.309 7.471-8.458 5.202-13.709-1.101-2.56-3.123-4.516-5.678-5.516a9.973 9.973 0 0 0-3.608-.678zm.009 23.815a13.02 13.02 0 0 1-4.705-.89c-3.321-1.291-5.938-3.829-7.37-7.137-2.916-6.766.11-14.691 6.749-17.674a12.91 12.91 0 0 1 10.022-.264 13.22 13.22 0 0 1 7.365 7.145c2.917 6.762-.11 14.687-6.748 17.67a12.92 12.92 0 0 1-5.313 1.15zm167.4-170.378c-1.357 0-2.71.281-3.983.859-5.022 2.251-7.304 8.259-5.088 13.392 1.08 2.502 3.053 4.418 5.551 5.387a9.67 9.67 0 0 0 7.506-.189c5.018-2.26 7.3-8.269 5.089-13.397-1.084-2.506-3.053-4.414-5.555-5.392a9.77 9.77 0 0 0-3.52-.66zm.004 23.339c-1.559 0-3.123-.296-4.621-.873-3.264-1.268-5.833-3.762-7.238-7.013-2.868-6.647.11-14.436 6.63-17.361a12.635 12.635 0 0 1 9.841-.251c3.265 1.264 5.837 3.753 7.243 7.013 2.867 6.639-.11 14.427-6.63 17.357a12.717 12.717 0 0 1-5.225 1.128zm-139.342 58.92a5.85 5.85 0 0 0-2.41.52c-3.048 1.365-4.431 5.017-3.088 8.136.657 1.524 1.855 2.687 3.37 3.273a5.868 5.868 0 0 0 4.542-.114c3.048-1.375 4.432-5.022 3.084-8.141a6.03 6.03 0 0 0-3.366-3.273 5.88 5.88 0 0 0-2.132-.401zm.004 15.365a8.94 8.94 0 0 1-3.229-.612c-2.277-.885-4.075-2.626-5.057-4.894-1.996-4.635.079-10.062 4.63-12.106a8.864 8.864 0 0 1 6.881-.181 9.077 9.077 0 0 1 5.053 4.895c2 4.634-.08 10.061-4.63 12.11a8.89 8.89 0 0 1-3.648.788z"/></g></svg>