<svg xmlns="http://www.w3.org/2000/svg" width="944" height="945" fill="none" xmlns:v="https://vecta.io/nano"><style><![CDATA[.B{fill:#000}.C{fill:#fff}.D{fill:#5d5eef}.E{fill:#f2f1ff}.F{fill:#3335fb}]]></style><path d="M230.063 237.44c98.443-98.974 70.255-161.005 137.62-206.833 103.645-70.516 297.093-9.849 411.213 87.141 139.776 118.791 211.896 335.682 129.74 531.906-87.485 208.969-317.677 317.448-523.084 284.755C202.125 905.211 21.808 760.8 3.745 587.591c-1.958-18.776-10.604-120.26 50.026-207.755 50.115-72.318 98.25-63.937 176.292-142.396z" class="E"/><path d="M310.782 197.367h-85.428c-7.494 0-13 5.339-13 12.834v29.604c0 7.495 5.506 13.198 13 13.198h4.027v25.932l18.171-25.932h63.23c7.494 0 13.963-5.703 13.963-13.198v-29.604c0-7.495-6.469-12.834-13.963-12.834z" class="C"/><path d="M225.354 199.07c-6.651 0-11.296 4.579-11.296 11.131V239.8c0 6.661 4.75 11.5 11.296 11.5h4.032c.937 0 1.703.76 1.703 1.703v20.531l15.068-21.505a1.69 1.69 0 0 1 1.395-.729h63.23c6.76 0 12.26-5.162 12.26-11.5v-29.599c0-6.245-5.385-11.131-12.26-11.131h-85.428zm4.032 81.563a1.62 1.62 0 0 1-.516-.078c-.708-.219-1.187-.88-1.187-1.62v-24.234h-2.329c-8.385 0-14.703-6.407-14.703-14.901v-29.599c0-8.422 6.188-14.542 14.703-14.542h85.428c8.786 0 15.666 6.391 15.666 14.542V239.8c0 8.218-7.031 14.901-15.666 14.901h-62.339l-17.667 25.213a1.69 1.69 0 0 1-1.39.719z" class="B"/><path d="M246.875 226.258a8.612 8.612 0 0 1-17.224 0c0-4.755 3.855-8.615 8.61-8.615a8.62 8.62 0 0 1 8.614 8.615zm29.75 0a8.612 8.612 0 0 1-17.224 0c0-4.755 3.855-8.615 8.61-8.615a8.62 8.62 0 0 1 8.614 8.615zm29.745 0c0 4.76-3.854 8.609-8.609 8.609a8.61 8.61 0 0 1-8.61-8.609c0-4.755 3.855-8.615 8.61-8.615s8.609 3.86 8.609 8.615z" class="D"/><path d="M582.594 849.143c0 44.361-38.701 80.568-86.75 80.568s-86.75-36.207-86.75-80.568 38.7-80.567 86.75-80.567 86.75 36.207 86.75 80.567zM326.407 745.502v-.001c-12.7-14.883-10.93-37.251 3.954-49.956 50.973-43.503 108.89-66.428 167.483-66.428 58.587 0 116.504 22.925 167.477 66.428 14.884 12.705 16.654 35.073 3.954 49.956v.001c-12.705 14.893-35.067 16.658-49.951 3.953l-1.26 1.476 1.26-1.476c-38.369-32.749-79.251-49.463-121.48-49.463s-83.117 16.714-121.486 49.463h0c-6.671 5.695-14.847 8.48-22.984 8.485-10.012 0-19.957-4.221-26.967-12.438zm-36.88-130.897l1.251 1.481-1.251-1.481c-14.948 12.631-37.3 10.748-49.926-4.2s-10.743-37.311 4.205-49.942c77.606-65.56 165.453-100.132 254.038-100.132 88.579 0 176.426 34.572 254.027 100.132 14.948 12.631 16.831 34.989 4.205 49.942-7.005 8.292-17.01 12.566-27.087 12.566a35.27 35.27 0 0 1-22.839-8.366l-1.291 1.528 1.291-1.528c-65.433-55.284-135.528-83.404-208.306-83.404-72.784 0-142.884 28.12-208.317 83.404zM153.121 475.668l-.001-.001c-12.759-14.834-11.073-37.212 3.762-49.971h0c51.168-44.016 105.508-77.97 161.502-100.958 58.347-23.946 118.725-36.084 179.454-36.084 60.745 0 121.118 12.138 179.465 36.084 55.994 22.988 110.334 56.942 161.502 100.958l1.149-1.337-1.149 1.337c14.834 12.759 16.52 35.137 3.767 49.971-7.011 8.15-16.912 12.336-26.885 12.336-8.174 0-16.389-2.819-23.081-8.574-92.423-79.486-191.6-119.9-294.768-119.9-103.158 0-202.334 40.414-294.757 119.9l1.304 1.516-1.304-1.516c-14.835 12.759-37.207 11.078-49.96-3.761z" stroke="#000" stroke-width="4" class="C"/><path d="M581.188 837.951c0 44.463-36.033 80.505-80.48 80.505s-80.489-36.042-80.489-80.505 36.037-80.495 80.489-80.495 80.48 36.036 80.48 80.495zm-250.827-166.74h0c50.973-43.513 108.889-66.427 167.483-66.427 58.588 0 116.504 22.914 167.477 66.427l1.255-1.47-1.255 1.47c14.884 12.705 16.654 35.068 3.954 49.957s-35.067 16.659-49.951 3.954l-1.26 1.476 1.26-1.476c-38.368-32.749-79.251-49.473-121.48-49.473-42.235 0-83.117 16.724-121.486 49.473a35.31 35.31 0 0 1-22.983 8.48c-10.013 0-19.958-4.216-26.968-12.434-12.7-14.889-10.93-37.252 3.954-49.957zm375.79-80.944h-.001c-65.433-55.273-135.528-83.405-208.306-83.405-72.785 0-142.884 28.132-208.317 83.405-14.948 12.626-37.301 10.747-49.926-4.2-12.626-14.954-10.743-37.312 4.205-49.937h0c77.606-65.565 165.453-100.138 254.038-100.138 88.579 0 176.426 34.573 254.026 100.138l1.291-1.528-1.29 1.528c14.947 12.625 16.831 34.983 4.205 49.937l1.528 1.29-1.528-1.29c-7.005 8.296-17.01 12.571-27.087 12.571-8.071 0-16.187-2.745-22.838-8.371zm86.455-135.176h0c-92.423-79.486-191.6-119.895-294.768-119.895-103.157 0-202.334 40.409-294.757 119.895h0c-14.835 12.764-37.207 11.078-49.96-3.762h-.001c-12.758-14.834-11.073-37.207 3.762-49.972 51.169-44.006 105.508-77.969 161.502-100.947h0c58.347-23.957 118.724-36.089 179.454-36.089 60.745 0 121.118 12.132 179.464 36.089l.759-1.847-.758 1.847c55.994 22.978 110.333 56.941 161.502 100.948 14.835 12.764 16.52 35.137 3.767 49.971-7.011 8.154-16.912 12.335-26.885 12.335a35.26 35.26 0 0 1-23.081-8.573z" stroke="#000" stroke-width="4" class="F"/><path d="M719.782 396.367c-4.178-13.797-3.469-22.505.322-31.567l6.381-12.704-19.198-7.703-5.88 14.464c-1.896 4.656-4.636 8.917-8.084 12.578l-3.172 3.359 29.631 21.573z" class="C"/><path d="M692.714 374.56l24.146 17.562c-2.641-10.817-2.094-18.979 1.677-27.979.01-.041.031-.073.052-.114l5.542-11.042-15.896-6.385-5.25 12.89c-1.979 4.875-4.807 9.282-8.417 13.11l-1.854 1.958zm27.068 23.505a1.63 1.63 0 0 1-.995-.328l-29.635-21.562c-.396-.292-.651-.735-.693-1.224s.12-.964.453-1.323l3.177-3.365c3.318-3.516 5.922-7.573 7.745-12.052l5.885-14.453c.349-.875 1.339-1.292 2.209-.948l19.192 7.703a1.73 1.73 0 0 1 .964.979c.161.448.135.943-.073 1.365l-6.354 12.646c-3.287 7.875-4.578 16.067-.245 30.364a1.69 1.69 0 0 1-.641 1.88c-.296.214-.645.318-.989.318z" class="B"/><path d="M698.834 367.753c-.48-1.505-2.448-1.87-3.527-.724-3.036 3.229-8.348 8.641-12.39 11.422-3.755 2.604-4.932 7.62-2.797 11.635 6.016 11.354 21.26 35.99 37.328 54.797 1.094 1.281 3.828 3.005 7.766 1.234 13.208-5.942.651-32.796-6.516-60.76-.281-1.099-1.167-1.943-2.281-2.146l-3.995-.734c-7.37-1.474-10.458-4.938-13.588-14.724z" class="C"/><path d="M696.87 368.055c-.088 0-.213.026-.318.14-3.567 3.792-8.661 8.891-12.661 11.657-3.031 2.099-4.01 6.151-2.271 9.432 6.214 11.708 21.229 35.88 37.125 54.49.349.406 2.266 2.364 5.771.786 8.839-3.969 3.776-20.677-2.078-40.016l-5.386-18.77a1.21 1.21 0 0 0-.942-.891l-3.995-.729c-7.958-1.589-11.568-5.453-14.906-15.891-.016-.036-.047-.156-.235-.193-.02-.005-.057-.015-.104-.015zm25.089 80.51c-2.578 0-4.625-1.203-5.802-2.583-16.073-18.807-31.261-43.261-37.542-55.099-2.547-4.807-1.109-10.755 3.344-13.833 3.953-2.735 9.286-8.188 12.109-11.188.927-.995 2.328-1.411 3.662-1.115 1.302.292 2.317 1.219 2.718 2.48 2.985 9.323 5.631 12.244 12.318 13.573l3.964.729c1.76.333 3.177 1.661 3.619 3.401 1.625 6.328 3.521 12.578 5.349 18.625 6.328 20.88 11.787 38.916.219 44.114-1.417.636-2.75.896-3.958.896z" class="B"/><path d="M683.833 377.831l-.906.614c-3.766 2.605-4.938 7.62-2.802 11.636 6.021 11.349 21.265 35.989 37.328 54.791 1.099 1.292 3.833 3.006 7.771 1.24 1.208-.542 3.021-2.021 3.021-2.021l-1.078-1.38c-15.386-19.599-29.318-40.297-41.667-61.948l-1.667-2.932z" class="C"/><path d="M683.286 380.32c-2.546 2.193-3.276 5.917-1.661 8.969 6.208 11.709 21.219 35.875 37.12 54.485.349.406 2.265 2.364 5.771.786.364-.167.843-.469 1.312-.786l-.005-.006c-15.386-19.599-29.453-40.51-41.802-62.156l-.735-1.292zm38.672 68.245c-2.583 0-4.63-1.198-5.802-2.583-16.078-18.807-31.26-43.261-37.541-55.099-2.553-4.807-1.115-10.755 3.343-13.828l.912-.63a1.71 1.71 0 0 1 1.338-.25 1.72 1.72 0 0 1 1.099.817l1.667 2.933a507.27 507.27 0 0 0 41.526 61.739l1.083 1.375c.568.735.453 1.787-.271 2.38-.203.162-2.031 1.636-3.395 2.25-1.417.636-2.75.896-3.959.896zm2.219-40.599c-.099 0-.193-.005-.286-.02l-13.235-2.219c-.932-.156-1.552-1.037-1.396-1.969.151-.922 1.032-1.547 1.959-1.391l13.234 2.214a1.7 1.7 0 0 1 1.396 1.958c-.135.839-.859 1.427-1.672 1.427zm2.146 7.542c-.083 0-.172-.016-.255-.021l-10.813-1.604c-.932-.135-1.573-1.005-1.437-1.937a1.71 1.71 0 0 1 1.937-1.433l10.808 1.604a1.7 1.7 0 0 1 1.437 1.938 1.7 1.7 0 0 1-1.677 1.453zM611.631 196.123s133.219-29.224 173.818-6.094c6.119 3.484 11.921 10.791 13.203 17.713 3.896 21.084-7.834 67.021-72.021 153.381-.912 1.218-2.516 1.692-3.938 1.151l-20.364-7.724c-1.651-.62-2.547-2.412-2.063-4.11l27.183-95.172a3.6 3.6 0 0 0-3.896-4.557L596.6 266.315l15.031-70.192z" class="B"/><path d="M650.975 447.039l2.609 12.406c3.49 18.058-9.703 27.297-9.703 27.297l39.01 4.75s-8.521-5.177-6.786-30.265l2.229-20.985-27.359 6.797z" class="C"/><path d="M647.823 485.503l30.948 3.771c-2.531-4.131-5.453-12.428-4.359-28.162l1.979-18.63-23.417 5.812 2.276 10.797c2.61 13.526-3.505 22.334-7.427 26.412zm35.063 7.692c-.068 0-.131-.005-.204-.015l-39.005-4.75c-.703-.078-1.281-.589-1.448-1.276a1.7 1.7 0 0 1 .672-1.808c.5-.354 12.24-8.875 9.005-25.578l-2.604-12.38a1.71 1.71 0 0 1 1.261-2.005l27.364-6.797c.542-.13 1.11.005 1.526.375.422.365.636.906.578 1.464l-2.234 20.984c-1.609 23.328 5.927 28.594 6.01 28.646.657.432.938 1.271.672 2.015-.255.678-.89 1.125-1.593 1.125z" class="B"/><path d="M650.162 470.05c-3.219 3.698-9.042 10.656-13.516 17.38-2.807 4.229-1.13 9.094 1.881 13.135 6.14 8.261 14.572 14.615 24.474 21.151 8.651 5.709 18.328 11.735 29.953 17.058 3.166 1.442 10.286 3.421 15.052 1.041 14.38-7.166-9.599-29.64-28.459-55.531a3.22 3.22 0 0 0-3.229-1.266l-4.416.881c-4.422.875-8.922-.98-11.422-4.724l-5.938-8.875c-1.01-1.506-3.182-1.631-4.38-.25z" class="C"/><path d="M651.453 471.159c-3.088 3.557-8.937 10.526-13.39 17.214-2.526 3.802-.401 8.182 1.833 11.182 5.906 7.943 13.885 14.031 24.047 20.739 8.114 5.36 17.995 11.558 29.729 16.928 3.297 1.505 9.635 3.041 13.583 1.072 1.875-.937 2.959-2.161 3.308-3.739 1.411-6.412-8.506-18.833-18.995-31.974-4.438-5.547-9.021-11.287-13.401-17.297a1.53 1.53 0 0 0-1.516-.604l-4.416.88c-5.11 1.021-10.276-1.114-13.172-5.437l-5.938-8.875c-.245-.37-.604-.443-.797-.459a1.06 1.06 0 0 0-.875.37zm51.198 71.458c-4.088 0-8.192-1.291-10.396-2.296-11.948-5.464-21.963-11.761-30.192-17.183-9.047-5.979-18.328-12.724-24.896-21.552-4.078-5.484-4.771-10.849-1.932-15.099 4.546-6.849 10.505-13.943 13.651-17.557a4.42 4.42 0 0 1 3.656-1.542c1.396.094 2.64.808 3.417 1.964l5.937 8.875a9.4 9.4 0 0 0 9.677 3.995l4.412-.881a4.94 4.94 0 0 1 4.937 1.933c4.333 5.953 8.891 11.661 13.302 17.177 11.974 14.995 21.427 26.843 19.662 34.833-.579 2.615-2.302 4.651-5.115 6.057-1.854.922-3.984 1.276-6.12 1.276z" class="B"/><path d="M638.958 484.305l-2.318 3.125c-.697 1.057-1.114 2.297-1.343 3.557-.735 4.063.677 8.229 3.531 11.214.682.724 1.62 1.651 2.713 2.687 11.318 10.776 24.047 19.958 37.761 27.448 6.948 3.802 22.391 11.615 28.698 7.484 1.948-1.27 3.14-5.151 3.14-5.151s-3.687 2.219-14.786-3.302c-18.75-9.323-31.448-19.786-46.922-32.291-3.052-2.464-5.146-4.719-7.318-7.401-1.708-2.12-2.807-4.672-3.156-7.37z" class="C"/><path d="M638.193 488.195l-.13.177c-.51.771-.875 1.75-1.083 2.917-.625 3.422.526 7.063 3.078 9.74.635.661 1.526 1.541 2.661 2.62 11.052 10.52 23.636 19.666 37.396 27.187 13.333 7.286 23.167 10.047 26.958 7.557.438-.281.891-.88 1.287-1.578-2.573-.052-6.651-.89-12.761-3.932-18.307-9.099-31.02-19.37-45.734-31.276l-1.5-1.208c-2.828-2.287-5.016-4.506-7.568-7.662a16.52 16.52 0 0 1-2.604-4.542zm65.104 54.48c-5.729 0-14.031-2.959-24.812-8.849-14.021-7.662-26.849-16.99-38.115-27.714-1.166-1.109-2.099-2.031-2.771-2.734-3.302-3.459-4.791-8.209-3.974-12.698.292-1.62.834-3.031 1.605-4.193.229-.344 1.864-2.542 2.369-3.203a1.71 1.71 0 0 1 3.052.802 13.08 13.08 0 0 0 2.797 6.516c2.386 2.953 4.433 5.026 7.058 7.145l1.5 1.214c14.567 11.771 27.14 21.938 45.114 30.88 9.657 4.797 13.12 3.38 13.157 3.365a1.69 1.69 0 0 1 1.927.12 1.71 1.71 0 0 1 .573 1.838c-.146.453-1.448 4.516-3.839 6.078-1.464.959-3.344 1.433-5.641 1.433zm-27.276-38.662c-.781 0-1.49-.547-1.661-1.344-.198-.927.39-1.833 1.307-2.026l14.552-3.145c.922-.198 1.828.385 2.026 1.312a1.7 1.7 0 0 1-1.307 2.016l-14.547 3.145c-.125.027-.25.042-.37.042zm8.052 6.537c-.771 0-1.469-.532-1.657-1.313-.218-.916.344-1.833 1.266-2.047l11.807-2.786c.912-.214 1.828.349 2.042 1.271a1.69 1.69 0 0 1-1.261 2.041l-11.807 2.787c-.13.031-.26.047-.39.047zm13.75-276.339c-38.807-33.198-163.713-34.24-163.713-34.24s-15.599 18.605-8.156 56.026c2.463 12.339 11.182 23.417 24.974 23.417l76.63.646a9.95 9.95 0 0 1 9.849 10.339c-1.427 37.052-2.693 113.64 7.901 165.833.427 2.114 2.021 3.797 4.104 4.364 4.891 1.323 14.484 3.474 24.88 3.334 3.245-.042 5.959-2.485 6.386-5.698l25.416-189.802c.761-5.719.782-11.537-.172-17.224-1.02-6.078-3.27-12.865-8.099-16.995z" class="B"/><path d="M708.234 258.05a1.72 1.72 0 0 1-1.708-1.657c-.818-28.833-38.807-37.286-39.188-37.369a1.7 1.7 0 0 1 .714-3.328c.401.088 40.974 9.078 41.88 40.599.031.942-.713 1.729-1.656 1.75-.01.005-.026.005-.042.005z" class="E"/><path d="M619.344 207.466s1.312 2.672-33.334 7.677c-24.984 3.605-47.661 2.016-58.38.844-3.489-.385-5.844-3.745-4.989-7.151 2.812-11.245 4.869-21.687 15.682-50.229 7.51-19.818-3.297-60.401 15.568-78.526 32.099-30.844 125.161 23.786 125.161 23.786l-10.568 12.391a256.59 256.59 0 0 0-45.411 77.432l-3.729 13.776z" class="D"/><path d="M756.172 122.685c-.255-4.38-1.63-9.062.625-12.615l4.557-6.041c3.329-5.162 2.969-11.964.891-17.547l-5.974-14.448c-.578-1.625-2.89 2.031-3.359 3.688l-16.302 57.89c-2.724 8.38-12.006 9.104-17.219 5.537l-21.474-14.672-25.406 35.328s24.698 17.453 56.38 23.047c7.172 1.271 30.792.557 27.281-60.167z" class="C"/><path d="M754.688 72.69c0 .005.005.021.016.031l-.016-.031zm-79.776 86.688c5.677 3.703 27.589 17.099 54.266 21.802 2.916.521 8.609.677 13.906-4.042 6.302-5.604 13.39-19.583 11.38-54.349-.057-.995-.172-1.995-.292-3.052-.427-3.62-.869-7.349 1.177-10.573.027-.036.053-.078.079-.114l4.52-5.985c2.625-4.13 2.886-10.093.693-15.984l-5.239-12.672c-.37.599-.719 1.292-.86 1.786l-16.307 57.881c-1.287 3.989-4.026 6.843-7.724 8.109-3.943 1.344-8.682.703-12.089-1.62l-20.104-13.739-23.406 32.552zm57.047 25.442c-1.406 0-2.568-.145-3.375-.286-31.693-5.594-56.813-23.156-57.063-23.333-.375-.266-.614-.662-.698-1.11-.072-.442.032-.906.297-1.276l25.407-35.328c.536-.745 1.583-.927 2.338-.406l21.474 14.672c2.552 1.744 6.115 2.218 9.073 1.203 1.88-.641 4.375-2.172 5.568-5.865l16.286-57.828c.198-.693 2.047-5.25 4.49-5.333.755-.047 1.698.37 2.109 1.536l5.948 14.37c2.594 6.974 2.203 14.104-1.036 19.12-.026.036-.042.068-.068.109l-4.516 5.979c-1.354 2.193-1.015 5.157-.651 8.297.13 1.063.261 2.162.323 3.25 1.682 29.005-2.531 48.214-12.516 57.094a19.83 19.83 0 0 1-13.39 5.135z" class="B"/><path d="M705.235 120.711l-1.157-.87c-6.177-4.656-12.64-9.078-19.349-12.932l-17.307-9.339-23.724 47.25 33.709 19.865 27.828-43.974zm36.588-9.818l-14.385-.479c-2.162-.073-3.636-2.224-2.922-4.265l14.557-41.73c.458-1.323 1.729-2.198 3.13-2.151l14.391.479c2.166.068 3.64 2.224 2.927 4.266l-14.557 41.729a3.22 3.22 0 0 1-3.141 2.151z" class="D"/><path d="M742.094 63.972c-.636 0-1.203.396-1.412 1.01l-14.557 41.729c-.156.458-.094.948.182 1.344.271.401.703.64 1.188.656l14.385.474c.688.016 1.255-.38 1.479-1.005l14.552-41.729c.167-.458.094-.948-.182-1.349a1.52 1.52 0 0 0-1.193-.656l-14.39-.474h-.052zm-.156 48.619h-.167l-14.396-.479c-1.568-.047-2.984-.823-3.88-2.125a4.87 4.87 0 0 1-.584-4.396l14.553-41.734c.718-2.042 2.666-3.37 4.802-3.292l14.385.474c1.573.057 2.995.828 3.891 2.141.89 1.297 1.104 2.896.588 4.391l-14.562 41.73c-.688 1.989-2.537 3.291-4.63 3.291z" class="B"/><path d="M641.286 137.024l14.849 13.692c1.026.959 2.266 1.714 3.646 2 2.818.584 5.849-.422 7.745-2.807l29.125-43.333c2.172-3.23 5.724-5.256 9.604-5.474l18.547-1.511c2.448-.198 3.912 2.755 2.193 4.516-1.787 1.838-4.438 3.641-8.219 4.333-2.333.422-4.13 2.219-4.484 4.558-1.521 9.979-12.959 14.406-12.959 14.406s-11.135 66.786-42.76 58.672c-41.943-10.75-65.979-40.115-65.979-40.115l48.692-8.937z" class="C"/><path d="M595.885 147.091c6.516 6.974 28.885 28.563 63.115 37.344 5.307 1.359 10.156.542 14.828-2.495 18.495-12.047 25.755-54.385 25.823-54.817.104-.594.505-1.089 1.067-1.308.105-.036 10.532-4.213 11.886-13.067.463-3.027 2.817-5.428 5.859-5.98 2.875-.531 5.339-1.823 7.318-3.854.375-.385.26-.807.161-1.026-.078-.156-.364-.651-1-.594l-18.547 1.511c-3.375.187-6.468 1.953-8.338 4.719l-29.125 43.338c-.026.037-.057.078-.078.115-2.261 2.838-5.87 4.146-9.427 3.406-1.568-.328-3.12-1.167-4.459-2.427l-14.213-13.099-44.87 8.234zm67.922 41.375c-1.854 0-3.74-.245-5.656-.734-42.006-10.771-66.631-40.391-66.875-40.682a1.73 1.73 0 0 1-.287-1.672c.209-.568.709-.979 1.292-1.084l48.698-8.942a1.72 1.72 0 0 1 1.458.416l14.844 13.693c.901.839 1.88 1.391 2.844 1.589a6.11 6.11 0 0 0 6.015-2.146l29.094-43.276a14.19 14.19 0 0 1 10.922-6.219l18.505-1.511c1.849-.151 3.557.849 4.359 2.532.782 1.661.464 3.568-.807 4.87-2.479 2.541-5.557 4.161-9.14 4.817-1.636.302-2.86 1.532-3.105 3.141-1.401 9.224-10.224 14.005-13.114 15.344-1.198 6.552-8.771 44.203-27.172 56.187-3.755 2.448-7.729 3.677-11.875 3.677z" class="B"/><path d="M641.042 132.117c-.542 0-1.073-.26-1.401-.739l-6.719-9.729a1.71 1.71 0 0 1 .432-2.37 1.71 1.71 0 0 1 2.375.432l6.714 9.735c.531.77.344 1.833-.438 2.364-.291.208-.625.307-.963.307zm-54.87 17.266c-.396 0-.787-.135-1.12-.417-22.974-20.026-29.974-36.63-32.969-43.718l-.375-.907c-.375-.859.031-1.859.896-2.229a1.71 1.71 0 0 1 2.234.896l.381.911c2.901 6.875 9.692 22.974 32.073 42.48a1.7 1.7 0 0 1 .166 2.401 1.69 1.69 0 0 1-1.286.583z" class="E"/><path d="M588.281 75.289l-10.287 2.76c-2.458.662-2.354 3.896.032 4.787 26.864 10.088 40.203 6.151 48.51 5.099 2.464-.307 3.016-3.625.766-4.687l-.063-.026c-2.948-1.401-4.302-4.839-3.088-7.865l7.224-18.104-15.511-30.401-16.213 39.193c-2.297 4.563-6.433 7.922-11.37 9.245z" class="C"/><path d="M588.729 76.935l-10.292 2.76c-.354.089-.521.276-.536.578-.021.318.161.76.724.969 23.343 8.766 36.109 6.781 44.557 5.458l3.146-.458c.536-.068.646-.474.682-.646.031-.219.021-.599-.432-.812-3.818-1.802-5.547-6.208-4.011-10.062l6.938-17.38-13.479-26.427-14.802 35.781c-.016.036-.032.078-.052.12-2.516 4.984-7.053 8.677-12.443 10.12zm21.682 14.359c-8.031 0-18.573-1.453-32.979-6.865-1.854-.687-3.021-2.427-2.938-4.323.089-1.771 1.287-3.229 3.058-3.698l10.297-2.766a16.22 16.22 0 0 0 10.25-8.307l16.192-39.135a1.7 1.7 0 0 1 1.506-1.052c.666-.021 1.286.333 1.588.922l15.505 30.406c.229.438.245.953.068 1.406l-7.224 18.104a4.46 4.46 0 0 0 2.234 5.688c1.756.828 2.698 2.609 2.407 4.453a4.18 4.18 0 0 1-3.62 3.5c-.943.115-1.953.271-3.047.443-3.557.552-7.849 1.224-13.297 1.224z" class="B"/><path d="M650.282 14.133c15.323 11.359 9.12 21.688 9.12 21.688-1.11 3.016-3.698 10.047-3.37 11.5.385 1.781 2.281 5.115 2.135 6.088-.135.974-2.182 2.469-5.349 2.281 0 0-5.474 14.63-10.078 15.943-4.609 1.323-18.234-7.729-18.234-7.729l-2.224-1.76c-7.172-5.635-10.162-13.896-10.073-23.026 0 0 2.963-51 38.073-24.984z" class="C"/><g class="B"><path d="M641.771 73.456c-5.651 0-16.026-6.687-18.208-8.135-.032-.026-.073-.052-.11-.083l-2.229-1.75c-1.052-.833-2.052-1.74-2.958-2.698-.646-.682-.615-1.761.068-2.406.682-.651 1.75-.625 2.406.057a23.28 23.28 0 0 0 2.594 2.37l2.177 1.708c5.385 3.573 14.114 8.229 16.76 7.484 2.573-.745 6.865-9.333 8.943-14.901.265-.703.953-1.151 1.698-1.109 1.901.109 3.099-.521 3.51-.891-.151-.516-.562-1.464-.849-2.125-.489-1.146-.995-2.333-1.208-3.287-.271-1.234.198-3.667 3.432-12.453.042-.104.083-.198.146-.292.203-.365 5.109-9.224-8.677-19.443-8.693-6.443-15.959-8.49-21.589-6.073-9.651 4.135-12.635 20.172-13.474 26.87-.114.938-.968 1.599-1.896 1.479-.932-.114-1.593-.964-1.479-1.901.907-7.281 4.235-24.75 15.506-29.578 6.822-2.922 15.223-.745 24.958 6.469 15.234 11.292 10.458 22.188 9.667 23.745-2.766 7.51-3.297 9.865-3.256 10.521.131.563.594 1.646 1 2.599.828 1.917 1.292 3.057 1.157 4.021-.261 1.766-2.526 3.542-5.875 3.74-1.589 4.016-6.141 14.552-10.782 15.88a5.13 5.13 0 0 1-1.432.182z"/><path d="M646.974 4.404c4.188 2.422 7.776 6.542 10.042 7.464 3.64 1.5 6.401-1.792 10.646 1.354 3.724 2.766 6.396 6.245 5.823 10.453-.099.703-.282 1.422-.563 2.161-3.849 9.948-10.812 9.083-13.526 8.797 0 0-15.078-4.182-18.193-4.318-2.911-.125-7.781 2.573-10.812 8.26-.386.74-1.235 1.109-2.042.938-.963-.198-1.614-1.094-1.495-2.062.344-3.052.672-9.266-2.213-10.286-3.37-1.193-9.703 4.354-6.464 9.917.99 1.719-.166 3.979-2.135 4.182-1.63.167-3.484-.328-4.995-2.526 0 0-4.302-18.151 3.724-30.073s26.625-7.484 32.203-4.26zm11.469 51.719a1.71 1.71 0 0 1-1.511-.901 1.71 1.71 0 0 1 .719-2.307c.943-.5 2.312-2.172 3.208-4.771 1.25-3.594.594-5.844.219-6.073-.391-.062-2.266 1.271-3.516 4.734a1.71 1.71 0 0 1-2.182 1.026c-.88-.318-1.344-1.297-1.016-2.182 1.761-4.901 5.063-7.755 7.839-6.792 2.838.99 3.625 5.354 1.87 10.401-1.089 3.151-2.901 5.641-4.839 6.667a1.59 1.59 0 0 1-.791.198z"/><path d="M646.567 41.935c-1.083 3.141-.437 5.99.865 6.448.583.198 1.375-.057 2.177-.713 1.036-.844 1.943-2.24 2.489-3.812.547-1.583.704-3.234.407-4.537-.224-1.016-.688-1.708-1.266-1.911-.573-.198-1.37.063-2.177.719-1.036.844-1.943 2.229-2.495 3.807zm1.266 9.922c-.516 0-1.026-.089-1.516-.26-3.354-1.161-4.656-5.896-2.963-10.781.76-2.182 2.021-4.083 3.557-5.328 1.74-1.422 3.724-1.896 5.443-1.297 1.729.599 2.989 2.198 3.479 4.396.427 1.922.245 4.193-.516 6.386s-2.021 4.083-3.552 5.328c-1.25 1.026-2.625 1.557-3.932 1.557z"/><path d="M646.417 40.06a1.78 1.78 0 0 1-.625-.109l-15.953-6.245c-.87-.339-1.307-1.328-.964-2.203a1.7 1.7 0 0 1 2.209-.964l15.953 6.229c.875.349 1.307 1.333.963 2.208a1.69 1.69 0 0 1-1.583 1.083zM97.865 452.159c-6.568.411-43.135 2.724-70.385-23.969-30.708-30.078-34.667-82.349-14.229-108.604 12.531-16.094 22.511-7.344 63.651-30.703 36.203-20.557 45.823-37.193 64.401-33.703 14.438 2.708 22.979 15.453 32.198 29.208 7.88 11.761 29.063 43.37 21.714 83.141-8.563 46.359-51.839 81.755-97.349 84.63z"/><path d="M136.521 255.284c-9.276 0-16.938 5.531-28.563 13.917-7.817 5.64-17.546 12.656-30.776 20.172-20.078 11.401-32.703 15.161-41.927 17.901-9.5 2.828-15.234 4.541-21.557 12.661C3.776 332.68-.578 351.794 1.75 372.393c2.443 21.61 11.719 41.282 26.125 55.391 23.557 23.073 53.948 24.823 69.958 23.802 46.881-2.963 88.511-39.146 96.823-84.167 7.308-39.541-13.713-70.911-21.625-82.718-9.067-13.526-17.625-26.302-31.833-28.969-1.62-.302-3.167-.448-4.677-.448zM91.005 452.94c-17.073 0-43.109-3.963-63.922-24.344C12.49 414.305 3.094 394.388.62 372.518c-2.359-20.885 2.083-40.302 12.182-53.281 6.547-8.406 12.411-10.156 22.13-13.047 9.172-2.734 21.724-6.474 41.688-17.807 13.177-7.479 22.875-14.479 30.672-20.104 13.765-9.927 22.067-15.922 34.114-13.662 14.677 2.756 23.365 15.719 32.568 29.453 7.979 11.912 29.188 43.558 21.802 83.558-8.411 45.515-50.484 82.099-97.875 85.088a105.61 105.61 0 0 1-6.896.224zm-40.057 49.599s-6.469 22.203 90.135 27.61c96.604 5.401 80.443-22.047 80.443-22.047L120.104 478.55l-69.156 23.989z"/></g><path d="M147.548 850.633l-1.224 45.594-16.099 1.745-7.969-49.073 25.292 1.734z" class="C"/><path d="M124.281 850.748l7.365 45.354 13.015-1.412 1.141-42.468-21.521-1.474zm5.938 48.921c-.823 0-1.542-.598-1.677-1.427l-7.964-49.067a1.68 1.68 0 0 1 .422-1.422c.349-.386.854-.584 1.375-.552l25.292 1.734a1.7 1.7 0 0 1 1.583 1.745l-1.224 45.594a1.71 1.71 0 0 1-1.521 1.651l-16.099 1.734c-.062.01-.125.01-.187.01z" class="B"/><path d="M238.911 865.602l2.568 36.318-21.276 1.739-7.594-38.057h26.302z" class="C"/><path d="M214.688 867.305l6.89 34.531 18.084-1.474-2.339-33.057h-22.635zm5.515 38.057c-.807 0-1.51-.567-1.672-1.37l-7.593-38.057c-.099-.5.031-1.015.354-1.417.323-.395.807-.619 1.318-.619h26.302a1.7 1.7 0 0 1 1.698 1.583l2.572 36.318a1.71 1.71 0 0 1-1.562 1.817l-21.276 1.74c-.047.005-.094.005-.141.005z" class="B"/><path d="M214.516 919.3c-1.474-.979-2.37-2.636-2.417-4.407-.141-5.328-.156-16.682 1.99-20.942 2.854-5.662 14.614 2.224 14.614 2.224s6.886-9.542 10.917-11.547c2.088-1.037 14.297 7.094 26.604 18.172 13.49 12.146 19.578 16.021 22.484 26.489 1.365 4.912-2.244 9.854-7.328 10.219-12.385.885-37.39-.594-66.864-20.208z" class="F"/><path d="M215.458 917.883c29.089 19.354 53.708 20.786 65.802 19.922 1.953-.136 3.724-1.141 4.865-2.755 1.099-1.568 1.448-3.5.942-5.308-2.312-8.328-6.635-12.13-16.114-20.474l-5.87-5.203c-12.781-11.505-22.802-17.604-24.885-17.818-3.026 1.667-8.302 8.417-10.115 10.928a1.7 1.7 0 0 1-2.328.416c-2.797-1.87-8.229-4.578-10.906-3.875-.589.156-.969.464-1.24.995-1.391 2.766-2.068 10.292-1.807 20.135.031 1.235.651 2.365 1.656 3.037zm60.474 23.521c-13.708 0-36.354-3.38-62.359-20.683-1.927-1.286-3.115-3.447-3.177-5.786-.162-6.193-.094-17.255 2.171-21.75.709-1.406 1.891-2.354 3.422-2.76 3.969-1.037 9.641 1.895 12.287 3.474 2.114-2.803 7.093-9.058 10.588-10.797 5.11-2.542 28.266 18.218 28.5 18.432l5.834 5.177c9.698 8.536 14.567 12.813 17.151 22.12.776 2.797.255 5.781-1.443 8.182-1.729 2.453-4.427 3.979-7.406 4.193a76.37 76.37 0 0 1-5.568.198zm-6.167-9.729c-12.942 0-33.729-3.146-54.25-19.521-.734-.589-.854-1.662-.265-2.396a1.71 1.71 0 0 1 2.39-.271c31.271 24.958 64.079 17.729 64.407 17.656a1.71 1.71 0 0 1 2.047 1.276c.208.912-.36 1.828-1.271 2.037-.521.125-5.427 1.219-13.058 1.219z" class="B"/><path d="M153.906 907.315l-.234-24.963s-5.005-7.573-11.865-1.417c0 0-6.343-8.896-18.119 2.193 0 0-16.568 30.89-23.901 49.271-1.964 4.911 1.541 10.302 6.838 10.427 7.604.177 17.438-.235 21.719-3.131 6.698-4.52 18.156-18.796 23.156-25.229a11.46 11.46 0 0 0 2.406-7.151z" class="F"/><g class="B"><path d="M125.057 884.18c-1.578 2.958-16.823 31.63-23.693 48.843a5.89 5.89 0 0 0 .558 5.48c1.073 1.614 2.802 2.573 4.745 2.619 10.307.24 17.666-.765 20.723-2.838 6.547-4.422 18.099-18.859 22.761-24.865 1.349-1.729 2.073-3.885 2.057-6.088l-.229-24.406c-.609-.745-2.172-2.412-4.229-2.667-1.542-.193-3.156.469-4.807 1.943-.36.328-.844.479-1.323.427s-.917-.313-1.198-.703c-.063-.089-1.761-2.344-4.948-2.631-3.11-.286-6.615 1.36-10.417 4.886zm-15.39 60.385c-1 0-2.027-.01-3.084-.036-3.073-.073-5.807-1.589-7.5-4.151a9.34 9.34 0 0 1-.88-8.615c7.286-18.255 23.818-49.13 23.984-49.443a1.78 1.78 0 0 1 .334-.432c4.651-4.385 9.14-6.396 13.338-5.979 2.87.276 4.922 1.651 6.11 2.719 2.026-1.433 4.125-2.021 6.234-1.745 4.208.542 6.786 4.37 6.891 4.531.182.271.281.594.286.922l.229 24.964a13.22 13.22 0 0 1-2.765 8.213c-5.917 7.615-16.839 21.063-23.547 25.594-3.396 2.302-9.99 3.458-19.63 3.458z"/><path d="M141.818 896.091c-.943 0-1.708-.76-1.708-1.698l-.006-13.458a1.7 1.7 0 0 1 1.704-1.703c.937 0 1.703.76 1.703 1.698l.005 13.458a1.7 1.7 0 0 1-1.698 1.703zm103.551-28.427s6.073-91.672-3.89-174.13-47.016-200.208-47.016-200.208-39.865-1.808-68.885 2.088-40.506-.109-40.506-.109-21.661 24.807-19.896 71.448c1.771 46.646 52.322 243.39 50.406 289.567 0 0 17 8.547 39.021 4.297l-9.131-265.156s18.886 54.589 27.75 91.984c7.23 30.485 19.766 50.204 19.766 50.204s-.536 70.869 15.729 129.687c0 0 19.209 6.01 36.651.328z"/></g><path d="M213.495 769.774c-.542 0-1.073-.261-1.401-.74l-13.922-20.265c-.536-.771-.338-1.834.438-2.365a1.7 1.7 0 0 1 2.369.443l13.922 20.255c.532.776.334 1.838-.442 2.37a1.69 1.69 0 0 1-.964.302zm-93.614-49.266c-4.922 0-11.167-.958-16.386-4.828-.755-.563-.911-1.63-.349-2.385a1.7 1.7 0 0 1 2.381-.355c8.843 6.563 21.755 3.37 21.885 3.339.917-.229 1.838.318 2.073 1.229a1.7 1.7 0 0 1-1.229 2.068c-.292.073-3.745.932-8.375.932zm66.208-302.542s22.359 50.308 58.823 60.584c36.458 10.271 61.854-20.782 61.687-52.839l-12.39-4.104s-12.719 32.849-41.089 24.302-41.531-75.37-41.531-75.37l-25.5 47.427z" class="C"/><path d="M187.995 418.018c2.953 6.256 24.516 49.631 57.375 58.891 18.187 5.13 31.193-.792 38.896-6.667 12.526-9.531 20.359-26.036 20.625-43.297l-9.745-3.239c-2.625 5.641-13.193 25.323-32.88 25.323-3 0-6.209-.459-9.636-1.49-24.937-7.515-38.156-56.692-41.724-72.135l-22.911 42.614zm70.922 64.261c-4.427 0-9.25-.625-14.469-2.094-36.807-10.37-58.984-59.448-59.911-61.526a1.72 1.72 0 0 1 .052-1.5l25.5-47.432c.338-.63 1.047-.979 1.755-.875.708.109 1.276.651 1.417 1.354.13.661 13.286 65.922 40.348 74.068 26.506 7.989 38.511-22 39.011-23.287a1.71 1.71 0 0 1 2.125-1l12.391 4.11a1.71 1.71 0 0 1 1.166 1.609c.099 18.755-8.323 36.859-21.969 47.25-6.104 4.646-15.265 9.323-27.416 9.323z" class="B"/><path d="M50.943 369.425s22.417-29.266 85.756-23.797c75.635 6.526 81.401 21.474 81.401 21.474l-19.745 40.01 23.172 100.99s-15.834 13.109-52.917 5.75c-37.083-7.365-100.813-16.401-117.661-11.313l23.495-96.364-23.5-36.75z" class="D"/><g class="B"><path d="M66.406 499.378c26.073 0 71.661 6.672 102.536 12.802 31.266 6.208 47.037-2.406 50.667-4.802l-22.912-99.886c-.088-.38-.041-.781.131-1.13l19.317-39.151c-2.125-2.578-15.192-14.328-79.593-19.891-55.438-4.786-79.104 17.48-83.49 22.256l22.813 35.682c.25.39.328.87.224 1.323L53.26 500.253c3.391-.604 7.87-.875 13.146-.875zm123.693 18.432c-6.271 0-13.527-.641-21.818-2.292-37.573-7.458-100.693-16.224-116.839-11.349-.589.177-1.219.026-1.662-.395a1.69 1.69 0 0 1-.484-1.641l23.318-95.656-23.109-36.136a1.7 1.7 0 0 1 .083-1.953c.938-1.224 23.719-29.948 87.261-24.463 74.536 6.437 82.213 20.927 82.838 22.562.172.443.151.938-.062 1.365l-19.474 39.474 23.036 100.395a1.7 1.7 0 0 1-.578 1.688c-.521.432-10.464 8.401-32.51 8.401z"/><path d="M294.183 464.039H196.74l63.912-115.729h97.442l-63.911 115.729z"/></g><path d="M296.422 460.393s-1.828-9.593 0-16 13.187-25.448 16.432-29.427c3.245-3.989 5.995 38.558-16.432 45.427z" class="C"/><path d="M312.875 417.805c-4.235 6.114-13.277 21.672-14.818 27.057-1.214 4.255-.682 10.172-.271 13.219 5.526-2.38 9.714-7.505 12.458-15.255 3.573-10.099 3.375-20.75 2.631-25.021zm-16.454 44.291a1.73 1.73 0 0 1-.88-.244c-.411-.25-.698-.667-.791-1.141-.079-.406-1.886-10.073.036-16.786 1.854-6.49 13.292-25.797 16.745-30.037.776-.953 1.786-1.015 2.474-.76 2.64.984 2.817 8.338 2.692 12.635-.442 14.735-5.864 32-19.776 36.255a1.64 1.64 0 0 1-.5.078z" class="B"/><path d="M92.511 435.534l75.026-36.172 38.984 6.906s-2.729 4.063-8.265 3.115c-5.542-.948-12.912.63-17.553 5.734-4.64 5.11-12.463 1.865-12.463 1.865s-42.438 54.531-80.547 61.568c-30.974 5.718-34.385-105.427-34.385-105.427l37.266 33.052 1.938 29.359z" class="C"/><path d="M55.182 377.06c.849 16.969 5.266 82.797 23.276 97.323 2.807 2.265 5.729 3.083 8.927 2.489 37.041-6.838 79.093-60.406 79.51-60.937.469-.609 1.286-.828 2-.531.062.026 6.781 2.708 10.547-1.427 5.182-5.709 13.328-7.266 19.099-6.276 1.64.281 2.974.026 3.995-.412l-34.756-6.146-74.531 35.922a1.69 1.69 0 0 1-2.437-1.422l-1.891-28.661-33.74-29.922zm30.229 103.406c-3.219 0-6.266-1.151-9.094-3.427C54.495 459.43 51.714 376.69 51.604 373.174c-.021-.677.365-1.307.979-1.598s1.344-.178 1.854.27l37.266 33.058a1.67 1.67 0 0 1 .568 1.161l1.771 26.839 72.755-35.068c.323-.156.688-.208 1.036-.146l38.985 6.896c.568.104 1.047.484 1.271 1.01a1.71 1.71 0 0 1-.157 1.62c-.135.209-3.416 4.964-9.968 3.844-4.849-.839-11.683.453-16 5.203-4.24 4.667-10.49 3.5-13.131 2.714-6.052 7.567-44.859 54.604-80.828 61.244-.875.162-1.745.245-2.594.245z" class="B"/><path d="M176.922 313.06c.843-1.333-3.157-8.552-3.292-11.177-.141-2.63 1.911-4.839 2.776-7.594.859-2.755-.104-7.677-.104-7.677-1.172-32.922-37.037-25.104-37.037-25.104-8.234 2.49-13.083 11.745-14.672 17.891-3.067 11.916 2.589 26.317 2.589 26.317-.24.542-6.12 39.099-6.38 39.599-3.724 7.162 21.25 11.844 29.104 4.63 2.656-2.437-.745-20.349 0-20.359 2.943-.083 6.552 3.073 10.255 2.089 5.464-1.454 9.578-15.136 10.365-16.151.37-.485 1.64-.761 2.963-1.068 1.464-.333 2.985-.698 3.433-1.396z" class="C"/><g class="B"><path d="M128.818 306.201c-.208.958-1.667 10.25-2.953 18.463l-3.552 21.433c-.188.364-.584 1.125 1.021 2.348 4.869 3.735 20.052 5.178 25.421.25 1.089-1.432.099-10.651-.276-14.125-.494-4.609-.573-5.312.11-6.093.312-.354.797-.584 1.271-.599 1.567-.031 3.135.573 4.645 1.166 1.849.73 3.594 1.417 5.219.99 3.453-.922 6.943-9.651 8.255-12.943.667-1.672.896-2.224 1.193-2.604.74-.963 2.104-1.271 3.839-1.667.645-.151 1.734-.401 2.286-.64-.177-.938-.969-2.932-1.521-4.307-.911-2.282-1.771-4.443-1.849-5.901-.109-2.094.787-3.829 1.651-5.506.474-.911.917-1.776 1.203-2.682.599-1.922.094-5.594-.151-6.839-.015-.093-.026-.182-.026-.265-.307-8.568-3.104-14.964-8.312-19.021-9.88-7.693-25.495-4.724-26.599-4.505-7.844 2.422-12.141 11.614-13.448 16.677-2.896 11.219 2.469 25.125 2.526 25.266.141.354.151.739.047 1.104zm8.448 49.078c-6.323 0-12.771-1.651-16-4.13-2.396-1.834-3.141-4.167-2.068-6.427.302-1.474 1.958-12.042 3.302-20.589l2.922-18.271c-.984-2.682-5.365-15.677-2.474-26.885 1.484-5.766 6.495-16.282 15.828-19.104.042-.011.084-.021.13-.032.73-.156 17.995-3.791 29.469 5.115 6.021 4.677 9.255 11.906 9.625 21.469.182.963.938 5.463.031 8.369-.375 1.193-.906 2.23-1.427 3.24-.718 1.385-1.333 2.589-1.276 3.76.047.896.917 3.068 1.615 4.813 1.542 3.87 2.307 5.958 1.417 7.359-.834 1.308-2.693 1.735-4.49 2.151-.724.162-1.651.375-2.042.547l-.682 1.693c-1.906 4.755-5.443 13.609-10.547 14.963-2.708.719-5.167-.25-7.344-1.104-.573-.229-1.135-.448-1.656-.619l.266 2.614c1.078 10.016 1.234 15.115-.808 16.995-3.14 2.885-8.421 4.073-13.791 4.073z"/><path d="M185.938 262.773c-3.604-3.645-7.271 0-21.599-2.01-11.917-1.677-15.354-5.042-24.375-3.552-2.531.422-7.062 1.167-11.531 4.443-6.63 4.849-9.094 11.651-10.401 16.729-2.552 9.906.646 21.458 2.083 25.828.354 1.073 1.406 1.755 2.531 1.661 3.011-.255 5.667-.651 8.042-1.161 1.125-.245 1.766-1.422 1.333-2.495a10.59 10.59 0 0 1-.307-.906c-1.193-4.177.807-8.412 4.464-9.458 3.656-1.037 7.588 1.505 8.776 5.687.083.287.145.578.198.87 5.265-3.99 7.968-8.5 12.833-10.927.583-.292 3.146-1.459 7.042-1.594 8.453-.302 11.265 4.714 15.265 3.74 6.99-1.693 12.125-20.287 5.646-26.855zm-35.167 68.511a1.63 1.63 0 0 1-.516-.083c-13.156-4.141-15.182-12.886-15.265-13.261a1.7 1.7 0 0 1 1.307-2.021c.917-.197 1.818.381 2.021 1.292.073.318 1.833 7.24 12.963 10.745a1.69 1.69 0 0 1 1.11 2.13c-.224.729-.901 1.198-1.62 1.198zm174.708-206.599c-.302 0-.609-.078-.885-.25a1.7 1.7 0 0 1-.568-2.339c30.766-50.588 71.62-70.895 100.479-79.031 31.287-8.807 54.933-5.693 55.927-5.552a1.7 1.7 0 0 1 1.454 1.917c-.131.938-.99 1.589-1.922 1.458-.24-.036-24.052-3.156-54.688 5.505-28.219 7.974-68.192 27.896-98.344 77.469a1.69 1.69 0 0 1-1.453.823zm65.974-84.812c-.536 0-1.067-.255-1.395-.734-.537-.771-.344-1.833.432-2.365.594-.417 14.891-10.188 38.63-16.87 21.896-6.156 56.198-10.641 95.261 2.974a1.7 1.7 0 0 1 1.046 2.172c-.307.885-1.276 1.359-2.166 1.052C450.177.617 392.99 39.18 392.422 39.571a1.7 1.7 0 0 1-.969.302zm323.99-21.198c-.937 0-1.698-.766-1.698-1.708V8.159a1.703 1.703 0 1 1 3.406 0v8.807c0 .943-.76 1.708-1.708 1.708zm.006 20.51c-.933 0-1.693-.771-1.693-1.714v-8.802a1.7 1.7 0 0 1 1.693-1.703 1.7 1.7 0 0 1 1.703 1.703v8.802a1.71 1.71 0 0 1-1.703 1.714zM709.6 24.518h-8.802c-.943 0-1.698-.76-1.698-1.698 0-.948.755-1.708 1.698-1.708h8.802a1.703 1.703 0 1 1 0 3.406zm20.51 0h-8.802a1.7 1.7 0 1 1 0-3.406h8.802c.937 0 1.703.76 1.703 1.708 0 .938-.766 1.698-1.703 1.698zm-71.079 810.88a1.71 1.71 0 0 1-.781-3.224c89.38-46.083 137.162-101.75 161.5-140.322 26.365-41.792 31.672-73.094 31.719-73.407.151-.932 1.031-1.562 1.953-1.411a1.71 1.71 0 0 1 1.411 1.953c-.052.318-5.421 32.161-32.088 74.5-24.563 38.99-72.771 95.224-162.938 141.719a1.66 1.66 0 0 1-.776.192zm58.183-1.119a1.69 1.69 0 0 1-1.438-.787c-.515-.791-.281-1.843.511-2.354 84.578-54.224 126.739-113.229 147.213-153.172 22.136-43.171 24.349-73.828 24.37-74.14.068-.938.87-1.63 1.812-1.584a1.71 1.71 0 0 1 1.594 1.808c-.026.312-2.291 31.677-24.745 75.469-20.671 40.317-63.192 99.848-148.406 154.489a1.69 1.69 0 0 1-.911.271zm179.911-248.412a1.71 1.71 0 0 1-1.51-.901c-.432-.828-.12-1.859.713-2.302 3.073-1.64 4.777-3.427 5.063-5.312.161-1.063-.156-1.735-.776-2.917-.599-1.12-1.328-2.516-1.328-4.474 0-3.75 2.573-5.849 4.854-7.703 1.849-1.505 3.453-2.813 3.797-4.807.375-2.198-.985-3.792-3.255-6.203-2.224-2.375-4.745-5.068-4.526-9.089.244-4.536 3.828-7.203 6.989-9.552 2.943-2.193 5.485-4.078 5.604-7.026.11-2.458-1.552-4.344-3.312-6.344-1.938-2.203-4.136-4.698-3.636-8.125.625-4.26 4.964-7.64 13.276-10.323.891-.297 1.849.198 2.136 1.099a1.69 1.69 0 0 1-1.089 2.141c-8.541 2.76-10.666 5.64-10.948 7.573-.276 1.87 1.162 3.5 2.818 5.385 2.026 2.302 4.323 4.917 4.156 8.74-.187 4.562-3.786 7.245-6.968 9.609-2.813 2.089-5.464 4.068-5.625 7.005-.141 2.573 1.682 4.521 3.614 6.578 2.245 2.401 4.797 5.125 4.125 9.105-.557 3.255-2.922 5.177-5.01 6.88-2.224 1.812-3.604 3.031-3.604 5.057 0 1.115.437 1.932.937 2.88.662 1.25 1.479 2.797 1.136 5.021-.454 3.011-2.756 5.636-6.834 7.807a1.68 1.68 0 0 1-.797.198z"/></g></svg>