<svg width="160" height="160" viewBox="0 0 160 160" fill="none" xmlns="http://www.w3.org/2000/svg">
<path d="M4.47883 0.950195H0.604126V4.8249H4.47883V0.950195Z" fill="#495865"/>
<path d="M8.35353 0.950195H4.47883V4.8249H8.35353V0.950195Z" fill="#495865"/>
<path d="M12.2282 0.950195H8.35353V4.8249H12.2282V0.950195Z" fill="#495865"/>
<path d="M16.1029 0.950195H12.2282V4.8249H16.1029V0.950195Z" fill="#495865"/>
<path d="M19.9776 0.950195H16.1029V4.8249H19.9776V0.950195Z" fill="#495865"/>
<path d="M23.8523 0.950195H19.9776V4.8249H23.8523V0.950195Z" fill="#495865"/>
<path d="M27.727 0.950195H23.8523V4.8249H27.727V0.950195Z" fill="#495865"/>
<path d="M35.4765 0.950195H31.6018V4.8249H35.4765V0.950195Z" fill="#495865"/>
<path d="M39.3512 0.950195H35.4765V4.8249H39.3512V0.950195Z" fill="#495865"/>
<path d="M43.2259 0.950195H39.3512V4.8249H43.2259V0.950195Z" fill="#495865"/>
<path d="M47.1006 0.950195H43.2259V4.8249H47.1006V0.950195Z" fill="#495865"/>
<path d="M50.9753 0.950195H47.1006V4.8249H50.9753V0.950195Z" fill="#495865"/>
<path d="M54.85 0.950195H50.9753V4.8249H54.85V0.950195Z" fill="#495865"/>
<path d="M66.4741 0.950195H62.5994V4.8249H66.4741V0.950195Z" fill="#495865"/>
<path d="M70.3488 0.950195H66.4741V4.8249H70.3488V0.950195Z" fill="#495865"/>
<path d="M78.0982 0.950195H74.2235V4.8249H78.0982V0.950195Z" fill="#495865"/>
<path d="M85.8476 0.950195H81.9729V4.8249H85.8476V0.950195Z" fill="#495865"/>
<path d="M97.4717 0.950195H93.597V4.8249H97.4717V0.950195Z" fill="#495865"/>
<path d="M101.346 0.950195H97.4717V4.8249H101.346V0.950195Z" fill="#495865"/>
<path d="M105.221 0.950195H101.346V4.8249H105.221V0.950195Z" fill="#495865"/>
<path d="M109.096 0.950195H105.221V4.8249H109.096V0.950195Z" fill="#495865"/>
<path d="M116.845 0.950195H112.971V4.8249H116.845V0.950195Z" fill="#495865"/>
<path d="M128.469 0.950195H124.595V4.8249H128.469V0.950195Z" fill="#495865"/>
<path d="M136.219 0.950195H132.344V4.8249H136.219V0.950195Z" fill="#495865"/>
<path d="M140.093 0.950195H136.219V4.8249H140.093V0.950195Z" fill="#495865"/>
<path d="M143.968 0.950195H140.093V4.8249H143.968V0.950195Z" fill="#495865"/>
<path d="M147.843 0.950195H143.968V4.8249H147.843V0.950195Z" fill="#495865"/>
<path d="M151.718 0.950195H147.843V4.8249H151.718V0.950195Z" fill="#495865"/>
<path d="M155.592 0.950195H151.718V4.8249H155.592V0.950195Z" fill="#495865"/>
<path d="M159.467 0.950195H155.592V4.8249H159.467V0.950195Z" fill="#495865"/>
<path d="M4.47883 4.8249H0.604126V8.6996H4.47883V4.8249Z" fill="#495865"/>
<path d="M27.727 4.8249H23.8523V8.6996H27.727V4.8249Z" fill="#495865"/>
<path d="M39.3512 4.8249H35.4765V8.6996H39.3512V4.8249Z" fill="#495865"/>
<path d="M54.85 4.8249H50.9753V8.6996H54.85V4.8249Z" fill="#495865"/>
<path d="M62.5994 4.8249H58.7247V8.6996H62.5994V4.8249Z" fill="#495865"/>
<path d="M66.4741 4.8249H62.5994V8.6996H66.4741V4.8249Z" fill="#495865"/>
<path d="M70.3488 4.8249H66.4741V8.6996H70.3488V4.8249Z" fill="#495865"/>
<path d="M74.2235 4.8249H70.3488V8.6996H74.2235V4.8249Z" fill="#495865"/>
<path d="M81.9729 4.8249H78.0982V8.6996H81.9729V4.8249Z" fill="#495865"/>
<path d="M93.597 4.8249H89.7223V8.6996H93.597V4.8249Z" fill="#495865"/>
<path d="M109.096 4.8249H105.221V8.6996H109.096V4.8249Z" fill="#495865"/>
<path d="M116.845 4.8249H112.971V8.6996H116.845V4.8249Z" fill="#495865"/>
<path d="M128.469 4.8249H124.595V8.6996H128.469V4.8249Z" fill="#495865"/>
<path d="M136.219 4.8249H132.344V8.6996H136.219V4.8249Z" fill="#495865"/>
<path d="M159.467 4.8249H155.592V8.6996H159.467V4.8249Z" fill="#495865"/>
<path d="M4.47883 8.6996H0.604126V12.5743H4.47883V8.6996Z" fill="#495865"/>
<path d="M12.2282 8.6996H8.35353V12.5743H12.2282V8.6996Z" fill="#495865"/>
<path d="M16.1029 8.6996H12.2282V12.5743H16.1029V8.6996Z" fill="#495865"/>
<path d="M19.9776 8.6996H16.1029V12.5743H19.9776V8.6996Z" fill="#495865"/>
<path d="M27.727 8.6996H23.8523V12.5743H27.727V8.6996Z" fill="#495865"/>
<path d="M54.85 8.6996H50.9753V12.5743H54.85V8.6996Z" fill="#495865"/>
<path d="M66.4741 8.6996H62.5994V12.5743H66.4741V8.6996Z" fill="#495865"/>
<path d="M81.9729 8.6996H78.0982V12.5743H81.9729V8.6996Z" fill="#495865"/>
<path d="M85.8476 8.6996H81.9729V12.5743H85.8476V8.6996Z" fill="#495865"/>
<path d="M89.7223 8.6996H85.8476V12.5743H89.7223V8.6996Z" fill="#495865"/>
<path d="M93.597 8.6996H89.7223V12.5743H93.597V8.6996Z" fill="#495865"/>
<path d="M97.4717 8.6996H93.597V12.5743H97.4717V8.6996Z" fill="#495865"/>
<path d="M105.221 8.6996H101.346V12.5743H105.221V8.6996Z" fill="#495865"/>
<path d="M109.096 8.6996H105.221V12.5743H109.096V8.6996Z" fill="#495865"/>
<path d="M116.845 8.6996H112.971V12.5743H116.845V8.6996Z" fill="#495865"/>
<path d="M120.72 8.6996H116.845V12.5743H120.72V8.6996Z" fill="#495865"/>
<path d="M124.595 8.6996H120.72V12.5743H124.595V8.6996Z" fill="#495865"/>
<path d="M128.469 8.6996H124.595V12.5743H128.469V8.6996Z" fill="#495865"/>
<path d="M136.219 8.6996H132.344V12.5743H136.219V8.6996Z" fill="#495865"/>
<path d="M143.968 8.6996H140.093V12.5743H143.968V8.6996Z" fill="#495865"/>
<path d="M147.843 8.6996H143.968V12.5743H147.843V8.6996Z" fill="#495865"/>
<path d="M151.718 8.6996H147.843V12.5743H151.718V8.6996Z" fill="#495865"/>
<path d="M159.467 8.6996H155.592V12.5743H159.467V8.6996Z" fill="#495865"/>
<path d="M4.47883 12.5743H0.604126V16.449H4.47883V12.5743Z" fill="#495865"/>
<path d="M12.2282 12.5743H8.35353V16.449H12.2282V12.5743Z" fill="#495865"/>
<path d="M16.1029 12.5743H12.2282V16.449H16.1029V12.5743Z" fill="#495865"/>
<path d="M19.9776 12.5743H16.1029V16.449H19.9776V12.5743Z" fill="#495865"/>
<path d="M27.727 12.5743H23.8523V16.449H27.727V12.5743Z" fill="#495865"/>
<path d="M43.2259 12.5743H39.3512V16.449H43.2259V12.5743Z" fill="#495865"/>
<path d="M62.5994 12.5743H58.7247V16.449H62.5994V12.5743Z" fill="#495865"/>
<path d="M70.3488 12.5743H66.4741V16.449H70.3488V12.5743Z" fill="#495865"/>
<path d="M74.2235 12.5743H70.3488V16.449H74.2235V12.5743Z" fill="#495865"/>
<path d="M78.0982 12.5743H74.2235V16.449H78.0982V12.5743Z" fill="#495865"/>
<path d="M81.9729 12.5743H78.0982V16.449H81.9729V12.5743Z" fill="#495865"/>
<path d="M85.8476 12.5743H81.9729V16.449H85.8476V12.5743Z" fill="#495865"/>
<path d="M89.7223 12.5743H85.8476V16.449H89.7223V12.5743Z" fill="#495865"/>
<path d="M93.597 12.5743H89.7223V16.449H93.597V12.5743Z" fill="#495865"/>
<path d="M97.4717 12.5743H93.597V16.449H97.4717V12.5743Z" fill="#495865"/>
<path d="M101.346 12.5743H97.4717V16.449H101.346V12.5743Z" fill="#495865"/>
<path d="M109.096 12.5743H105.221V16.449H109.096V12.5743Z" fill="#495865"/>
<path d="M112.971 12.5743H109.096V16.449H112.971V12.5743Z" fill="#495865"/>
<path d="M128.469 12.5743H124.595V16.449H128.469V12.5743Z" fill="#495865"/>
<path d="M136.219 12.5743H132.344V16.449H136.219V12.5743Z" fill="#495865"/>
<path d="M143.968 12.5743H140.093V16.449H143.968V12.5743Z" fill="#495865"/>
<path d="M147.843 12.5743H143.968V16.449H147.843V12.5743Z" fill="#495865"/>
<path d="M151.718 12.5743H147.843V16.449H151.718V12.5743Z" fill="#495865"/>
<path d="M159.467 12.5743H155.592V16.449H159.467V12.5743Z" fill="#495865"/>
<path d="M4.47883 16.449H0.604126V20.3237H4.47883V16.449Z" fill="#495865"/>
<path d="M12.2282 16.449H8.35353V20.3237H12.2282V16.449Z" fill="#495865"/>
<path d="M16.1029 16.449H12.2282V20.3237H16.1029V16.449Z" fill="#495865"/>
<path d="M19.9776 16.449H16.1029V20.3237H19.9776V16.449Z" fill="#495865"/>
<path d="M27.727 16.449H23.8523V20.3237H27.727V16.449Z" fill="#495865"/>
<path d="M35.4765 16.449H31.6018V20.3237H35.4765V16.449Z" fill="#495865"/>
<path d="M39.3512 16.449L35.4765 16.449V20.3237H39.3512V16.449Z" fill="#495865"/>
<path d="M43.2259 16.449H39.3512V20.3237H43.2259V16.449Z" fill="#495865"/>
<path d="M66.4741 16.449H62.5994V20.3237H66.4741V16.449Z" fill="#495865"/>
<path d="M78.0982 16.449H74.2235V20.3237H78.0982V16.449Z" fill="#495865"/>
<path d="M81.9729 16.449H78.0982V20.3237H81.9729V16.449Z" fill="#495865"/>
<path d="M109.096 16.449H105.221V20.3237H109.096V16.449Z" fill="#495865"/>
<path d="M112.971 16.449H109.096V20.3237H112.971V16.449Z" fill="#495865"/>
<path d="M116.845 16.449L112.971 16.449V20.3237H116.845V16.449Z" fill="#495865"/>
<path d="M124.595 16.449L120.72 16.449V20.3237H124.595V16.449Z" fill="#495865"/>
<path d="M128.469 16.449H124.595V20.3237H128.469V16.449Z" fill="#495865"/>
<path d="M136.219 16.449H132.344V20.3237H136.219V16.449Z" fill="#495865"/>
<path d="M143.968 16.449H140.093V20.3237H143.968V16.449Z" fill="#495865"/>
<path d="M147.843 16.449H143.968V20.3237H147.843V16.449Z" fill="#495865"/>
<path d="M151.718 16.449H147.843V20.3237H151.718V16.449Z" fill="#495865"/>
<path d="M159.467 16.449H155.592V20.3237H159.467V16.449Z" fill="#495865"/>
<path d="M4.47883 20.3237H0.604126V24.1984H4.47883V20.3237Z" fill="#495865"/>
<path d="M27.727 20.3237H23.8523V24.1984H27.727V20.3237Z" fill="#495865"/>
<path d="M39.3512 20.3237H35.4765V24.1984H39.3512V20.3237Z" fill="#495865"/>
<path d="M43.2259 20.3237H39.3512V24.1984H43.2259V20.3237Z" fill="#495865"/>
<path d="M47.1006 20.3237H43.2259V24.1984H47.1006V20.3237Z" fill="#495865"/>
<path d="M58.7247 20.3237H54.85V24.1984H58.7247V20.3237Z" fill="#495865"/>
<path d="M66.4741 20.3237H62.5994V24.1984H66.4741V20.3237Z" fill="#495865"/>
<path d="M70.3488 20.3237H66.4741V24.1984H70.3488V20.3237Z" fill="#495865"/>
<path d="M81.9729 20.3237H78.0982V24.1984H81.9729V20.3237Z" fill="#495865"/>
<path d="M89.7223 20.3237H85.8476V24.1984H89.7223V20.3237Z" fill="#495865"/>
<path d="M101.346 20.3237H97.4717V24.1984H101.346V20.3237Z" fill="#495865"/>
<path d="M109.096 20.3237H105.221V24.1984H109.096V20.3237Z" fill="#495865"/>
<path d="M112.971 20.3237H109.096V24.1984H112.971V20.3237Z" fill="#495865"/>
<path d="M124.595 20.3237H120.72V24.1984H124.595V20.3237Z" fill="#495865"/>
<path d="M136.219 20.3237H132.344V24.1984H136.219V20.3237Z" fill="#495865"/>
<path d="M159.467 20.3237H155.592V24.1984H159.467V20.3237Z" fill="#495865"/>
<path d="M4.47883 24.1984H0.604126V28.0731H4.47883V24.1984Z" fill="#495865"/>
<path d="M8.35353 24.1984H4.47883V28.0731H8.35353V24.1984Z" fill="#495865"/>
<path d="M12.2282 24.1984H8.35353V28.0731H12.2282V24.1984Z" fill="#495865"/>
<path d="M16.1029 24.1984H12.2282V28.0731H16.1029V24.1984Z" fill="#495865"/>
<path d="M19.9776 24.1984H16.1029V28.0731H19.9776V24.1984Z" fill="#495865"/>
<path d="M23.8523 24.1984H19.9776V28.0731H23.8523V24.1984Z" fill="#495865"/>
<path d="M27.727 24.1984H23.8523V28.0731H27.727V24.1984Z" fill="#495865"/>
<path d="M35.4765 24.1984H31.6018V28.0731H35.4765V24.1984Z" fill="#495865"/>
<path d="M43.2259 24.1984H39.3512V28.0731H43.2259V24.1984Z" fill="#495865"/>
<path d="M50.9753 24.1984H47.1006V28.0731H50.9753V24.1984Z" fill="#495865"/>
<path d="M58.7247 24.1984H54.85V28.0731H58.7247V24.1984Z" fill="#495865"/>
<path d="M66.4741 24.1984H62.5994V28.0731H66.4741V24.1984Z" fill="#495865"/>
<path d="M74.2235 24.1984H70.3488V28.0731H74.2235V24.1984Z" fill="#495865"/>
<path d="M81.9729 24.1984H78.0982V28.0731H81.9729V24.1984Z" fill="#495865"/>
<path d="M89.7223 24.1984H85.8476V28.0731H89.7223V24.1984Z" fill="#495865"/>
<path d="M97.4717 24.1984H93.597V28.0731H97.4717V24.1984Z" fill="#495865"/>
<path d="M105.221 24.1984H101.346V28.0731H105.221V24.1984Z" fill="#495865"/>
<path d="M112.971 24.1984H109.096V28.0731H112.971V24.1984Z" fill="#495865"/>
<path d="M120.72 24.1984H116.845V28.0731H120.72V24.1984Z" fill="#495865"/>
<path d="M128.469 24.1984H124.595V28.0731H128.469V24.1984Z" fill="#495865"/>
<path d="M136.219 24.1984H132.344V28.0731H136.219V24.1984Z" fill="#495865"/>
<path d="M140.093 24.1984H136.219V28.0731H140.093V24.1984Z" fill="#495865"/>
<path d="M143.968 24.1984H140.093V28.0731H143.968V24.1984Z" fill="#495865"/>
<path d="M147.843 24.1984H143.968V28.0731H147.843V24.1984Z" fill="#495865"/>
<path d="M151.718 24.1984H147.843V28.0731H151.718V24.1984Z" fill="#495865"/>
<path d="M155.592 24.1984H151.718V28.0731H155.592V24.1984Z" fill="#495865"/>
<path d="M159.467 24.1984H155.592V28.0731H159.467V24.1984Z" fill="#495865"/>
<path d="M35.4765 28.0731H31.6018V31.9478H35.4765V28.0731Z" fill="#495865"/>
<path d="M43.2259 28.0731H39.3512V31.9478H43.2259V28.0731Z" fill="#495865"/>
<path d="M47.1006 28.0731H43.2259V31.9478H47.1006V28.0731Z" fill="#495865"/>
<path d="M50.9753 28.0731H47.1006V31.9478H50.9753V28.0731Z" fill="#495865"/>
<path d="M54.85 28.0731H50.9753V31.9478H54.85V28.0731Z" fill="#495865"/>
<path d="M58.7247 28.0731H54.85V31.9478H58.7247V28.0731Z" fill="#495865"/>
<path d="M62.5994 28.0731H58.7247V31.9478H62.5994V28.0731Z" fill="#495865"/>
<path d="M70.3488 28.0731H66.4741V31.9478H70.3488V28.0731Z" fill="#495865"/>
<path d="M74.2235 28.0731H70.3488V31.9478H74.2235V28.0731Z" fill="#495865"/>
<path d="M78.0982 28.0731H74.2235V31.9478H78.0982V28.0731Z" fill="#495865"/>
<path d="M81.9729 28.0731H78.0982V31.9478H81.9729V28.0731Z" fill="#495865"/>
<path d="M97.4717 28.0731H93.597V31.9478H97.4717V28.0731Z" fill="#495865"/>
<path d="M105.221 28.0731H101.346V31.9478H105.221V28.0731Z" fill="#495865"/>
<path d="M112.971 28.0731H109.096V31.9478H112.971V28.0731Z" fill="#495865"/>
<path d="M116.845 28.0731H112.971V31.9478H116.845V28.0731Z" fill="#495865"/>
<path d="M4.47883 31.9478H0.604126V35.8225H4.47883V31.9478Z" fill="#495865"/>
<path d="M16.1029 31.9478H12.2282V35.8225H16.1029V31.9478Z" fill="#495865"/>
<path d="M19.9776 31.9478H16.1029V35.8225H19.9776V31.9478Z" fill="#495865"/>
<path d="M23.8523 31.9478H19.9776V35.8225H23.8523V31.9478Z" fill="#495865"/>
<path d="M27.727 31.9478H23.8523V35.8225H27.727V31.9478Z" fill="#495865"/>
<path d="M31.6018 31.9478H27.727V35.8225H31.6018V31.9478Z" fill="#495865"/>
<path d="M35.4765 31.9478H31.6018V35.8225H35.4765V31.9478Z" fill="#495865"/>
<path d="M39.3512 31.9478H35.4765V35.8225H39.3512V31.9478Z" fill="#495865"/>
<path d="M43.2259 31.9478H39.3512V35.8225H43.2259V31.9478Z" fill="#495865"/>
<path d="M70.3488 31.9478H66.4741V35.8225H70.3488V31.9478Z" fill="#495865"/>
<path d="M78.0982 31.9478H74.2235V35.8225H78.0982V31.9478Z" fill="#495865"/>
<path d="M81.9729 31.9478H78.0982V35.8225H81.9729V31.9478Z" fill="#495865"/>
<path d="M89.7223 31.9478H85.8476V35.8225H89.7223V31.9478Z" fill="#495865"/>
<path d="M93.597 31.9478H89.7223V35.8225H93.597V31.9478Z" fill="#495865"/>
<path d="M105.221 31.9478H101.346V35.8225H105.221V31.9478Z" fill="#495865"/>
<path d="M109.096 31.9478H105.221V35.8225H109.096V31.9478Z" fill="#495865"/>
<path d="M116.845 31.9478H112.971V35.8225H116.845V31.9478Z" fill="#495865"/>
<path d="M124.595 31.9478H120.72V35.8225H124.595V31.9478Z" fill="#495865"/>
<path d="M132.344 31.9478H128.469V35.8225H132.344V31.9478Z" fill="#495865"/>
<path d="M136.219 31.9478H132.344V35.8225H136.219V31.9478Z" fill="#495865"/>
<path d="M143.968 31.9478H140.093V35.8225H143.968V31.9478Z" fill="#495865"/>
<path d="M159.467 31.9478H155.592V35.8225H159.467V31.9478Z" fill="#495865"/>
<path d="M4.47883 35.8225H0.604126V39.6972H4.47883V35.8225Z" fill="#495865"/>
<path d="M8.35353 35.8225H4.47883V39.6972H8.35353V35.8225Z" fill="#495865"/>
<path d="M12.2282 35.8225H8.35353V39.6972H12.2282V35.8225Z" fill="#495865"/>
<path d="M19.9776 35.8225H16.1029L16.1029 39.6972H19.9776V35.8225Z" fill="#495865"/>
<path d="M35.4765 35.8225H31.6018V39.6972H35.4765V35.8225Z" fill="#495865"/>
<path d="M39.3512 35.8225H35.4765V39.6972H39.3512V35.8225Z" fill="#495865"/>
<path d="M47.1006 35.8225H43.2259V39.6972H47.1006V35.8225Z" fill="#495865"/>
<path d="M50.9753 35.8225H47.1006V39.6972H50.9753V35.8225Z" fill="#495865"/>
<path d="M54.85 35.8225H50.9753V39.6972H54.85V35.8225Z" fill="#495865"/>
<path d="M66.4741 35.8225H62.5994V39.6972H66.4741V35.8225Z" fill="#495865"/>
<path d="M70.3488 35.8225H66.4741V39.6972H70.3488V35.8225Z" fill="#495865"/>
<path d="M74.2235 35.8225H70.3488V39.6972H74.2235V35.8225Z" fill="#495865"/>
<path d="M78.0982 35.8225H74.2235V39.6972H78.0982V35.8225Z" fill="#495865"/>
<path d="M81.9729 35.8225H78.0982V39.6972H81.9729V35.8225Z" fill="#495865"/>
<path d="M93.597 35.8225H89.7223V39.6972H93.597V35.8225Z" fill="#495865"/>
<path d="M97.4717 35.8225H93.597V39.6972H97.4717V35.8225Z" fill="#495865"/>
<path d="M101.346 35.8225H97.4717V39.6972H101.346V35.8225Z" fill="#495865"/>
<path d="M105.221 35.8225H101.346V39.6972H105.221V35.8225Z" fill="#495865"/>
<path d="M109.096 35.8225H105.221V39.6972H109.096V35.8225Z" fill="#495865"/>
<path d="M112.971 35.8225H109.096V39.6972H112.971V35.8225Z" fill="#495865"/>
<path d="M159.467 35.8225H155.592V39.6972H159.467V35.8225Z" fill="#495865"/>
<path d="M8.35353 39.6972H4.47883V43.5719H8.35353V39.6972Z" fill="#495865"/>
<path d="M27.727 39.6972H23.8523V43.5719H27.727V39.6972Z" fill="#495865"/>
<path d="M31.6018 39.6972H27.727V43.5719H31.6018V39.6972Z" fill="#495865"/>
<path d="M35.4765 39.6972H31.6018V43.5719H35.4765V39.6972Z" fill="#495865"/>
<path d="M39.3512 39.6972H35.4765V43.5719H39.3512V39.6972Z" fill="#495865"/>
<path d="M47.1006 39.6972H43.2259V43.5719H47.1006V39.6972Z" fill="#495865"/>
<path d="M50.9753 39.6972H47.1006V43.5719H50.9753V39.6972Z" fill="#495865"/>
<path d="M66.4741 39.6972H62.5994V43.5719H66.4741V39.6972Z" fill="#495865"/>
<path d="M70.3488 39.6972H66.4741V43.5719H70.3488V39.6972Z" fill="#495865"/>
<path d="M81.9729 39.6972H78.0982V43.5719H81.9729V39.6972Z" fill="#495865"/>
<path d="M85.8476 39.6972H81.9729V43.5719H85.8476V39.6972Z" fill="#495865"/>
<path d="M89.7223 39.6972H85.8476V43.5719H89.7223V39.6972Z" fill="#495865"/>
<path d="M93.597 39.6972H89.7223V43.5719H93.597V39.6972Z" fill="#495865"/>
<path d="M97.4717 39.6972H93.597V43.5719H97.4717V39.6972Z" fill="#495865"/>
<path d="M109.096 39.6972H105.221V43.5719H109.096V39.6972Z" fill="#495865"/>
<path d="M112.971 39.6972H109.096V43.5719H112.971V39.6972Z" fill="#495865"/>
<path d="M116.845 39.6972H112.971V43.5719H116.845V39.6972Z" fill="#495865"/>
<path d="M132.344 39.6972H128.469V43.5719H132.344V39.6972Z" fill="#495865"/>
<path d="M136.219 39.6972H132.344V43.5719H136.219V39.6972Z" fill="#495865"/>
<path d="M159.467 39.6972H155.592V43.5719H159.467V39.6972Z" fill="#495865"/>
<path d="M8.35353 43.5719H4.47883V47.4466H8.35353V43.5719Z" fill="#495865"/>
<path d="M16.1029 43.5719H12.2282V47.4466H16.1029V43.5719Z" fill="#495865"/>
<path d="M19.9776 43.5719H16.1029V47.4466H19.9776V43.5719Z" fill="#495865"/>
<path d="M23.8523 43.5719H19.9776V47.4466H23.8523V43.5719Z" fill="#495865"/>
<path d="M39.3512 43.5719H35.4765V47.4466H39.3512V43.5719Z" fill="#495865"/>
<path d="M43.2259 43.5719H39.3512V47.4466H43.2259V43.5719Z" fill="#495865"/>
<path d="M54.85 43.5719H50.9753V47.4466H54.85V43.5719Z" fill="#495865"/>
<path d="M58.7247 43.5719H54.85V47.4466H58.7247V43.5719Z" fill="#495865"/>
<path d="M66.4741 43.5719H62.5994V47.4466H66.4741V43.5719Z" fill="#495865"/>
<path d="M74.2235 43.5719H70.3488V47.4466H74.2235V43.5719Z" fill="#495865"/>
<path d="M78.0982 43.5719H74.2235V47.4466H78.0982V43.5719Z" fill="#495865"/>
<path d="M81.9729 43.5719H78.0982V47.4466H81.9729V43.5719Z" fill="#495865"/>
<path d="M85.8476 43.5719H81.9729V47.4466H85.8476V43.5719Z" fill="#495865"/>
<path d="M93.597 43.5719H89.7223V47.4466H93.597V43.5719Z" fill="#495865"/>
<path d="M101.346 43.5719H97.4717V47.4466H101.346V43.5719Z" fill="#495865"/>
<path d="M105.221 43.5719H101.346V47.4466H105.221V43.5719Z" fill="#495865"/>
<path d="M109.096 43.5719H105.221V47.4466H109.096V43.5719Z" fill="#495865"/>
<path d="M112.971 43.5719H109.096V47.4466H112.971V43.5719Z" fill="#495865"/>
<path d="M128.469 43.5719H124.595V47.4466H128.469V43.5719Z" fill="#495865"/>
<path d="M143.968 43.5719H140.093V47.4466H143.968V43.5719Z" fill="#495865"/>
<path d="M151.718 43.5719H147.843V47.4466H151.718V43.5719Z" fill="#495865"/>
<path d="M155.592 43.5719H151.718V47.4466H155.592V43.5719Z" fill="#495865"/>
<path d="M159.467 43.5719H155.592V47.4466H159.467V43.5719Z" fill="#495865"/>
<path d="M16.1029 47.4466H12.2282V51.3213H16.1029V47.4466Z" fill="#495865"/>
<path d="M19.9776 47.4466H16.1029V51.3213H19.9776V47.4466Z" fill="#495865"/>
<path d="M23.8523 47.4466H19.9776V51.3213H23.8523V47.4466Z" fill="#495865"/>
<path d="M27.727 47.4466H23.8523V51.3213H27.727V47.4466Z" fill="#495865"/>
<path d="M31.6018 47.4466H27.727V51.3213H31.6018V47.4466Z" fill="#495865"/>
<path d="M47.1006 47.4466H43.2259V51.3213H47.1006V47.4466Z" fill="#495865"/>
<path d="M50.9753 47.4466H47.1006V51.3213H50.9753V47.4466Z" fill="#495865"/>
<path d="M54.85 47.4466H50.9753V51.3213H54.85V47.4466Z" fill="#495865"/>
<path d="M66.4741 47.4466H62.5994V51.3213H66.4741V47.4466Z" fill="#495865"/>
<path d="M74.2235 47.4466H70.3488V51.3213H74.2235V47.4466Z" fill="#495865"/>
<path d="M81.9729 47.4466H78.0982V51.3213H81.9729V47.4466Z" fill="#495865"/>
<path d="M85.8476 47.4466H81.9729V51.3213H85.8476V47.4466Z" fill="#495865"/>
<path d="M97.4717 47.4466H93.597V51.3213H97.4717V47.4466Z" fill="#495865"/>
<path d="M101.346 47.4466H97.4717V51.3213H101.346V47.4466Z" fill="#495865"/>
<path d="M105.221 47.4466H101.346V51.3213H105.221V47.4466Z" fill="#495865"/>
<path d="M112.971 47.4466H109.096V51.3213H112.971V47.4466Z" fill="#495865"/>
<path d="M116.845 47.4466H112.971V51.3213H116.845V47.4466Z" fill="#495865"/>
<path d="M124.595 47.4466H120.72V51.3213H124.595V47.4466Z" fill="#495865"/>
<path d="M136.219 47.4466H132.344V51.3213H136.219V47.4466Z" fill="#495865"/>
<path d="M140.093 47.4466H136.219V51.3213H140.093V47.4466Z" fill="#495865"/>
<path d="M155.592 47.4466H151.718V51.3213H155.592V47.4466Z" fill="#495865"/>
<path d="M23.8523 51.3213H19.9776V55.196H23.8523V51.3213Z" fill="#495865"/>
<path d="M43.2259 51.3213H39.3512V55.196H43.2259V51.3213Z" fill="#495865"/>
<path d="M47.1006 51.3213H43.2259V55.196H47.1006V51.3213Z" fill="#495865"/>
<path d="M50.9753 51.3213H47.1006V55.196H50.9753V51.3213Z" fill="#495865"/>
<path d="M54.85 51.3213H50.9753V55.196H54.85V51.3213Z" fill="#495865"/>
<path d="M58.7247 51.3213H54.85V55.196H58.7247V51.3213Z" fill="#495865"/>
<path d="M66.4741 51.3213H62.5994V55.196H66.4741V51.3213Z" fill="#495865"/>
<path d="M74.2235 51.3213H70.3488V55.196H74.2235V51.3213Z" fill="#495865"/>
<path d="M93.597 51.3213H89.7223V55.196H93.597V51.3213Z" fill="#495865"/>
<path d="M97.4717 51.3213H93.597V55.196H97.4717V51.3213Z" fill="#495865"/>
<path d="M109.096 51.3213H105.221V55.196H109.096V51.3213Z" fill="#495865"/>
<path d="M120.72 51.3213H116.845V55.196H120.72V51.3213Z" fill="#495865"/>
<path d="M124.595 51.3213H120.72V55.196H124.595V51.3213Z" fill="#495865"/>
<path d="M128.469 51.3213H124.595V55.196H128.469V51.3213Z" fill="#495865"/>
<path d="M140.093 51.3213H136.219V55.196H140.093V51.3213Z" fill="#495865"/>
<path d="M143.968 51.3213H140.093V55.196H143.968V51.3213Z" fill="#495865"/>
<path d="M147.843 51.3213H143.968V55.196H147.843V51.3213Z" fill="#495865"/>
<path d="M159.467 51.3213H155.592V55.196H159.467V51.3213Z" fill="#495865"/>
<path d="M16.1029 55.196H12.2282V59.0707H16.1029V55.196Z" fill="#495865"/>
<path d="M19.9776 55.196H16.1029V59.0707H19.9776V55.196Z" fill="#495865"/>
<path d="M23.8523 55.196H19.9776V59.0707H23.8523V55.196Z" fill="#495865"/>
<path d="M27.727 55.196H23.8523V59.0707H27.727V55.196Z" fill="#495865"/>
<path d="M35.4765 55.196H31.6018V59.0707H35.4765V55.196Z" fill="#495865"/>
<path d="M39.3512 55.196H35.4765V59.0707H39.3512V55.196Z" fill="#495865"/>
<path d="M43.2259 55.196H39.3512V59.0707H43.2259V55.196Z" fill="#495865"/>
<path d="M50.9753 55.196H47.1006V59.0707H50.9753V55.196Z" fill="#495865"/>
<path d="M62.5994 55.196H58.7247V59.0707H62.5994V55.196Z" fill="#495865"/>
<path d="M66.4741 55.196H62.5994V59.0707H66.4741V55.196Z" fill="#495865"/>
<path d="M70.3488 55.196H66.4741V59.0707H70.3488V55.196Z" fill="#495865"/>
<path d="M81.9729 55.196H78.0982V59.0707H81.9729V55.196Z" fill="#495865"/>
<path d="M85.8476 55.196H81.9729V59.0707H85.8476V55.196Z" fill="#495865"/>
<path d="M93.597 55.196H89.7223V59.0707H93.597V55.196Z" fill="#495865"/>
<path d="M101.346 55.196H97.4717V59.0707H101.346V55.196Z" fill="#495865"/>
<path d="M109.096 55.196H105.221V59.0707H109.096V55.196Z" fill="#495865"/>
<path d="M112.971 55.196H109.096V59.0707H112.971V55.196Z" fill="#495865"/>
<path d="M120.72 55.196H116.845V59.0707H120.72V55.196Z" fill="#495865"/>
<path d="M128.469 55.196H124.595V59.0707H128.469V55.196Z" fill="#495865"/>
<path d="M132.344 55.196H128.469V59.0707H132.344V55.196Z" fill="#495865"/>
<path d="M155.592 55.196H151.718V59.0707H155.592V55.196Z" fill="#495865"/>
<path d="M8.35353 59.0707H4.47883V62.9454H8.35353V59.0707Z" fill="#495865"/>
<path d="M16.1029 59.0707H12.2282V62.9454H16.1029V59.0707Z" fill="#495865"/>
<path d="M31.6018 59.0707H27.727V62.9454H31.6018V59.0707Z" fill="#495865"/>
<path d="M47.1006 59.0707H43.2259V62.9454H47.1006V59.0707Z" fill="#495865"/>
<path d="M66.4741 59.0707H62.5994V62.9454H66.4741V59.0707Z" fill="#495865"/>
<path d="M74.2235 59.0707H70.3488V62.9454H74.2235V59.0707Z" fill="#495865"/>
<path d="M109.096 59.0707H105.221V62.9454H109.096V59.0707Z" fill="#495865"/>
<path d="M112.971 59.0707H109.096V62.9454H112.971V59.0707Z" fill="#495865"/>
<path d="M116.845 59.0707H112.971V62.9454H116.845V59.0707Z" fill="#495865"/>
<path d="M120.72 59.0707H116.845V62.9454H120.72V59.0707Z" fill="#495865"/>
<path d="M136.219 59.0707H132.344V62.9454H136.219V59.0707Z" fill="#495865"/>
<path d="M147.843 59.0707H143.968V62.9454H147.843V59.0707Z" fill="#495865"/>
<path d="M151.718 59.0707H147.843V62.9454H151.718V59.0707Z" fill="#495865"/>
<path d="M159.467 59.0707H155.592V62.9454H159.467V59.0707Z" fill="#495865"/>
<path d="M4.47883 62.9454H0.604126V66.8201H4.47883V62.9454Z" fill="#495865"/>
<path d="M12.2282 62.9454H8.35353V66.8201H12.2282V62.9454Z" fill="#495865"/>
<path d="M16.1029 62.9454H12.2282V66.8201H16.1029V62.9454Z" fill="#495865"/>
<path d="M23.8523 62.9454H19.9776V66.8201H23.8523V62.9454Z" fill="#495865"/>
<path d="M27.727 62.9454H23.8523V66.8201H27.727V62.9454Z" fill="#495865"/>
<path d="M31.6018 62.9454H27.727V66.8201H31.6018V62.9454Z" fill="#495865"/>
<path d="M35.4765 62.9454H31.6018V66.8201H35.4765V62.9454Z" fill="#495865"/>
<path d="M47.1006 62.9454H43.2259V66.8201H47.1006V62.9454Z" fill="#495865"/>
<path d="M50.9753 62.9454H47.1006V66.8201H50.9753V62.9454Z" fill="#495865"/>
<path d="M62.5994 62.9454H58.7247V66.8201H62.5994V62.9454Z" fill="#495865"/>
<path d="M70.3488 62.9454H66.4741V66.8201H70.3488V62.9454Z" fill="#495865"/>
<path d="M89.7223 62.9454H85.8476V66.8201H89.7223V62.9454Z" fill="#495865"/>
<path d="M101.346 62.9454H97.4717V66.8201H101.346V62.9454Z" fill="#495865"/>
<path d="M105.221 62.9454H101.346V66.8201H105.221V62.9454Z" fill="#495865"/>
<path d="M109.096 62.9454H105.221V66.8201H109.096V62.9454Z" fill="#495865"/>
<path d="M116.845 62.9454H112.971V66.8201H116.845V62.9454Z" fill="#495865"/>
<path d="M128.469 62.9454H124.595V66.8201H128.469V62.9454Z" fill="#495865"/>
<path d="M132.344 62.9454H128.469V66.8201H132.344V62.9454Z" fill="#495865"/>
<path d="M140.093 62.9454H136.219V66.8201H140.093V62.9454Z" fill="#495865"/>
<path d="M147.843 62.9454H143.968V66.8201H147.843V62.9454Z" fill="#495865"/>
<path d="M155.592 62.9454H151.718V66.8201H155.592V62.9454Z" fill="#495865"/>
<path d="M159.467 62.9454H155.592V66.8201H159.467V62.9454Z" fill="#495865"/>
<path d="M4.47883 66.8201H0.604126V70.6948H4.47883V66.8201Z" fill="#495865"/>
<path d="M8.35353 66.8201H4.47883V70.6948H8.35353V66.8201Z" fill="#495865"/>
<path d="M16.1029 66.8201H12.2282V70.6948H16.1029V66.8201Z" fill="#495865"/>
<path d="M19.9776 66.8201H16.1029V70.6948H19.9776V66.8201Z" fill="#495865"/>
<path d="M23.8523 66.8201H19.9776V70.6948H23.8523V66.8201Z" fill="#495865"/>
<path d="M31.6018 66.8201H27.727V70.6948H31.6018V66.8201Z" fill="#495865"/>
<path d="M35.4765 66.8201H31.6018V70.6948H35.4765V66.8201Z" fill="#495865"/>
<path d="M43.2259 66.8201H39.3512V70.6948H43.2259V66.8201Z" fill="#495865"/>
<path d="M47.1006 66.8201H43.2259V70.6948H47.1006V66.8201Z" fill="#495865"/>
<path d="M50.9753 66.8201H47.1006V70.6948H50.9753V66.8201Z" fill="#495865"/>
<path d="M62.5994 66.8201H58.7247V70.6948H62.5994V66.8201Z" fill="#495865"/>
<path d="M66.4741 66.8201H62.5994V70.6948H66.4741V66.8201Z" fill="#495865"/>
<path d="M74.2235 66.8201H70.3488V70.6948H74.2235V66.8201Z" fill="#495865"/>
<path d="M78.0982 66.8201H74.2235V70.6948H78.0982V66.8201Z" fill="#495865"/>
<path d="M85.8476 66.8201H81.9729V70.6948H85.8476V66.8201Z" fill="#495865"/>
<path d="M89.7223 66.8201H85.8476V70.6948H89.7223V66.8201Z" fill="#495865"/>
<path d="M93.597 66.8201H89.7223V70.6948H93.597V66.8201Z" fill="#495865"/>
<path d="M97.4717 66.8201H93.597V70.6948H97.4717V66.8201Z" fill="#495865"/>
<path d="M101.346 66.8201H97.4717V70.6948H101.346V66.8201Z" fill="#495865"/>
<path d="M105.221 66.8201H101.346V70.6948H105.221V66.8201Z" fill="#495865"/>
<path d="M109.096 66.8201H105.221V70.6948H109.096V66.8201Z" fill="#495865"/>
<path d="M112.971 66.8201H109.096V70.6948H112.971V66.8201Z" fill="#495865"/>
<path d="M116.845 66.8201H112.971V70.6948H116.845V66.8201Z" fill="#495865"/>
<path d="M120.72 66.8201H116.845V70.6948H120.72V66.8201Z" fill="#495865"/>
<path d="M124.595 66.8201H120.72V70.6948H124.595V66.8201Z" fill="#495865"/>
<path d="M128.469 66.8201H124.595V70.6948H128.469V66.8201Z" fill="#495865"/>
<path d="M132.344 66.8201H128.469V70.6948H132.344V66.8201Z" fill="#495865"/>
<path d="M147.843 66.8201H143.968V70.6948H147.843V66.8201Z" fill="#495865"/>
<path d="M151.718 66.8201H147.843V70.6948H151.718V66.8201Z" fill="#495865"/>
<path d="M4.47883 70.6948H0.604126V74.5696H4.47883V70.6948Z" fill="#495865"/>
<path d="M16.1029 70.6948H12.2282V74.5696H16.1029V70.6948Z" fill="#495865"/>
<path d="M19.9776 70.6948H16.1029V74.5696H19.9776V70.6948Z" fill="#495865"/>
<path d="M27.727 70.6948H23.8523V74.5696H27.727V70.6948Z" fill="#495865"/>
<path d="M31.6018 70.6948H27.727V74.5696H31.6018V70.6948Z" fill="#495865"/>
<path d="M39.3512 70.6948H35.4765V74.5696H39.3512V70.6948Z" fill="#495865"/>
<path d="M43.2259 70.6948H39.3512V74.5696H43.2259V70.6948Z" fill="#495865"/>
<path d="M47.1006 70.6948H43.2259V74.5696H47.1006V70.6948Z" fill="#495865"/>
<path d="M50.9753 70.6948H47.1006V74.5696H50.9753V70.6948Z" fill="#495865"/>
<path d="M58.7247 70.6948H54.85V74.5696H58.7247V70.6948Z" fill="#495865"/>
<path d="M70.3488 70.6948H66.4741V74.5696H70.3488V70.6948Z" fill="#495865"/>
<path d="M78.0982 70.6948H74.2235V74.5696H78.0982V70.6948Z" fill="#495865"/>
<path d="M81.9729 70.6948H78.0982V74.5696H81.9729V70.6948Z" fill="#495865"/>
<path d="M89.7223 70.6948H85.8476V74.5696H89.7223V70.6948Z" fill="#495865"/>
<path d="M93.597 70.6948H89.7223V74.5696H93.597V70.6948Z" fill="#495865"/>
<path d="M97.4717 70.6948H93.597V74.5696H97.4717V70.6948Z" fill="#495865"/>
<path d="M101.346 70.6948H97.4717V74.5696H101.346V70.6948Z" fill="#495865"/>
<path d="M105.221 70.6948H101.346V74.5696H105.221V70.6948Z" fill="#495865"/>
<path d="M109.096 70.6948H105.221V74.5696H109.096V70.6948Z" fill="#495865"/>
<path d="M116.845 70.6948H112.971V74.5696H116.845V70.6948Z" fill="#495865"/>
<path d="M124.595 70.6948H120.72V74.5696H124.595V70.6948Z" fill="#495865"/>
<path d="M132.344 70.6948H128.469V74.5696H132.344V70.6948Z" fill="#495865"/>
<path d="M136.219 70.6948H132.344V74.5696H136.219V70.6948Z" fill="#495865"/>
<path d="M147.843 70.6948H143.968V74.5696H147.843V70.6948Z" fill="#495865"/>
<path d="M151.718 70.6948H147.843V74.5696H151.718V70.6948Z" fill="#495865"/>
<path d="M155.592 70.6948H151.718V74.5696H155.592V70.6948Z" fill="#495865"/>
<path d="M159.467 70.6948H155.592V74.5696H159.467V70.6948Z" fill="#495865"/>
<path d="M8.35353 74.5696H4.47883V78.4443H8.35353V74.5696Z" fill="#495865"/>
<path d="M23.8523 74.5696H19.9776V78.4443H23.8523V74.5696Z" fill="#495865"/>
<path d="M31.6018 74.5696H27.727V78.4443H31.6018V74.5696Z" fill="#495865"/>
<path d="M35.4765 74.5696H31.6018V78.4443H35.4765V74.5696Z" fill="#495865"/>
<path d="M47.1006 74.5696H43.2259V78.4443H47.1006V74.5696Z" fill="#495865"/>
<path d="M50.9753 74.5696H47.1006V78.4443H50.9753V74.5696Z" fill="#495865"/>
<path d="M54.85 74.5696H50.9753V78.4443H54.85V74.5696Z" fill="#495865"/>
<path d="M66.4741 74.5696H62.5994V78.4443H66.4741V74.5696Z" fill="#495865"/>
<path d="M81.9729 74.5696H78.0982V78.4443H81.9729V74.5696Z" fill="#495865"/>
<path d="M93.597 74.5696H89.7223V78.4443H93.597V74.5696Z" fill="#495865"/>
<path d="M97.4717 74.5696H93.597V78.4443H97.4717V74.5696Z" fill="#495865"/>
<path d="M109.096 74.5696H105.221V78.4443H109.096V74.5696Z" fill="#495865"/>
<path d="M116.845 74.5696H112.971V78.4443H116.845V74.5696Z" fill="#495865"/>
<path d="M124.595 74.5696H120.72V78.4443H124.595V74.5696Z" fill="#495865"/>
<path d="M128.469 74.5696H124.595V78.4443H128.469V74.5696Z" fill="#495865"/>
<path d="M143.968 74.5696H140.093V78.4443H143.968V74.5696Z" fill="#495865"/>
<path d="M159.467 74.5696H155.592V78.4443H159.467V74.5696Z" fill="#495865"/>
<path d="M4.47883 78.4443H0.604126V82.319H4.47883V78.4443Z" fill="#495865"/>
<path d="M8.35353 78.4443H4.47883V82.319H8.35353V78.4443Z" fill="#495865"/>
<path d="M12.2282 78.4443H8.35353V82.319H12.2282V78.4443Z" fill="#495865"/>
<path d="M27.727 78.4443H23.8523V82.319H27.727V78.4443Z" fill="#495865"/>
<path d="M35.4765 78.4443H31.6018V82.319H35.4765V78.4443Z" fill="#495865"/>
<path d="M43.2259 78.4443H39.3512V82.319H43.2259V78.4443Z" fill="#495865"/>
<path d="M50.9753 78.4443H47.1006V82.319H50.9753V78.4443Z" fill="#495865"/>
<path d="M54.85 78.4443H50.9753V82.319H54.85V78.4443Z" fill="#495865"/>
<path d="M62.5994 78.4443H58.7247V82.319H62.5994V78.4443Z" fill="#495865"/>
<path d="M74.2235 78.4443H70.3488V82.319H74.2235V78.4443Z" fill="#495865"/>
<path d="M78.0982 78.4443H74.2235V82.319H78.0982V78.4443Z" fill="#495865"/>
<path d="M81.9729 78.4443H78.0982V82.319H81.9729V78.4443Z" fill="#495865"/>
<path d="M97.4717 78.4443H93.597V82.319H97.4717V78.4443Z" fill="#495865"/>
<path d="M109.096 78.4443H105.221V82.319H109.096V78.4443Z" fill="#495865"/>
<path d="M112.971 78.4443H109.096V82.319H112.971V78.4443Z" fill="#495865"/>
<path d="M120.72 78.4443H116.845V82.319H120.72V78.4443Z" fill="#495865"/>
<path d="M128.469 78.4443H124.595V82.319H128.469V78.4443Z" fill="#495865"/>
<path d="M136.219 78.4443H132.344V82.319H136.219V78.4443Z" fill="#495865"/>
<path d="M140.093 78.4443H136.219V82.319H140.093V78.4443Z" fill="#495865"/>
<path d="M151.718 78.4443H147.843V82.319H151.718V78.4443Z" fill="#495865"/>
<path d="M155.592 78.4443H151.718V82.319H155.592V78.4443Z" fill="#495865"/>
<path d="M159.467 78.4443H155.592V82.319H159.467V78.4443Z" fill="#495865"/>
<path d="M8.35353 82.319H4.47883V86.1937H8.35353V82.319Z" fill="#495865"/>
<path d="M12.2282 82.319H8.35353V86.1937H12.2282V82.319Z" fill="#495865"/>
<path d="M16.1029 82.319H12.2282V86.1937H16.1029V82.319Z" fill="#495865"/>
<path d="M23.8523 82.319H19.9776V86.1937H23.8523V82.319Z" fill="#495865"/>
<path d="M31.6018 82.319H27.727V86.1937H31.6018V82.319Z" fill="#495865"/>
<path d="M35.4765 82.319H31.6018V86.1937H35.4765V82.319Z" fill="#495865"/>
<path d="M47.1006 82.319H43.2259V86.1937H47.1006V82.319Z" fill="#495865"/>
<path d="M50.9753 82.319H47.1006V86.1937H50.9753V82.319Z" fill="#495865"/>
<path d="M62.5994 82.319H58.7247V86.1937H62.5994V82.319Z" fill="#495865"/>
<path d="M66.4741 82.319H62.5994V86.1937H66.4741V82.319Z" fill="#495865"/>
<path d="M74.2235 82.319H70.3488V86.1937H74.2235V82.319Z" fill="#495865"/>
<path d="M78.0982 82.319H74.2235V86.1937H78.0982V82.319Z" fill="#495865"/>
<path d="M81.9729 82.319H78.0982V86.1937H81.9729V82.319Z" fill="#495865"/>
<path d="M89.7223 82.319H85.8476V86.1937H89.7223V82.319Z" fill="#495865"/>
<path d="M93.597 82.319H89.7223V86.1937H93.597V82.319Z" fill="#495865"/>
<path d="M97.4717 82.319H93.597V86.1937H97.4717V82.319Z" fill="#495865"/>
<path d="M101.346 82.319H97.4717V86.1937H101.346V82.319Z" fill="#495865"/>
<path d="M109.096 82.319H105.221V86.1937H109.096V82.319Z" fill="#495865"/>
<path d="M112.971 82.319H109.096V86.1937H112.971V82.319Z" fill="#495865"/>
<path d="M116.845 82.319H112.971V86.1937H116.845V82.319Z" fill="#495865"/>
<path d="M120.72 82.319H116.845V86.1937H120.72V82.319Z" fill="#495865"/>
<path d="M124.595 82.319H120.72V86.1937H124.595V82.319Z" fill="#495865"/>
<path d="M128.469 82.319H124.595V86.1937H128.469V82.319Z" fill="#495865"/>
<path d="M136.219 82.319H132.344V86.1937H136.219V82.319Z" fill="#495865"/>
<path d="M140.093 82.319H136.219V86.1937H140.093V82.319Z" fill="#495865"/>
<path d="M143.968 82.319H140.093V86.1937H143.968V82.319Z" fill="#495865"/>
<path d="M147.843 82.319H143.968V86.1937H147.843V82.319Z" fill="#495865"/>
<path d="M151.718 82.319H147.843V86.1937H151.718V82.319Z" fill="#495865"/>
<path d="M155.592 82.319H151.718V86.1937H155.592V82.319Z" fill="#495865"/>
<path d="M159.467 82.319H155.592V86.1937H159.467V82.319Z" fill="#495865"/>
<path d="M4.47883 86.1937H0.604126V90.0684H4.47883V86.1937Z" fill="#495865"/>
<path d="M27.727 86.1937H23.8523V90.0684H27.727V86.1937Z" fill="#495865"/>
<path d="M31.6018 86.1937H27.727V90.0684H31.6018V86.1937Z" fill="#495865"/>
<path d="M35.4765 86.1937H31.6018V90.0684H35.4765V86.1937Z" fill="#495865"/>
<path d="M43.2259 86.1937H39.3512V90.0684H43.2259V86.1937Z" fill="#495865"/>
<path d="M50.9753 86.1937H47.1006V90.0684H50.9753V86.1937Z" fill="#495865"/>
<path d="M58.7247 86.1937H54.85V90.0684H58.7247V86.1937Z" fill="#495865"/>
<path d="M66.4741 86.1937H62.5994V90.0684H66.4741V86.1937Z" fill="#495865"/>
<path d="M78.0982 86.1937H74.2235V90.0684H78.0982V86.1937Z" fill="#495865"/>
<path d="M89.7223 86.1937H85.8476V90.0684H89.7223V86.1937Z" fill="#495865"/>
<path d="M97.4717 86.1937H93.597V90.0684H97.4717V86.1937Z" fill="#495865"/>
<path d="M112.971 86.1937H109.096V90.0684H112.971V86.1937Z" fill="#495865"/>
<path d="M116.845 86.1937H112.971V90.0684H116.845V86.1937Z" fill="#495865"/>
<path d="M120.72 86.1937H116.845V90.0684H120.72V86.1937Z" fill="#495865"/>
<path d="M124.595 86.1937H120.72V90.0684H124.595V86.1937Z" fill="#495865"/>
<path d="M128.469 86.1937H124.595V90.0684H128.469V86.1937Z" fill="#495865"/>
<path d="M147.843 86.1937H143.968V90.0684H147.843V86.1937Z" fill="#495865"/>
<path d="M4.47883 90.0684H0.604126V93.9431H4.47883V90.0684Z" fill="#495865"/>
<path d="M19.9776 90.0684H16.1029V93.9431H19.9776V90.0684Z" fill="#495865"/>
<path d="M35.4765 90.0684H31.6018V93.9431H35.4765V90.0684Z" fill="#495865"/>
<path d="M39.3512 90.0684H35.4765V93.9431H39.3512V90.0684Z" fill="#495865"/>
<path d="M43.2259 90.0684H39.3512V93.9431H43.2259V90.0684Z" fill="#495865"/>
<path d="M54.85 90.0684H50.9753V93.9431H54.85V90.0684Z" fill="#495865"/>
<path d="M58.7247 90.0684H54.85V93.9431H58.7247V90.0684Z" fill="#495865"/>
<path d="M62.5994 90.0684H58.7247V93.9431H62.5994V90.0684Z" fill="#495865"/>
<path d="M74.2235 90.0684H70.3488V93.9431H74.2235V90.0684Z" fill="#495865"/>
<path d="M78.0982 90.0684H74.2235V93.9431H78.0982V90.0684Z" fill="#495865"/>
<path d="M89.7223 90.0684H85.8476V93.9431H89.7223V90.0684Z" fill="#495865"/>
<path d="M93.597 90.0684H89.7223V93.9431H93.597V90.0684Z" fill="#495865"/>
<path d="M97.4717 90.0684H93.597V93.9431H97.4717V90.0684Z" fill="#495865"/>
<path d="M101.346 90.0684H97.4717V93.9431H101.346V90.0684Z" fill="#495865"/>
<path d="M105.221 90.0684H101.346V93.9431H105.221V90.0684Z" fill="#495865"/>
<path d="M109.096 90.0684H105.221V93.9431H109.096V90.0684Z" fill="#495865"/>
<path d="M116.845 90.0684H112.971V93.9431H116.845V90.0684Z" fill="#495865"/>
<path d="M120.72 90.0684H116.845V93.9431H120.72V90.0684Z" fill="#495865"/>
<path d="M132.344 90.0684H128.469V93.9431H132.344V90.0684Z" fill="#495865"/>
<path d="M136.219 90.0684H132.344V93.9431H136.219V90.0684Z" fill="#495865"/>
<path d="M147.843 90.0684H143.968V93.9431H147.843V90.0684Z" fill="#495865"/>
<path d="M151.718 90.0684H147.843V93.9431H151.718V90.0684Z" fill="#495865"/>
<path d="M155.592 90.0684H151.718V93.9431H155.592V90.0684Z" fill="#495865"/>
<path d="M12.2282 93.9431H8.35353V97.8178H12.2282V93.9431Z" fill="#495865"/>
<path d="M16.1029 93.9431H12.2282V97.8178H16.1029L16.1029 93.9431Z" fill="#495865"/>
<path d="M27.727 93.9431H23.8523V97.8178H27.727V93.9431Z" fill="#495865"/>
<path d="M31.6018 93.9431H27.727V97.8178H31.6018V93.9431Z" fill="#495865"/>
<path d="M43.2259 93.9431H39.3512V97.8178H43.2259V93.9431Z" fill="#495865"/>
<path d="M47.1006 93.9431H43.2259V97.8178H47.1006V93.9431Z" fill="#495865"/>
<path d="M54.85 93.9431H50.9753V97.8178H54.85V93.9431Z" fill="#495865"/>
<path d="M58.7247 93.9431H54.85V97.8178H58.7247V93.9431Z" fill="#495865"/>
<path d="M62.5994 93.9431H58.7247V97.8178H62.5994V93.9431Z" fill="#495865"/>
<path d="M74.2235 93.9431H70.3488V97.8178H74.2235V93.9431Z" fill="#495865"/>
<path d="M78.0982 93.9431H74.2235V97.8178H78.0982V93.9431Z" fill="#495865"/>
<path d="M89.7223 93.9431H85.8476V97.8178H89.7223V93.9431Z" fill="#495865"/>
<path d="M93.597 93.9431H89.7223V97.8178H93.597V93.9431Z" fill="#495865"/>
<path d="M97.4717 93.9431H93.597V97.8178H97.4717V93.9431Z" fill="#495865"/>
<path d="M105.221 93.9431H101.346V97.8178H105.221V93.9431Z" fill="#495865"/>
<path d="M112.971 93.9431H109.096V97.8178H112.971V93.9431Z" fill="#495865"/>
<path d="M116.845 93.9431H112.971V97.8178H116.845V93.9431Z" fill="#495865"/>
<path d="M120.72 93.9431H116.845V97.8178H120.72V93.9431Z" fill="#495865"/>
<path d="M124.595 93.9431H120.72V97.8178H124.595V93.9431Z" fill="#495865"/>
<path d="M128.469 93.9431H124.595V97.8178H128.469V93.9431Z" fill="#495865"/>
<path d="M143.968 93.9431H140.093V97.8178H143.968V93.9431Z" fill="#495865"/>
<path d="M155.592 93.9431H151.718V97.8178H155.592V93.9431Z" fill="#495865"/>
<path d="M159.467 93.9431H155.592V97.8178H159.467V93.9431Z" fill="#495865"/>
<path d="M4.47883 97.8178H0.604126V101.692H4.47883V97.8178Z" fill="#495865"/>
<path d="M16.1029 97.8178H12.2282V101.692H16.1029V97.8178Z" fill="#495865"/>
<path d="M43.2259 97.8178H39.3512V101.692H43.2259V97.8178Z" fill="#495865"/>
<path d="M81.9729 97.8178H78.0982V101.692H81.9729V97.8178Z" fill="#495865"/>
<path d="M85.8476 97.8178H81.9729V101.692H85.8476V97.8178Z" fill="#495865"/>
<path d="M89.7223 97.8178H85.8476V101.692H89.7223V97.8178Z" fill="#495865"/>
<path d="M101.346 97.8178H97.4717V101.692H101.346V97.8178Z" fill="#495865"/>
<path d="M116.845 97.8178H112.971V101.692H116.845V97.8178Z" fill="#495865"/>
<path d="M147.843 97.8178H143.968V101.692H147.843V97.8178Z" fill="#495865"/>
<path d="M4.47883 101.692H0.604126V105.567H4.47883V101.692Z" fill="#495865"/>
<path d="M16.1029 101.692H12.2282V105.567H16.1029V101.692Z" fill="#495865"/>
<path d="M19.9776 101.692H16.1029V105.567H19.9776V101.692Z" fill="#495865"/>
<path d="M27.727 101.692H23.8523V105.567H27.727V101.692Z" fill="#495865"/>
<path d="M43.2259 101.692H39.3512V105.567H43.2259V101.692Z" fill="#495865"/>
<path d="M47.1006 101.692H43.2259V105.567H47.1006V101.692Z" fill="#495865"/>
<path d="M70.3488 101.692H66.4741V105.567H70.3488V101.692Z" fill="#495865"/>
<path d="M78.0982 101.692H74.2235V105.567H78.0982V101.692Z" fill="#495865"/>
<path d="M85.8476 101.692H81.9729V105.567H85.8476V101.692Z" fill="#495865"/>
<path d="M93.597 101.692H89.7223V105.567H93.597V101.692Z" fill="#495865"/>
<path d="M105.221 101.692H101.346V105.567H105.221V101.692Z" fill="#495865"/>
<path d="M109.096 101.692H105.221V105.567H109.096V101.692Z" fill="#495865"/>
<path d="M124.595 101.692H120.72V105.567H124.595V101.692Z" fill="#495865"/>
<path d="M136.219 101.692H132.344V105.567H136.219V101.692Z" fill="#495865"/>
<path d="M140.093 101.692H136.219V105.567H140.093V101.692Z" fill="#495865"/>
<path d="M151.718 101.692H147.843V105.567H151.718V101.692Z" fill="#495865"/>
<path d="M4.47883 105.567H0.604126V109.442H4.47883V105.567Z" fill="#495865"/>
<path d="M16.1029 105.567H12.2282V109.442H16.1029V105.567Z" fill="#495865"/>
<path d="M19.9776 105.567H16.1029V109.442H19.9776V105.567Z" fill="#495865"/>
<path d="M35.4765 105.567H31.6018V109.442H35.4765V105.567Z" fill="#495865"/>
<path d="M39.3512 105.567H35.4765V109.442H39.3512V105.567Z" fill="#495865"/>
<path d="M43.2259 105.567H39.3512V109.442H43.2259V105.567Z" fill="#495865"/>
<path d="M47.1006 105.567H43.2259V109.442H47.1006V105.567Z" fill="#495865"/>
<path d="M50.9753 105.567H47.1006V109.442H50.9753V105.567Z" fill="#495865"/>
<path d="M58.7247 105.567H54.85V109.442H58.7247V105.567Z" fill="#495865"/>
<path d="M62.5994 105.567H58.7247V109.442H62.5994V105.567Z" fill="#495865"/>
<path d="M70.3488 105.567H66.4741V109.442H70.3488V105.567Z" fill="#495865"/>
<path d="M74.2235 105.567H70.3488V109.442H74.2235V105.567Z" fill="#495865"/>
<path d="M81.9729 105.567H78.0982V109.442H81.9729V105.567Z" fill="#495865"/>
<path d="M85.8476 105.567H81.9729V109.442H85.8476V105.567Z" fill="#495865"/>
<path d="M89.7223 105.567H85.8476V109.442H89.7223V105.567Z" fill="#495865"/>
<path d="M101.346 105.567H97.4717V109.442H101.346V105.567Z" fill="#495865"/>
<path d="M105.221 105.567H101.346V109.442H105.221V105.567Z" fill="#495865"/>
<path d="M112.971 105.567H109.096V109.442H112.971V105.567Z" fill="#495865"/>
<path d="M120.72 105.567H116.845V109.442H120.72V105.567Z" fill="#495865"/>
<path d="M124.595 105.567H120.72V109.442H124.595V105.567Z" fill="#495865"/>
<path d="M128.469 105.567H124.595V109.442H128.469V105.567Z" fill="#495865"/>
<path d="M136.219 105.567H132.344V109.442H136.219V105.567Z" fill="#495865"/>
<path d="M143.968 105.567H140.093V109.442H143.968V105.567Z" fill="#495865"/>
<path d="M151.718 105.567H147.843V109.442H151.718V105.567Z" fill="#495865"/>
<path d="M159.467 105.567H155.592V109.442H159.467V105.567Z" fill="#495865"/>
<path d="M4.47883 109.442H0.604126V113.317H4.47883V109.442Z" fill="#495865"/>
<path d="M8.35353 109.442H4.47883V113.317H8.35353V109.442Z" fill="#495865"/>
<path d="M12.2282 109.442H8.35353V113.317H12.2282V109.442Z" fill="#495865"/>
<path d="M23.8523 109.442H19.9776V113.317H23.8523V109.442Z" fill="#495865"/>
<path d="M27.727 109.442H23.8523V113.317H27.727V109.442Z" fill="#495865"/>
<path d="M39.3512 109.442H35.4765V113.317H39.3512V109.442Z" fill="#495865"/>
<path d="M47.1006 109.442H43.2259V113.317H47.1006V109.442Z" fill="#495865"/>
<path d="M54.85 109.442H50.9753V113.317H54.85V109.442Z" fill="#495865"/>
<path d="M58.7247 109.442H54.85V113.317H58.7247V109.442Z" fill="#495865"/>
<path d="M66.4741 109.442H62.5994V113.317H66.4741V109.442Z" fill="#495865"/>
<path d="M70.3488 109.442H66.4741V113.317H70.3488V109.442Z" fill="#495865"/>
<path d="M89.7223 109.442H85.8476V113.317H89.7223V109.442Z" fill="#495865"/>
<path d="M93.597 109.442H89.7223V113.317H93.597V109.442Z" fill="#495865"/>
<path d="M101.346 109.442H97.4717V113.317H101.346V109.442Z" fill="#495865"/>
<path d="M105.221 109.442H101.346V113.317H105.221V109.442Z" fill="#495865"/>
<path d="M112.971 109.442H109.096V113.317H112.971V109.442Z" fill="#495865"/>
<path d="M116.845 109.442H112.971V113.317H116.845V109.442Z" fill="#495865"/>
<path d="M128.469 109.442H124.595V113.317H128.469V109.442Z" fill="#495865"/>
<path d="M132.344 109.442H128.469V113.317H132.344V109.442Z" fill="#495865"/>
<path d="M136.219 109.442H132.344V113.317H136.219V109.442Z" fill="#495865"/>
<path d="M143.968 109.442H140.093V113.317H143.968V109.442Z" fill="#495865"/>
<path d="M147.843 109.442H143.968V113.317H147.843V109.442Z" fill="#495865"/>
<path d="M8.35353 113.317H4.47883V117.191H8.35353V113.317Z" fill="#495865"/>
<path d="M12.2282 113.317H8.35353V117.191H12.2282V113.317Z" fill="#495865"/>
<path d="M16.1029 113.317H12.2282V117.191H16.1029V113.317Z" fill="#495865"/>
<path d="M23.8523 113.317H19.9776V117.191H23.8523V113.317Z" fill="#495865"/>
<path d="M31.6018 113.317H27.727V117.191H31.6018V113.317Z" fill="#495865"/>
<path d="M35.4765 113.317H31.6018V117.191H35.4765V113.317Z" fill="#495865"/>
<path d="M47.1006 113.317H43.2259V117.191H47.1006V113.317Z" fill="#495865"/>
<path d="M50.9753 113.317H47.1006V117.191H50.9753V113.317Z" fill="#495865"/>
<path d="M58.7247 113.317H54.85V117.191H58.7247V113.317Z" fill="#495865"/>
<path d="M62.5994 113.317H58.7247V117.191H62.5994V113.317Z" fill="#495865"/>
<path d="M66.4741 113.317H62.5994V117.191H66.4741V113.317Z" fill="#495865"/>
<path d="M78.0982 113.317H74.2235V117.191H78.0982V113.317Z" fill="#495865"/>
<path d="M81.9729 113.317H78.0982V117.191H81.9729V113.317Z" fill="#495865"/>
<path d="M93.597 113.317H89.7223V117.191H93.597V113.317Z" fill="#495865"/>
<path d="M97.4717 113.317H93.597V117.191H97.4717V113.317Z" fill="#495865"/>
<path d="M109.096 113.317H105.221V117.191H109.096V113.317Z" fill="#495865"/>
<path d="M112.971 113.317H109.096V117.191H112.971V113.317Z" fill="#495865"/>
<path d="M116.845 113.317H112.971V117.191H116.845V113.317Z" fill="#495865"/>
<path d="M124.595 113.317H120.72V117.191H124.595V113.317Z" fill="#495865"/>
<path d="M128.469 113.317H124.595V117.191H128.469V113.317Z" fill="#495865"/>
<path d="M132.344 113.317H128.469V117.191H132.344V113.317Z" fill="#495865"/>
<path d="M136.219 113.317H132.344V117.191H136.219V113.317Z" fill="#495865"/>
<path d="M140.093 113.317H136.219V117.191H140.093V113.317Z" fill="#495865"/>
<path d="M155.592 113.317H151.718V117.191H155.592V113.317Z" fill="#495865"/>
<path d="M159.467 113.317H155.592V117.191H159.467V113.317Z" fill="#495865"/>
<path d="M12.2282 117.191H8.35353V121.066H12.2282V117.191Z" fill="#495865"/>
<path d="M16.1029 117.191H12.2282V121.066H16.1029V117.191Z" fill="#495865"/>
<path d="M27.727 117.191H23.8523V121.066H27.727V117.191Z" fill="#495865"/>
<path d="M31.6018 117.191H27.727V121.066H31.6018V117.191Z" fill="#495865"/>
<path d="M47.1006 117.191H43.2259V121.066H47.1006V117.191Z" fill="#495865"/>
<path d="M50.9753 117.191H47.1006V121.066H50.9753V117.191Z" fill="#495865"/>
<path d="M58.7247 117.191H54.85V121.066H58.7247V117.191Z" fill="#495865"/>
<path d="M70.3488 117.191H66.4741V121.066H70.3488V117.191Z" fill="#495865"/>
<path d="M74.2235 117.191H70.3488V121.066H74.2235V117.191Z" fill="#495865"/>
<path d="M85.8476 117.191H81.9729V121.066H85.8476V117.191Z" fill="#495865"/>
<path d="M89.7223 117.191H85.8476V121.066H89.7223V117.191Z" fill="#495865"/>
<path d="M93.597 117.191H89.7223V121.066H93.597V117.191Z" fill="#495865"/>
<path d="M105.221 117.191H101.346V121.066H105.221V117.191Z" fill="#495865"/>
<path d="M116.845 117.191H112.971V121.066H116.845V117.191Z" fill="#495865"/>
<path d="M120.72 117.191H116.845V121.066H120.72V117.191Z" fill="#495865"/>
<path d="M124.595 117.191H120.72V121.066H124.595V117.191Z" fill="#495865"/>
<path d="M132.344 117.191H128.469V121.066H132.344V117.191Z" fill="#495865"/>
<path d="M147.843 117.191H143.968V121.066H147.843V117.191Z" fill="#495865"/>
<path d="M151.718 117.191H147.843V121.066H151.718V117.191Z" fill="#495865"/>
<path d="M155.592 117.191H151.718V121.066H155.592V117.191Z" fill="#495865"/>
<path d="M159.467 117.191H155.592V121.066H159.467V117.191Z" fill="#495865"/>
<path d="M8.35353 121.066H4.47883V124.941H8.35353V121.066Z" fill="#495865"/>
<path d="M19.9776 121.066H16.1029L16.1029 124.941H19.9776V121.066Z" fill="#495865"/>
<path d="M23.8523 121.066H19.9776V124.941H23.8523V121.066Z" fill="#495865"/>
<path d="M35.4765 121.066H31.6018V124.941H35.4765V121.066Z" fill="#495865"/>
<path d="M47.1006 121.066H43.2259V124.941H47.1006V121.066Z" fill="#495865"/>
<path d="M54.85 121.066H50.9753V124.941H54.85V121.066Z" fill="#495865"/>
<path d="M62.5994 121.066H58.7247V124.941H62.5994V121.066Z" fill="#495865"/>
<path d="M81.9729 121.066H78.0982V124.941H81.9729V121.066Z" fill="#495865"/>
<path d="M93.597 121.066H89.7223V124.941H93.597V121.066Z" fill="#495865"/>
<path d="M97.4717 121.066H93.597V124.941H97.4717V121.066Z" fill="#495865"/>
<path d="M109.096 121.066H105.221V124.941H109.096V121.066Z" fill="#495865"/>
<path d="M116.845 121.066H112.971V124.941H116.845V121.066Z" fill="#495865"/>
<path d="M136.219 121.066H132.344V124.941H136.219V121.066Z" fill="#495865"/>
<path d="M140.093 121.066H136.219V124.941H140.093V121.066Z" fill="#495865"/>
<path d="M143.968 121.066H140.093V124.941H143.968V121.066Z" fill="#495865"/>
<path d="M147.843 121.066H143.968V124.941H147.843V121.066Z" fill="#495865"/>
<path d="M8.35353 124.941H4.47883V128.815H8.35353V124.941Z" fill="#495865"/>
<path d="M12.2282 124.941H8.35353V128.815H12.2282V124.941Z" fill="#495865"/>
<path d="M16.1029 124.941H12.2282V128.815H16.1029L16.1029 124.941Z" fill="#495865"/>
<path d="M27.727 124.941H23.8523V128.815H27.727V124.941Z" fill="#495865"/>
<path d="M31.6018 124.941H27.727V128.815H31.6018V124.941Z" fill="#495865"/>
<path d="M43.2259 124.941H39.3512V128.815H43.2259V124.941Z" fill="#495865"/>
<path d="M47.1006 124.941H43.2259V128.815H47.1006V124.941Z" fill="#495865"/>
<path d="M74.2235 124.941H70.3488V128.815H74.2235V124.941Z" fill="#495865"/>
<path d="M78.0982 124.941H74.2235V128.815H78.0982V124.941Z" fill="#495865"/>
<path d="M85.8476 124.941H81.9729V128.815H85.8476V124.941Z" fill="#495865"/>
<path d="M93.597 124.941H89.7223V128.815H93.597V124.941Z" fill="#495865"/>
<path d="M97.4717 124.941H93.597V128.815H97.4717V124.941Z" fill="#495865"/>
<path d="M101.346 124.941H97.4717V128.815H101.346V124.941Z" fill="#495865"/>
<path d="M105.221 124.941H101.346V128.815H105.221V124.941Z" fill="#495865"/>
<path d="M109.096 124.941H105.221V128.815H109.096V124.941Z" fill="#495865"/>
<path d="M120.72 124.941H116.845V128.815H120.72V124.941Z" fill="#495865"/>
<path d="M124.595 124.941H120.72V128.815H124.595V124.941Z" fill="#495865"/>
<path d="M128.469 124.941H124.595V128.815H128.469V124.941Z" fill="#495865"/>
<path d="M132.344 124.941H128.469V128.815H132.344V124.941Z" fill="#495865"/>
<path d="M136.219 124.941H132.344V128.815H136.219V124.941Z" fill="#495865"/>
<path d="M140.093 124.941H136.219V128.815H140.093V124.941Z" fill="#495865"/>
<path d="M143.968 124.941H140.093V128.815H143.968V124.941Z" fill="#495865"/>
<path d="M155.592 124.941H151.718V128.815H155.592V124.941Z" fill="#495865"/>
<path d="M159.467 124.941H155.592V128.815H159.467V124.941Z" fill="#495865"/>
<path d="M35.4765 128.815H31.6018V132.69H35.4765V128.815Z" fill="#495865"/>
<path d="M39.3512 128.815H35.4765V132.69H39.3512V128.815Z" fill="#495865"/>
<path d="M47.1006 128.815H43.2259V132.69H47.1006V128.815Z" fill="#495865"/>
<path d="M50.9753 128.815H47.1006V132.69H50.9753V128.815Z" fill="#495865"/>
<path d="M58.7247 128.815H54.85V132.69H58.7247V128.815Z" fill="#495865"/>
<path d="M70.3488 128.815H66.4741V132.69H70.3488V128.815Z" fill="#495865"/>
<path d="M81.9729 128.815H78.0982V132.69H81.9729V128.815Z" fill="#495865"/>
<path d="M85.8476 128.815H81.9729V132.69H85.8476V128.815Z" fill="#495865"/>
<path d="M97.4717 128.815H93.597V132.69H97.4717V128.815Z" fill="#495865"/>
<path d="M109.096 128.815H105.221V132.69H109.096V128.815Z" fill="#495865"/>
<path d="M112.971 128.815H109.096V132.69H112.971V128.815Z" fill="#495865"/>
<path d="M120.72 128.815H116.845V132.69H120.72V128.815Z" fill="#495865"/>
<path d="M124.595 128.815H120.72V132.69H124.595V128.815Z" fill="#495865"/>
<path d="M128.469 128.815H124.595V132.69H128.469V128.815Z" fill="#495865"/>
<path d="M143.968 128.815H140.093V132.69H143.968V128.815Z" fill="#495865"/>
<path d="M151.718 128.815H147.843V132.69H151.718V128.815Z" fill="#495865"/>
<path d="M155.592 128.815H151.718V132.69H155.592V128.815Z" fill="#495865"/>
<path d="M4.47883 132.69H0.604126V136.565H4.47883V132.69Z" fill="#495865"/>
<path d="M8.35353 132.69H4.47883V136.565H8.35353V132.69Z" fill="#495865"/>
<path d="M12.2282 132.69H8.35353V136.565H12.2282V132.69Z" fill="#495865"/>
<path d="M16.1029 132.69H12.2282V136.565H16.1029V132.69Z" fill="#495865"/>
<path d="M19.9776 132.69H16.1029V136.565H19.9776V132.69Z" fill="#495865"/>
<path d="M23.8523 132.69H19.9776V136.565H23.8523V132.69Z" fill="#495865"/>
<path d="M27.727 132.69H23.8523V136.565H27.727V132.69Z" fill="#495865"/>
<path d="M35.4765 132.69H31.6018V136.565H35.4765V132.69Z" fill="#495865"/>
<path d="M43.2259 132.69H39.3512V136.565H43.2259V132.69Z" fill="#495865"/>
<path d="M47.1006 132.69H43.2259V136.565H47.1006V132.69Z" fill="#495865"/>
<path d="M54.85 132.69H50.9753V136.565H54.85V132.69Z" fill="#495865"/>
<path d="M58.7247 132.69H54.85V136.565H58.7247V132.69Z" fill="#495865"/>
<path d="M70.3488 132.69H66.4741V136.565H70.3488V132.69Z" fill="#495865"/>
<path d="M85.8476 132.69H81.9729V136.565H85.8476V132.69Z" fill="#495865"/>
<path d="M101.346 132.69H97.4717V136.565H101.346V132.69Z" fill="#495865"/>
<path d="M105.221 132.69H101.346V136.565H105.221V132.69Z" fill="#495865"/>
<path d="M109.096 132.69H105.221V136.565H109.096V132.69Z" fill="#495865"/>
<path d="M116.845 132.69H112.971V136.565H116.845V132.69Z" fill="#495865"/>
<path d="M128.469 132.69H124.595V136.565H128.469V132.69Z" fill="#495865"/>
<path d="M136.219 132.69H132.344V136.565H136.219V132.69Z" fill="#495865"/>
<path d="M143.968 132.69H140.093V136.565H143.968V132.69Z" fill="#495865"/>
<path d="M155.592 132.69H151.718V136.565H155.592V132.69Z" fill="#495865"/>
<path d="M4.47883 136.565H0.604126V140.44H4.47883V136.565Z" fill="#495865"/>
<path d="M27.727 136.565H23.8523V140.44H27.727V136.565Z" fill="#495865"/>
<path d="M35.4765 136.565H31.6018V140.44H35.4765V136.565Z" fill="#495865"/>
<path d="M39.3512 136.565H35.4765V140.44H39.3512V136.565Z" fill="#495865"/>
<path d="M43.2259 136.565H39.3512V140.44H43.2259V136.565Z" fill="#495865"/>
<path d="M47.1006 136.565H43.2259V140.44H47.1006V136.565Z" fill="#495865"/>
<path d="M54.85 136.565H50.9753V140.44H54.85V136.565Z" fill="#495865"/>
<path d="M58.7247 136.565H54.85V140.44H58.7247V136.565Z" fill="#495865"/>
<path d="M62.5994 136.565H58.7247V140.44H62.5994V136.565Z" fill="#495865"/>
<path d="M66.4741 136.565H62.5994V140.44H66.4741V136.565Z" fill="#495865"/>
<path d="M70.3488 136.565H66.4741V140.44H70.3488V136.565Z" fill="#495865"/>
<path d="M74.2235 136.565H70.3488V140.44H74.2235V136.565Z" fill="#495865"/>
<path d="M78.0982 136.565H74.2235V140.44H78.0982V136.565Z" fill="#495865"/>
<path d="M85.8476 136.565H81.9729V140.44H85.8476V136.565Z" fill="#495865"/>
<path d="M101.346 136.565H97.4717V140.44H101.346V136.565Z" fill="#495865"/>
<path d="M116.845 136.565H112.971V140.44H116.845V136.565Z" fill="#495865"/>
<path d="M120.72 136.565H116.845V140.44H120.72V136.565Z" fill="#495865"/>
<path d="M128.469 136.565H124.595V140.44H128.469V136.565Z" fill="#495865"/>
<path d="M143.968 136.565H140.093V140.44H143.968V136.565Z" fill="#495865"/>
<path d="M147.843 136.565H143.968V140.44H147.843V136.565Z" fill="#495865"/>
<path d="M155.592 136.565H151.718V140.44H155.592V136.565Z" fill="#495865"/>
<path d="M159.467 136.565H155.592V140.44H159.467V136.565Z" fill="#495865"/>
<path d="M4.47883 140.44H0.604126V144.314H4.47883V140.44Z" fill="#495865"/>
<path d="M12.2282 140.44H8.35353V144.314H12.2282V140.44Z" fill="#495865"/>
<path d="M16.1029 140.44H12.2282V144.314H16.1029V140.44Z" fill="#495865"/>
<path d="M19.9776 140.44H16.1029V144.314H19.9776V140.44Z" fill="#495865"/>
<path d="M27.727 140.44H23.8523V144.314H27.727V140.44Z" fill="#495865"/>
<path d="M35.4765 140.44H31.6018V144.314H35.4765V140.44Z" fill="#495865"/>
<path d="M39.3512 140.44H35.4765V144.314H39.3512V140.44Z" fill="#495865"/>
<path d="M43.2259 140.44H39.3512V144.314H43.2259V140.44Z" fill="#495865"/>
<path d="M54.85 140.44H50.9753V144.314H54.85V140.44Z" fill="#495865"/>
<path d="M58.7247 140.44H54.85V144.314H58.7247V140.44Z" fill="#495865"/>
<path d="M70.3488 140.44H66.4741V144.314H70.3488V140.44Z" fill="#495865"/>
<path d="M81.9729 140.44H78.0982V144.314H81.9729V140.44Z" fill="#495865"/>
<path d="M85.8476 140.44H81.9729V144.314H85.8476V140.44Z" fill="#495865"/>
<path d="M89.7223 140.44H85.8476V144.314H89.7223V140.44Z" fill="#495865"/>
<path d="M93.597 140.44H89.7223V144.314H93.597V140.44Z" fill="#495865"/>
<path d="M101.346 140.44H97.4717V144.314H101.346V140.44Z" fill="#495865"/>
<path d="M112.971 140.44H109.096V144.314H112.971V140.44Z" fill="#495865"/>
<path d="M116.845 140.44H112.971V144.314H116.845V140.44Z" fill="#495865"/>
<path d="M120.72 140.44H116.845V144.314H120.72V140.44Z" fill="#495865"/>
<path d="M128.469 140.44H124.595V144.314H128.469V140.44Z" fill="#495865"/>
<path d="M132.344 140.44H128.469V144.314H132.344V140.44Z" fill="#495865"/>
<path d="M136.219 140.44H132.344V144.314H136.219V140.44Z" fill="#495865"/>
<path d="M140.093 140.44H136.219V144.314H140.093V140.44Z" fill="#495865"/>
<path d="M143.968 140.44H140.093V144.314H143.968V140.44Z" fill="#495865"/>
<path d="M159.467 140.44H155.592V144.314H159.467V140.44Z" fill="#495865"/>
<path d="M4.47883 144.314H0.604126V148.189H4.47883V144.314Z" fill="#495865"/>
<path d="M12.2282 144.314H8.35353V148.189H12.2282V144.314Z" fill="#495865"/>
<path d="M16.1029 144.314H12.2282V148.189H16.1029V144.314Z" fill="#495865"/>
<path d="M19.9776 144.314H16.1029V148.189H19.9776V144.314Z" fill="#495865"/>
<path d="M27.727 144.314H23.8523V148.189H27.727V144.314Z" fill="#495865"/>
<path d="M35.4765 144.314H31.6018V148.189H35.4765V144.314Z" fill="#495865"/>
<path d="M39.3512 144.314H35.4765V148.189H39.3512V144.314Z" fill="#495865"/>
<path d="M47.1006 144.314H43.2259V148.189H47.1006V144.314Z" fill="#495865"/>
<path d="M58.7247 144.314H54.85V148.189H58.7247V144.314Z" fill="#495865"/>
<path d="M62.5994 144.314H58.7247V148.189H62.5994V144.314Z" fill="#495865"/>
<path d="M66.4741 144.314H62.5994V148.189H66.4741V144.314Z" fill="#495865"/>
<path d="M74.2235 144.314H70.3488V148.189H74.2235V144.314Z" fill="#495865"/>
<path d="M78.0982 144.314H74.2235V148.189H78.0982V144.314Z" fill="#495865"/>
<path d="M85.8476 144.314H81.9729V148.189H85.8476V144.314Z" fill="#495865"/>
<path d="M109.096 144.314H105.221V148.189H109.096V144.314Z" fill="#495865"/>
<path d="M116.845 144.314H112.971V148.189H116.845V144.314Z" fill="#495865"/>
<path d="M120.72 144.314H116.845V148.189H120.72V144.314Z" fill="#495865"/>
<path d="M136.219 144.314H132.344V148.189H136.219V144.314Z" fill="#495865"/>
<path d="M140.093 144.314H136.219V148.189H140.093V144.314Z" fill="#495865"/>
<path d="M143.968 144.314H140.093V148.189H143.968V144.314Z" fill="#495865"/>
<path d="M151.718 144.314H147.843V148.189H151.718V144.314Z" fill="#495865"/>
<path d="M155.592 144.314H151.718V148.189H155.592V144.314Z" fill="#495865"/>
<path d="M159.467 144.314H155.592V148.189H159.467V144.314Z" fill="#495865"/>
<path d="M4.47883 148.189H0.604126V152.064H4.47883V148.189Z" fill="#495865"/>
<path d="M12.2282 148.189H8.35353V152.064H12.2282V148.189Z" fill="#495865"/>
<path d="M16.1029 148.189H12.2282V152.064H16.1029V148.189Z" fill="#495865"/>
<path d="M19.9776 148.189H16.1029V152.064H19.9776V148.189Z" fill="#495865"/>
<path d="M27.727 148.189H23.8523V152.064H27.727V148.189Z" fill="#495865"/>
<path d="M58.7247 148.189H54.85V152.064H58.7247V148.189Z" fill="#495865"/>
<path d="M66.4741 148.189H62.5994V152.064H66.4741V148.189Z" fill="#495865"/>
<path d="M74.2235 148.189H70.3488V152.064H74.2235V148.189Z" fill="#495865"/>
<path d="M101.346 148.189H97.4717V152.064H101.346V148.189Z" fill="#495865"/>
<path d="M116.845 148.189H112.971V152.064H116.845V148.189Z" fill="#495865"/>
<path d="M120.72 148.189H116.845V152.064H120.72V148.189Z" fill="#495865"/>
<path d="M132.344 148.189H128.469V152.064H132.344V148.189Z" fill="#495865"/>
<path d="M136.219 148.189H132.344V152.064H136.219V148.189Z" fill="#495865"/>
<path d="M159.467 148.189H155.592V152.064H159.467V148.189Z" fill="#495865"/>
<path d="M4.47883 152.064H0.604126V155.938H4.47883V152.064Z" fill="#495865"/>
<path d="M27.727 152.064H23.8523V155.938H27.727V152.064Z" fill="#495865"/>
<path d="M54.85 152.064H50.9753V155.938H54.85V152.064Z" fill="#495865"/>
<path d="M66.4741 152.064H62.5994V155.938H66.4741V152.064Z" fill="#495865"/>
<path d="M74.2235 152.064H70.3488V155.938H74.2235V152.064Z" fill="#495865"/>
<path d="M78.0982 152.064H74.2235V155.938H78.0982V152.064Z" fill="#495865"/>
<path d="M97.4717 152.064H93.597V155.938H97.4717V152.064Z" fill="#495865"/>
<path d="M101.346 152.064H97.4717V155.938H101.346V152.064Z" fill="#495865"/>
<path d="M112.971 152.064H109.096V155.938H112.971V152.064Z" fill="#495865"/>
<path d="M132.344 152.064H128.469V155.938H132.344V152.064Z" fill="#495865"/>
<path d="M143.968 152.064H140.093V155.938H143.968V152.064Z" fill="#495865"/>
<path d="M155.592 152.064H151.718V155.938H155.592V152.064Z" fill="#495865"/>
<path d="M159.467 152.064H155.592V155.938H159.467V152.064Z" fill="#495865"/>
<path d="M4.47883 155.938H0.604126V159.813H4.47883V155.938Z" fill="#495865"/>
<path d="M8.35353 155.938H4.47883V159.813H8.35353V155.938Z" fill="#495865"/>
<path d="M12.2282 155.938H8.35353V159.813H12.2282V155.938Z" fill="#495865"/>
<path d="M16.1029 155.938H12.2282V159.813H16.1029V155.938Z" fill="#495865"/>
<path d="M19.9776 155.938H16.1029V159.813H19.9776V155.938Z" fill="#495865"/>
<path d="M23.8523 155.938H19.9776V159.813H23.8523V155.938Z" fill="#495865"/>
<path d="M27.727 155.938H23.8523V159.813H27.727V155.938Z" fill="#495865"/>
<path d="M35.4765 155.938H31.6018V159.813H35.4765V155.938Z" fill="#495865"/>
<path d="M39.3512 155.938H35.4765V159.813H39.3512V155.938Z" fill="#495865"/>
<path d="M43.2259 155.938H39.3512V159.813H43.2259V155.938Z" fill="#495865"/>
<path d="M58.7247 155.938H54.85V159.813H58.7247V155.938Z" fill="#495865"/>
<path d="M70.3488 155.938H66.4741V159.813H70.3488V155.938Z" fill="#495865"/>
<path d="M74.2235 155.938H70.3488V159.813H74.2235V155.938Z" fill="#495865"/>
<path d="M78.0982 155.938H74.2235V159.813H78.0982V155.938Z" fill="#495865"/>
<path d="M85.8476 155.938H81.9729V159.813H85.8476V155.938Z" fill="#495865"/>
<path d="M89.7223 155.938H85.8476V159.813H89.7223V155.938Z" fill="#495865"/>
<path d="M101.346 155.938H97.4717V159.813H101.346V155.938Z" fill="#495865"/>
<path d="M105.221 155.938H101.346V159.813H105.221V155.938Z" fill="#495865"/>
<path d="M116.845 155.938H112.971V159.813H116.845V155.938Z" fill="#495865"/>
<path d="M120.72 155.938H116.845V159.813H120.72V155.938Z" fill="#495865"/>
<path d="M124.595 155.938H120.72V159.813H124.595V155.938Z" fill="#495865"/>
<path d="M128.469 155.938H124.595V159.813H128.469V155.938Z" fill="#495865"/>
<path d="M132.344 155.938H128.469V159.813H132.344V155.938Z" fill="#495865"/>
<path d="M136.219 155.938H132.344V159.813H136.219V155.938Z" fill="#495865"/>
<path d="M143.968 155.938H140.093V159.813H143.968V155.938Z" fill="#495865"/>
<path d="M147.843 155.938H143.968V159.813H147.843V155.938Z" fill="#495865"/>
<path d="M151.718 155.938H147.843V159.813H151.718V155.938Z" fill="#495865"/>
<path d="M155.592 155.938H151.718V159.813H155.592V155.938Z" fill="#495865"/>
</svg>
